<svg width="1620" height="2160" viewBox="0 0 1620 2160" fill="none" xmlns="http://www.w3.org/2000/svg">
<rect width="1620" height="2160" fill="white"/>
<line x1="129" y1="1952.46" x2="1491" y2="1952.46" stroke="black" stroke-width="3"/>
<line x1="129" y1="2029.5" x2="1491" y2="2029.5" stroke="black"/>
<path d="M130.32 1987.01V1973.97H133.34L136.08 1980.45L137.2 1983.33H137.28C137.213 1982.64 137.127 1981.87 137.02 1981.01C136.913 1980.16 136.86 1979.35 136.86 1978.59V1973.97H139.68V1987.01H136.66L133.92 1980.51L132.8 1977.67H132.72C132.787 1978.38 132.873 1979.15 132.98 1979.99C133.087 1980.82 133.14 1981.62 133.14 1982.39V1987.01H130.32ZM146.992 1987.25C145.952 1987.25 145.039 1986.99 144.252 1986.47C143.466 1985.95 142.852 1985.19 142.412 1984.19C141.972 1983.18 141.752 1981.93 141.752 1980.43C141.752 1978.98 141.972 1977.76 142.412 1976.77C142.852 1975.77 143.466 1975.02 144.252 1974.51C145.039 1973.99 145.952 1973.73 146.992 1973.73C148.032 1973.73 148.946 1973.99 149.732 1974.51C150.519 1975.02 151.132 1975.77 151.572 1976.77C152.012 1977.76 152.232 1978.98 152.232 1980.43C152.232 1981.93 152.012 1983.18 151.572 1984.19C151.132 1985.19 150.519 1985.95 149.732 1986.47C148.946 1986.99 148.032 1987.25 146.992 1987.25ZM146.992 1984.71C147.446 1984.71 147.839 1984.55 148.172 1984.23C148.506 1983.9 148.759 1983.42 148.932 1982.79C149.119 1982.15 149.212 1981.37 149.212 1980.43C149.212 1979.53 149.119 1978.77 148.932 1978.15C148.759 1977.54 148.506 1977.07 148.172 1976.75C147.839 1976.43 147.446 1976.27 146.992 1976.27C146.539 1976.27 146.146 1976.43 145.812 1976.75C145.479 1977.07 145.219 1977.54 145.032 1978.15C144.859 1978.77 144.772 1979.53 144.772 1980.43C144.772 1981.37 144.859 1982.15 145.032 1982.79C145.219 1983.42 145.479 1983.9 145.812 1984.23C146.146 1984.55 146.539 1984.71 146.992 1984.71ZM157.504 1987.01V1976.45H153.604V1973.97H164.364V1976.45H160.464V1987.01H157.504ZM166.817 1987.01V1973.97H175.457V1976.45H169.777V1979.07H174.597V1981.53H169.777V1984.53H175.657V1987.01H166.817ZM182.929 1987.25C182.049 1987.25 181.175 1987.09 180.309 1986.77C179.455 1986.45 178.675 1985.99 177.969 1985.37L179.669 1983.35C180.162 1983.75 180.702 1984.08 181.289 1984.33C181.889 1984.59 182.502 1984.71 183.129 1984.71C183.755 1984.71 184.215 1984.61 184.509 1984.39C184.815 1984.18 184.969 1983.91 184.969 1983.57C184.969 1983.27 184.889 1983.03 184.729 1982.85C184.569 1982.67 184.335 1982.51 184.029 1982.37C183.722 1982.23 183.362 1982.07 182.949 1981.89L181.269 1981.17C180.789 1980.99 180.335 1980.74 179.909 1980.43C179.482 1980.11 179.135 1979.73 178.869 1979.27C178.615 1978.81 178.489 1978.25 178.489 1977.61C178.489 1976.89 178.689 1976.25 179.089 1975.67C179.502 1975.09 180.062 1974.62 180.769 1974.27C181.489 1973.91 182.322 1973.73 183.269 1973.73C184.055 1973.73 184.829 1973.88 185.589 1974.17C186.349 1974.47 187.022 1974.89 187.609 1975.45L186.109 1977.31C185.655 1976.98 185.202 1976.73 184.749 1976.55C184.295 1976.37 183.749 1976.27 183.109 1976.27C182.629 1976.27 182.235 1976.37 181.929 1976.57C181.622 1976.77 181.469 1977.07 181.469 1977.45C181.469 1977.71 181.562 1977.92 181.749 1978.09C181.935 1978.27 182.189 1978.42 182.509 1978.55C182.829 1978.69 183.195 1978.83 183.609 1978.99L185.189 1979.67C185.775 1979.89 186.275 1980.15 186.689 1980.47C187.102 1980.78 187.422 1981.16 187.649 1981.61C187.875 1982.07 187.989 1982.6 187.989 1983.21C187.989 1983.93 187.789 1984.6 187.389 1985.21C187.002 1985.83 186.429 1986.32 185.669 1986.69C184.922 1987.07 184.009 1987.25 182.929 1987.25Z" fill="black"/>
<line x1="129" y1="1598.48" x2="1491" y2="1598.48" stroke="black" stroke-width="3"/>
<line x1="129" y1="1675.52" x2="1491" y2="1675.52" stroke="black"/>
<line x1="129" y1="1723.05" x2="1491" y2="1723.05" stroke="black"/>
<line x1="129" y1="1770.58" x2="1491" y2="1770.58" stroke="black"/>
<line x1="129" y1="1818.1" x2="1491" y2="1818.1" stroke="black"/>
<line x1="129" y1="1865.63" x2="1491" y2="1865.63" stroke="black"/>
<line x1="129" y1="1913.15" x2="1491" y2="1913.15" stroke="black"/>
<path d="M134.96 1633.28C134.08 1633.28 133.207 1633.12 132.34 1632.8C131.487 1632.48 130.707 1632.01 130 1631.4L131.7 1629.38C132.193 1629.78 132.733 1630.1 133.32 1630.36C133.92 1630.61 134.533 1630.74 135.16 1630.74C135.787 1630.74 136.247 1630.63 136.54 1630.42C136.847 1630.2 137 1629.93 137 1629.6C137 1629.29 136.92 1629.05 136.76 1628.88C136.6 1628.69 136.367 1628.53 136.06 1628.4C135.753 1628.25 135.393 1628.09 134.98 1627.92L133.3 1627.2C132.82 1627.01 132.367 1626.76 131.94 1626.46C131.513 1626.14 131.167 1625.75 130.9 1625.3C130.647 1624.83 130.52 1624.28 130.52 1623.64C130.52 1622.92 130.72 1622.27 131.12 1621.7C131.533 1621.11 132.093 1620.64 132.8 1620.3C133.52 1619.94 134.353 1619.76 135.3 1619.76C136.087 1619.76 136.86 1619.9 137.62 1620.2C138.38 1620.49 139.053 1620.92 139.64 1621.48L138.14 1623.34C137.687 1623 137.233 1622.75 136.78 1622.58C136.327 1622.39 135.78 1622.3 135.14 1622.3C134.66 1622.3 134.267 1622.4 133.96 1622.6C133.653 1622.8 133.5 1623.09 133.5 1623.48C133.5 1623.73 133.593 1623.94 133.78 1624.12C133.967 1624.29 134.22 1624.44 134.54 1624.58C134.86 1624.71 135.227 1624.86 135.64 1625.02L137.22 1625.7C137.807 1625.91 138.307 1626.18 138.72 1626.5C139.133 1626.8 139.453 1627.18 139.68 1627.64C139.907 1628.09 140.02 1628.62 140.02 1629.24C140.02 1629.96 139.82 1630.62 139.42 1631.24C139.033 1631.85 138.46 1632.34 137.7 1632.72C136.953 1633.09 136.04 1633.28 134.96 1633.28ZM147.032 1633.28C146.232 1633.28 145.532 1633.16 144.932 1632.94C144.346 1632.7 143.852 1632.36 143.452 1631.92C143.066 1631.46 142.772 1630.92 142.572 1630.28C142.372 1629.62 142.272 1628.87 142.272 1628.02V1620H145.212V1628.32C145.212 1628.84 145.279 1629.28 145.412 1629.64C145.546 1630 145.746 1630.27 146.012 1630.46C146.279 1630.64 146.619 1630.74 147.032 1630.74C147.446 1630.74 147.786 1630.64 148.052 1630.46C148.332 1630.27 148.539 1630 148.672 1629.64C148.806 1629.28 148.872 1628.84 148.872 1628.32V1620H151.712V1628.02C151.712 1628.87 151.619 1629.62 151.432 1630.28C151.246 1630.92 150.952 1631.46 150.552 1631.92C150.166 1632.36 149.679 1632.7 149.092 1632.94C148.506 1633.16 147.819 1633.28 147.032 1633.28ZM154.484 1633.04V1620H159.104C160.051 1620 160.904 1620.13 161.664 1620.4C162.438 1620.65 163.051 1621.08 163.504 1621.7C163.971 1622.31 164.204 1623.14 164.204 1624.2C164.204 1625.21 163.971 1626.04 163.504 1626.7C163.038 1627.35 162.418 1627.84 161.644 1628.16C160.871 1628.46 160.024 1628.62 159.104 1628.62H157.424V1633.04H154.484ZM157.424 1626.28H158.924C159.738 1626.28 160.338 1626.1 160.724 1625.74C161.124 1625.38 161.324 1624.86 161.324 1624.2C161.324 1623.5 161.118 1623.02 160.704 1622.76C160.304 1622.48 159.711 1622.34 158.924 1622.34H157.424V1626.28ZM166.477 1633.04V1620H171.097C172.043 1620 172.897 1620.13 173.657 1620.4C174.43 1620.65 175.043 1621.08 175.497 1621.7C175.963 1622.31 176.197 1623.14 176.197 1624.2C176.197 1625.21 175.963 1626.04 175.497 1626.7C175.03 1627.35 174.41 1627.84 173.637 1628.16C172.863 1628.46 172.017 1628.62 171.097 1628.62H169.417V1633.04H166.477ZM169.417 1626.28H170.917C171.73 1626.28 172.33 1626.1 172.717 1625.74C173.117 1625.38 173.317 1624.86 173.317 1624.2C173.317 1623.5 173.11 1623.02 172.697 1622.76C172.297 1622.48 171.703 1622.34 170.917 1622.34H169.417V1626.28ZM182.969 1633.28C181.929 1633.28 181.015 1633.02 180.229 1632.5C179.442 1631.98 178.829 1631.22 178.389 1630.22C177.949 1629.2 177.729 1627.95 177.729 1626.46C177.729 1625 177.949 1623.78 178.389 1622.8C178.829 1621.8 179.442 1621.04 180.229 1620.54C181.015 1620.02 181.929 1619.76 182.969 1619.76C184.009 1619.76 184.922 1620.02 185.709 1620.54C186.495 1621.04 187.109 1621.8 187.549 1622.8C187.989 1623.78 188.209 1625 188.209 1626.46C188.209 1627.95 187.989 1629.2 187.549 1630.22C187.109 1631.22 186.495 1631.98 185.709 1632.5C184.922 1633.02 184.009 1633.28 182.969 1633.28ZM182.969 1630.74C183.422 1630.74 183.815 1630.58 184.149 1630.26C184.482 1629.92 184.735 1629.44 184.909 1628.82C185.095 1628.18 185.189 1627.39 185.189 1626.46C185.189 1625.55 185.095 1624.79 184.909 1624.18C184.735 1623.56 184.482 1623.1 184.149 1622.78C183.815 1622.46 183.422 1622.3 182.969 1622.3C182.515 1622.3 182.122 1622.46 181.789 1622.78C181.455 1623.1 181.195 1623.56 181.009 1624.18C180.835 1624.79 180.749 1625.55 180.749 1626.46C180.749 1627.39 180.835 1628.18 181.009 1628.82C181.195 1629.44 181.455 1629.92 181.789 1630.26C182.122 1630.58 182.515 1630.74 182.969 1630.74ZM190.361 1633.04V1620H194.981C195.901 1620 196.741 1620.12 197.501 1620.38C198.261 1620.62 198.868 1621.04 199.321 1621.64C199.788 1622.22 200.021 1623.03 200.021 1624.06C200.021 1625.06 199.788 1625.87 199.321 1626.5C198.868 1627.12 198.261 1627.59 197.501 1627.9C196.741 1628.19 195.901 1628.34 194.981 1628.34H193.301V1633.04H190.361ZM193.301 1626H194.741C195.514 1626 196.101 1625.84 196.501 1625.52C196.914 1625.18 197.121 1624.7 197.121 1624.06C197.121 1623.42 196.914 1622.97 196.501 1622.72C196.101 1622.46 195.514 1622.34 194.741 1622.34H193.301V1626ZM194.441 1627.58L196.481 1625.68L200.641 1633.04H197.341L194.441 1627.58ZM205.473 1633.04V1622.48H201.573V1620H212.333V1622.48H208.433V1633.04H205.473Z" fill="black"/>
<line x1="129" y1="1244.5" x2="1491" y2="1244.5" stroke="black" stroke-width="3"/>
<line x1="129" y1="1321.55" x2="1491" y2="1321.55" stroke="black"/>
<line x1="129" y1="1369.07" x2="1491" y2="1369.07" stroke="black"/>
<line x1="129" y1="1416.6" x2="1491" y2="1416.6" stroke="black"/>
<line x1="129" y1="1464.13" x2="1491" y2="1464.13" stroke="black"/>
<line x1="129" y1="1511.65" x2="1491" y2="1511.65" stroke="black"/>
<line x1="129" y1="1559.18" x2="1491" y2="1559.18" stroke="black"/>
<path d="M135.04 1279.3C134.24 1279.3 133.54 1279.19 132.94 1278.96C132.353 1278.72 131.86 1278.38 131.46 1277.94C131.073 1277.49 130.78 1276.94 130.58 1276.3C130.38 1275.65 130.28 1274.89 130.28 1274.04V1266.02H133.22V1274.34C133.22 1274.86 133.287 1275.3 133.42 1275.66C133.553 1276.02 133.753 1276.29 134.02 1276.48C134.287 1276.67 134.627 1276.76 135.04 1276.76C135.453 1276.76 135.793 1276.67 136.06 1276.48C136.34 1276.29 136.547 1276.02 136.68 1275.66C136.813 1275.3 136.88 1274.86 136.88 1274.34V1266.02H139.72V1274.04C139.72 1274.89 139.627 1275.65 139.44 1276.3C139.253 1276.94 138.96 1277.49 138.56 1277.94C138.173 1278.38 137.687 1278.72 137.1 1278.96C136.513 1279.19 135.827 1279.3 135.04 1279.3ZM142.492 1279.06V1266.02H147.112C148.059 1266.02 148.912 1266.15 149.672 1266.42C150.446 1266.67 151.059 1267.11 151.512 1267.72C151.979 1268.33 152.212 1269.17 152.212 1270.22C152.212 1271.23 151.979 1272.07 151.512 1272.72C151.046 1273.37 150.426 1273.86 149.652 1274.18C148.879 1274.49 148.032 1274.64 147.112 1274.64H145.432V1279.06H142.492ZM145.432 1272.3H146.932C147.746 1272.3 148.346 1272.12 148.732 1271.76C149.132 1271.4 149.332 1270.89 149.332 1270.22C149.332 1269.53 149.126 1269.05 148.712 1268.78C148.312 1268.5 147.719 1268.36 146.932 1268.36H145.432V1272.3ZM160.104 1279.3C159.291 1279.3 158.518 1279.16 157.784 1278.88C157.064 1278.6 156.424 1278.18 155.864 1277.62C155.304 1277.05 154.864 1276.35 154.544 1275.52C154.224 1274.68 154.064 1273.71 154.064 1272.62C154.064 1271.18 154.338 1269.95 154.884 1268.94C155.444 1267.91 156.191 1267.13 157.124 1266.6C158.071 1266.05 159.124 1265.78 160.284 1265.78C161.111 1265.78 161.858 1265.95 162.524 1266.3C163.191 1266.63 163.744 1267.01 164.184 1267.44L162.564 1269.26C162.258 1268.97 161.918 1268.74 161.544 1268.58C161.184 1268.41 160.764 1268.32 160.284 1268.32C159.671 1268.32 159.124 1268.49 158.644 1268.84C158.164 1269.17 157.784 1269.65 157.504 1270.28C157.224 1270.91 157.084 1271.65 157.084 1272.52C157.084 1273.41 157.224 1274.18 157.504 1274.82C157.784 1275.45 158.171 1275.93 158.664 1276.26C159.171 1276.59 159.751 1276.76 160.404 1276.76C160.884 1276.76 161.318 1276.65 161.704 1276.44C162.091 1276.23 162.444 1275.95 162.764 1275.6L164.384 1277.38C163.851 1278.01 163.224 1278.49 162.504 1278.82C161.784 1279.14 160.984 1279.3 160.104 1279.3ZM170.977 1279.3C169.937 1279.3 169.023 1279.04 168.237 1278.52C167.45 1278 166.837 1277.24 166.397 1276.24C165.957 1275.23 165.737 1273.97 165.737 1272.48C165.737 1271.03 165.957 1269.81 166.397 1268.82C166.837 1267.82 167.45 1267.07 168.237 1266.56C169.023 1266.04 169.937 1265.78 170.977 1265.78C172.017 1265.78 172.93 1266.04 173.717 1266.56C174.503 1267.07 175.117 1267.82 175.557 1268.82C175.997 1269.81 176.217 1271.03 176.217 1272.48C176.217 1273.97 175.997 1275.23 175.557 1276.24C175.117 1277.24 174.503 1278 173.717 1278.52C172.93 1279.04 172.017 1279.3 170.977 1279.3ZM170.977 1276.76C171.43 1276.76 171.823 1276.6 172.157 1276.28C172.49 1275.95 172.743 1275.47 172.917 1274.84C173.103 1274.2 173.197 1273.41 173.197 1272.48C173.197 1271.57 173.103 1270.81 172.917 1270.2C172.743 1269.59 172.49 1269.12 172.157 1268.8C171.823 1268.48 171.43 1268.32 170.977 1268.32C170.523 1268.32 170.13 1268.48 169.797 1268.8C169.463 1269.12 169.203 1269.59 169.017 1270.2C168.843 1270.81 168.757 1271.57 168.757 1272.48C168.757 1273.41 168.843 1274.2 169.017 1274.84C169.203 1275.47 169.463 1275.95 169.797 1276.28C170.13 1276.6 170.523 1276.76 170.977 1276.76ZM178.129 1279.06V1266.02H181.209L182.489 1270.64L182.929 1272.44H183.009L183.449 1270.64L184.729 1266.02H187.809V1279.06H185.329V1275.02C185.329 1274.66 185.342 1274.21 185.369 1273.68C185.395 1273.13 185.429 1272.57 185.469 1271.98C185.509 1271.39 185.549 1270.83 185.589 1270.3C185.642 1269.77 185.682 1269.33 185.709 1268.98H185.649L184.649 1272.46L183.649 1275.6H182.209L181.189 1272.46L180.249 1268.98H180.189C180.215 1269.33 180.249 1269.77 180.289 1270.3C180.342 1270.83 180.389 1271.39 180.429 1271.98C180.469 1272.57 180.502 1273.13 180.529 1273.68C180.555 1274.21 180.569 1274.66 180.569 1275.02V1279.06H178.129ZM190.441 1279.06V1276.58H193.481V1268.5H190.441V1266.02H199.481V1268.5H196.441V1276.58H199.481V1279.06H190.441ZM202.273 1279.06V1266.02H205.293L208.033 1272.5L209.153 1275.38H209.233C209.166 1274.69 209.08 1273.91 208.973 1273.06C208.866 1272.21 208.813 1271.4 208.813 1270.64V1266.02H211.633V1279.06H208.613L205.873 1272.56L204.753 1269.72H204.673C204.74 1270.43 204.826 1271.2 204.933 1272.04C205.04 1272.87 205.093 1273.67 205.093 1274.44V1279.06H202.273ZM219.805 1279.3C218.699 1279.3 217.692 1279.05 216.785 1278.56C215.879 1278.05 215.159 1277.31 214.625 1276.32C214.092 1275.32 213.825 1274.09 213.825 1272.62C213.825 1271.17 214.092 1269.93 214.625 1268.92C215.159 1267.89 215.879 1267.11 216.785 1266.58C217.705 1266.05 218.725 1265.78 219.845 1265.78C220.725 1265.78 221.479 1265.95 222.105 1266.3C222.732 1266.63 223.252 1267.01 223.665 1267.44L222.045 1269.26C221.765 1268.98 221.459 1268.75 221.125 1268.58C220.792 1268.41 220.365 1268.32 219.845 1268.32C219.285 1268.32 218.779 1268.49 218.325 1268.84C217.872 1269.17 217.512 1269.65 217.245 1270.28C216.992 1270.91 216.865 1271.65 216.865 1272.52C216.865 1273.41 216.979 1274.18 217.205 1274.82C217.432 1275.45 217.779 1275.93 218.245 1276.26C218.712 1276.59 219.285 1276.76 219.965 1276.76C220.219 1276.76 220.459 1276.73 220.685 1276.66C220.925 1276.59 221.112 1276.49 221.245 1276.36V1274.12H219.345V1271.72H223.885V1277.72C223.445 1278.13 222.859 1278.5 222.125 1278.82C221.405 1279.14 220.632 1279.3 219.805 1279.3Z" fill="black"/>
<line x1="129" y1="890.528" x2="1491" y2="890.528" stroke="black" stroke-width="3"/>
<line x1="129" y1="967.57" x2="1491" y2="967.57" stroke="black"/>
<line x1="129" y1="1015.1" x2="1491" y2="1015.1" stroke="black"/>
<line x1="129" y1="1062.62" x2="1491" y2="1062.62" stroke="black"/>
<line x1="129" y1="1110.15" x2="1491" y2="1110.15" stroke="black"/>
<line x1="129" y1="1157.67" x2="1491" y2="1157.67" stroke="black"/>
<line x1="129" y1="1205.2" x2="1491" y2="1205.2" stroke="black"/>
<path d="M136.12 925.322C135.307 925.322 134.533 925.182 133.8 924.902C133.08 924.622 132.44 924.202 131.88 923.642C131.32 923.069 130.88 922.369 130.56 921.542C130.24 920.702 130.08 919.735 130.08 918.642C130.08 917.202 130.353 915.975 130.9 914.962C131.46 913.935 132.207 913.155 133.14 912.622C134.087 912.075 135.14 911.802 136.3 911.802C137.127 911.802 137.873 911.975 138.54 912.322C139.207 912.655 139.76 913.035 140.2 913.462L138.58 915.282C138.273 914.989 137.933 914.762 137.56 914.602C137.2 914.429 136.78 914.342 136.3 914.342C135.687 914.342 135.14 914.515 134.66 914.862C134.18 915.195 133.8 915.675 133.52 916.302C133.24 916.929 133.1 917.675 133.1 918.542C133.1 919.435 133.24 920.202 133.52 920.842C133.8 921.469 134.187 921.949 134.68 922.282C135.187 922.615 135.767 922.782 136.42 922.782C136.9 922.782 137.333 922.675 137.72 922.462C138.107 922.249 138.46 921.969 138.78 921.622L140.4 923.402C139.867 924.029 139.24 924.509 138.52 924.842C137.8 925.162 137 925.322 136.12 925.322ZM146.992 925.322C145.952 925.322 145.039 925.062 144.252 924.542C143.466 924.022 142.852 923.262 142.412 922.262C141.972 921.249 141.752 919.995 141.752 918.502C141.752 917.049 141.972 915.829 142.412 914.842C142.852 913.842 143.466 913.089 144.252 912.582C145.039 912.062 145.952 911.802 146.992 911.802C148.032 911.802 148.946 912.062 149.732 912.582C150.519 913.089 151.132 913.842 151.572 914.842C152.012 915.829 152.232 917.049 152.232 918.502C152.232 919.995 152.012 921.249 151.572 922.262C151.132 923.262 150.519 924.022 149.732 924.542C148.946 925.062 148.032 925.322 146.992 925.322ZM146.992 922.782C147.446 922.782 147.839 922.622 148.172 922.302C148.506 921.969 148.759 921.489 148.932 920.862C149.119 920.222 149.212 919.435 149.212 918.502C149.212 917.595 149.119 916.835 148.932 916.222C148.759 915.609 148.506 915.142 148.172 914.822C147.839 914.502 147.446 914.342 146.992 914.342C146.539 914.342 146.146 914.502 145.812 914.822C145.479 915.142 145.219 915.609 145.032 916.222C144.859 916.835 144.772 917.595 144.772 918.502C144.772 919.435 144.859 920.222 145.032 920.862C145.219 921.489 145.479 921.969 145.812 922.302C146.146 922.622 146.539 922.782 146.992 922.782ZM154.144 925.082V912.042H157.224L158.504 916.662L158.944 918.462H159.024L159.464 916.662L160.744 912.042H163.824V925.082H161.344V921.042C161.344 920.682 161.358 920.235 161.384 919.702C161.411 919.155 161.444 918.589 161.484 918.002C161.524 917.415 161.564 916.855 161.604 916.322C161.658 915.789 161.698 915.349 161.724 915.002H161.664L160.664 918.482L159.664 921.622H158.224L157.204 918.482L156.264 915.002H156.204C156.231 915.349 156.264 915.789 156.304 916.322C156.358 916.855 156.404 917.415 156.444 918.002C156.484 918.589 156.518 919.155 156.544 919.702C156.571 920.235 156.584 920.682 156.584 921.042V925.082H154.144ZM166.477 925.082V912.042H171.097C172.043 912.042 172.897 912.175 173.657 912.442C174.43 912.695 175.043 913.129 175.497 913.742C175.963 914.355 176.197 915.189 176.197 916.242C176.197 917.255 175.963 918.089 175.497 918.742C175.03 919.395 174.41 919.882 173.637 920.202C172.863 920.509 172.017 920.662 171.097 920.662H169.417V925.082H166.477ZM169.417 918.322H170.917C171.73 918.322 172.33 918.142 172.717 917.782C173.117 917.422 173.317 916.909 173.317 916.242C173.317 915.549 173.11 915.069 172.697 914.802C172.297 914.522 171.703 914.382 170.917 914.382H169.417V918.322ZM179.109 925.082V912.042H182.049V922.602H187.849V925.082H179.109ZM190.801 925.082V912.042H199.441V914.522H193.761V917.142H198.581V919.602H193.761V922.602H199.641V925.082H190.801ZM205.473 925.082V914.522H201.573V912.042H212.333V914.522H208.433V925.082H205.473ZM214.425 925.082V922.602H217.465V914.522H214.425V912.042H223.465V914.522H220.425V922.602H223.465V925.082H214.425ZM230.938 925.322C229.898 925.322 228.984 925.062 228.198 924.542C227.411 924.022 226.798 923.262 226.358 922.262C225.918 921.249 225.698 919.995 225.698 918.502C225.698 917.049 225.918 915.829 226.358 914.842C226.798 913.842 227.411 913.089 228.198 912.582C228.984 912.062 229.898 911.802 230.938 911.802C231.978 911.802 232.891 912.062 233.678 912.582C234.464 913.089 235.078 913.842 235.518 914.842C235.958 915.829 236.178 917.049 236.178 918.502C236.178 919.995 235.958 921.249 235.518 922.262C235.078 923.262 234.464 924.022 233.678 924.542C232.891 925.062 231.978 925.322 230.938 925.322ZM230.938 922.782C231.391 922.782 231.784 922.622 232.118 922.302C232.451 921.969 232.704 921.489 232.878 920.862C233.064 920.222 233.158 919.435 233.158 918.502C233.158 917.595 233.064 916.835 232.878 916.222C232.704 915.609 232.451 915.142 232.118 914.822C231.784 914.502 231.391 914.342 230.938 914.342C230.484 914.342 230.091 914.502 229.758 914.822C229.424 915.142 229.164 915.609 228.978 916.222C228.804 916.835 228.718 917.595 228.718 918.502C228.718 919.435 228.804 920.222 228.978 920.862C229.164 921.489 229.424 921.969 229.758 922.302C230.091 922.622 230.484 922.782 230.938 922.782ZM238.25 925.082V912.042H241.27L244.01 918.522L245.13 921.402H245.21C245.143 920.709 245.056 919.935 244.95 919.082C244.843 918.229 244.79 917.422 244.79 916.662V912.042H247.61V925.082H244.59L241.85 918.582L240.73 915.742H240.65C240.716 916.449 240.803 917.222 240.91 918.062C241.016 918.889 241.07 919.689 241.07 920.462V925.082H238.25ZM254.882 925.322C254.002 925.322 253.129 925.162 252.262 924.842C251.409 924.522 250.629 924.055 249.922 923.442L251.622 921.422C252.115 921.822 252.655 922.149 253.242 922.402C253.842 922.655 254.455 922.782 255.082 922.782C255.709 922.782 256.169 922.675 256.462 922.462C256.769 922.249 256.922 921.975 256.922 921.642C256.922 921.335 256.842 921.095 256.682 920.922C256.522 920.735 256.289 920.575 255.982 920.442C255.675 920.295 255.315 920.135 254.902 919.962L253.222 919.242C252.742 919.055 252.289 918.809 251.862 918.502C251.435 918.182 251.089 917.795 250.822 917.342C250.569 916.875 250.442 916.322 250.442 915.682C250.442 914.962 250.642 914.315 251.042 913.742C251.455 913.155 252.015 912.689 252.722 912.342C253.442 911.982 254.275 911.802 255.222 911.802C256.009 911.802 256.782 911.949 257.542 912.242C258.302 912.535 258.975 912.962 259.562 913.522L258.062 915.382C257.609 915.049 257.155 914.795 256.702 914.622C256.249 914.435 255.702 914.342 255.062 914.342C254.582 914.342 254.189 914.442 253.882 914.642C253.575 914.842 253.422 915.135 253.422 915.522C253.422 915.775 253.515 915.989 253.702 916.162C253.889 916.335 254.142 916.489 254.462 916.622C254.782 916.755 255.149 916.902 255.562 917.062L257.142 917.742C257.729 917.955 258.229 918.222 258.642 918.542C259.055 918.849 259.375 919.229 259.602 919.682C259.829 920.135 259.942 920.669 259.942 921.282C259.942 922.002 259.742 922.669 259.342 923.282C258.955 923.895 258.382 924.389 257.622 924.762C256.875 925.135 255.962 925.322 254.882 925.322Z" fill="black"/>
<line x1="129" y1="536.552" x2="1491" y2="536.552" stroke="black" stroke-width="3"/>
<line x1="129" y1="613.594" x2="1491" y2="613.594" stroke="black"/>
<line x1="129" y1="661.119" x2="1491" y2="661.119" stroke="black"/>
<line x1="129" y1="708.646" x2="1491" y2="708.646" stroke="black"/>
<line x1="129" y1="756.173" x2="1491" y2="756.173" stroke="black"/>
<line x1="129" y1="803.698" x2="1491" y2="803.698" stroke="black"/>
<line x1="129" y1="851.225" x2="1491" y2="851.225" stroke="black"/>
<path d="M135 571.345C133.96 571.345 133.047 571.085 132.26 570.565C131.473 570.045 130.86 569.285 130.42 568.285C129.98 567.272 129.76 566.019 129.76 564.525C129.76 563.072 129.98 561.852 130.42 560.865C130.86 559.865 131.473 559.112 132.26 558.605C133.047 558.085 133.96 557.825 135 557.825C136.04 557.825 136.953 558.085 137.74 558.605C138.527 559.112 139.14 559.865 139.58 560.865C140.02 561.852 140.24 563.072 140.24 564.525C140.24 566.019 140.02 567.272 139.58 568.285C139.14 569.285 138.527 570.045 137.74 570.565C136.953 571.085 136.04 571.345 135 571.345ZM135 568.805C135.453 568.805 135.847 568.645 136.18 568.325C136.513 567.992 136.767 567.512 136.94 566.885C137.127 566.245 137.22 565.459 137.22 564.525C137.22 563.619 137.127 562.859 136.94 562.245C136.767 561.632 136.513 561.165 136.18 560.845C135.847 560.525 135.453 560.365 135 560.365C134.547 560.365 134.153 560.525 133.82 560.845C133.487 561.165 133.227 561.632 133.04 562.245C132.867 562.859 132.78 563.619 132.78 564.525C132.78 565.459 132.867 566.245 133.04 566.885C133.227 567.512 133.487 567.992 133.82 568.325C134.153 568.645 134.547 568.805 135 568.805ZM142.472 571.105V558.065H146.852C147.759 558.065 148.572 558.165 149.292 558.365C150.012 558.552 150.579 558.879 150.992 559.345C151.419 559.812 151.632 560.465 151.632 561.305C151.632 561.892 151.452 562.459 151.092 563.005C150.732 563.552 150.166 563.925 149.392 564.125V564.205C150.326 564.365 151.032 564.699 151.512 565.205C151.992 565.699 152.232 566.385 152.232 567.265C152.232 568.145 152.012 568.872 151.572 569.445C151.132 570.005 150.532 570.425 149.772 570.705C149.026 570.972 148.179 571.105 147.232 571.105H142.472ZM145.412 563.305H146.712C147.432 563.305 147.952 563.165 148.272 562.885C148.592 562.592 148.752 562.199 148.752 561.705C148.752 561.225 148.586 560.885 148.252 560.685C147.932 560.472 147.426 560.365 146.732 560.365H145.412V563.305ZM145.412 568.805H146.992C147.792 568.805 148.386 568.659 148.772 568.365C149.159 568.072 149.352 567.632 149.352 567.045C149.352 566.472 149.159 566.059 148.772 565.805C148.386 565.552 147.792 565.425 146.992 565.425H145.412V568.805ZM158.944 571.345C158.064 571.345 157.191 571.185 156.324 570.865C155.471 570.545 154.691 570.079 153.984 569.465L155.684 567.445C156.178 567.845 156.718 568.172 157.304 568.425C157.904 568.679 158.518 568.805 159.144 568.805C159.771 568.805 160.231 568.699 160.524 568.485C160.831 568.272 160.984 567.999 160.984 567.665C160.984 567.359 160.904 567.119 160.744 566.945C160.584 566.759 160.351 566.599 160.044 566.465C159.738 566.319 159.378 566.159 158.964 565.985L157.284 565.265C156.804 565.079 156.351 564.832 155.924 564.525C155.498 564.205 155.151 563.819 154.884 563.365C154.631 562.899 154.504 562.345 154.504 561.705C154.504 560.985 154.704 560.339 155.104 559.765C155.518 559.179 156.078 558.712 156.784 558.365C157.504 558.005 158.338 557.825 159.284 557.825C160.071 557.825 160.844 557.972 161.604 558.265C162.364 558.559 163.038 558.985 163.624 559.545L162.124 561.405C161.671 561.072 161.218 560.819 160.764 560.645C160.311 560.459 159.764 560.365 159.124 560.365C158.644 560.365 158.251 560.465 157.944 560.665C157.638 560.865 157.484 561.159 157.484 561.545C157.484 561.799 157.578 562.012 157.764 562.185C157.951 562.359 158.204 562.512 158.524 562.645C158.844 562.779 159.211 562.925 159.624 563.085L161.204 563.765C161.791 563.979 162.291 564.245 162.704 564.565C163.118 564.872 163.438 565.252 163.664 565.705C163.891 566.159 164.004 566.692 164.004 567.305C164.004 568.025 163.804 568.692 163.404 569.305C163.018 569.919 162.444 570.412 161.684 570.785C160.938 571.159 160.024 571.345 158.944 571.345ZM169.497 571.105V560.545H165.597V558.065H176.357V560.545H172.457V571.105H169.497ZM177.149 571.105L181.209 558.065H184.729L188.789 571.105H185.669L183.989 564.505C183.829 563.852 183.655 563.159 183.469 562.425C183.282 561.692 183.109 560.985 182.949 560.305H182.869C182.709 560.985 182.542 561.692 182.369 562.425C182.195 563.159 182.022 563.852 181.849 564.505L180.149 571.105H177.149ZM179.829 568.005V565.705H186.069V568.005H179.829ZM196.081 571.345C195.268 571.345 194.494 571.205 193.761 570.925C193.041 570.645 192.401 570.225 191.841 569.665C191.281 569.092 190.841 568.392 190.521 567.565C190.201 566.725 190.041 565.759 190.041 564.665C190.041 563.225 190.314 561.999 190.861 560.985C191.421 559.959 192.168 559.179 193.101 558.645C194.048 558.099 195.101 557.825 196.261 557.825C197.088 557.825 197.834 557.999 198.501 558.345C199.168 558.679 199.721 559.059 200.161 559.485L198.541 561.305C198.234 561.012 197.894 560.785 197.521 560.625C197.161 560.452 196.741 560.365 196.261 560.365C195.648 560.365 195.101 560.539 194.621 560.885C194.141 561.219 193.761 561.699 193.481 562.325C193.201 562.952 193.061 563.699 193.061 564.565C193.061 565.459 193.201 566.225 193.481 566.865C193.761 567.492 194.148 567.972 194.641 568.305C195.148 568.639 195.728 568.805 196.381 568.805C196.861 568.805 197.294 568.699 197.681 568.485C198.068 568.272 198.421 567.992 198.741 567.645L200.361 569.425C199.828 570.052 199.201 570.532 198.481 570.865C197.761 571.185 196.961 571.345 196.081 571.345ZM203.093 571.105V558.065H206.033V568.625H211.833V571.105H203.093ZM214.785 571.105V558.065H223.425V560.545H217.745V563.165H222.565V565.625H217.745V568.625H223.625V571.105H214.785ZM230.898 571.345C230.018 571.345 229.144 571.185 228.278 570.865C227.424 570.545 226.644 570.079 225.938 569.465L227.638 567.445C228.131 567.845 228.671 568.172 229.258 568.425C229.858 568.679 230.471 568.805 231.098 568.805C231.724 568.805 232.184 568.699 232.478 568.485C232.784 568.272 232.938 567.999 232.938 567.665C232.938 567.359 232.858 567.119 232.698 566.945C232.538 566.759 232.304 566.599 231.998 566.465C231.691 566.319 231.331 566.159 230.918 565.985L229.238 565.265C228.758 565.079 228.304 564.832 227.877 564.525C227.451 564.205 227.104 563.819 226.838 563.365C226.584 562.899 226.458 562.345 226.458 561.705C226.458 560.985 226.658 560.339 227.058 559.765C227.471 559.179 228.031 558.712 228.738 558.365C229.458 558.005 230.291 557.825 231.238 557.825C232.024 557.825 232.798 557.972 233.558 558.265C234.318 558.559 234.991 558.985 235.578 559.545L234.078 561.405C233.624 561.072 233.171 560.819 232.718 560.645C232.264 560.459 231.718 560.365 231.078 560.365C230.598 560.365 230.204 560.465 229.898 560.665C229.591 560.865 229.438 561.159 229.438 561.545C229.438 561.799 229.531 562.012 229.718 562.185C229.904 562.359 230.158 562.512 230.478 562.645C230.798 562.779 231.164 562.925 231.578 563.085L233.158 563.765C233.744 563.979 234.244 564.245 234.658 564.565C235.071 564.872 235.391 565.252 235.618 565.705C235.844 566.159 235.957 566.692 235.957 567.305C235.957 568.025 235.758 568.692 235.358 569.305C234.971 569.919 234.398 570.412 233.638 570.785C232.891 571.159 231.978 571.345 230.898 571.345Z" fill="black"/>
<line x1="129" y1="183.531" x2="1491" y2="183.531" stroke="black" stroke-width="3"/>
<line x1="129" y1="260.573" x2="1491" y2="260.573" stroke="black"/>
<line x1="129" y1="308.099" x2="1491" y2="308.099" stroke="black"/>
<line x1="129" y1="355.625" x2="1491" y2="355.625" stroke="black"/>
<line x1="129" y1="403.152" x2="1491" y2="403.152" stroke="black"/>
<line x1="129" y1="450.678" x2="1491" y2="450.678" stroke="black"/>
<line x1="129" y1="498.204" x2="1491" y2="498.204" stroke="black"/>
<path d="M131.1 218.567V205.527H139.76V208.007H134.04V211.027H138.92V213.507H134.04V218.567H131.1ZM141.172 218.567L145.232 205.527H148.752L152.812 218.567H149.692L148.012 211.967C147.852 211.314 147.679 210.621 147.492 209.887C147.306 209.154 147.132 208.447 146.972 207.767H146.892C146.732 208.447 146.566 209.154 146.392 209.887C146.219 210.621 146.046 211.314 145.872 211.967L144.172 218.567H141.172ZM143.852 215.467V213.167H150.092V215.467H143.852ZM154.304 218.567V205.527H157.324L160.064 212.007L161.184 214.887H161.264C161.198 214.194 161.111 213.421 161.004 212.567C160.898 211.714 160.844 210.907 160.844 210.147V205.527H163.664V218.567H160.644L157.904 212.067L156.784 209.227H156.704C156.771 209.934 156.858 210.707 156.964 211.547C157.071 212.374 157.124 213.174 157.124 213.947V218.567H154.304ZM169.497 218.567V208.007H165.597V205.527H176.357V208.007H172.457V218.567H169.497ZM177.149 218.567L181.209 205.527H184.729L188.789 218.567H185.669L183.989 211.967C183.829 211.314 183.655 210.621 183.469 209.887C183.282 209.154 183.109 208.447 182.949 207.767H182.869C182.709 208.447 182.542 209.154 182.369 209.887C182.195 210.621 182.022 211.314 181.849 211.967L180.149 218.567H177.149ZM179.829 215.467V213.167H186.069V215.467H179.829ZM194.921 218.807C194.041 218.807 193.168 218.647 192.301 218.327C191.448 218.007 190.668 217.541 189.961 216.927L191.661 214.907C192.154 215.307 192.694 215.634 193.281 215.887C193.881 216.141 194.494 216.267 195.121 216.267C195.748 216.267 196.208 216.161 196.501 215.947C196.808 215.734 196.961 215.461 196.961 215.127C196.961 214.821 196.881 214.581 196.721 214.407C196.561 214.221 196.328 214.061 196.021 213.927C195.714 213.781 195.354 213.621 194.941 213.447L193.261 212.727C192.781 212.541 192.328 212.294 191.901 211.987C191.474 211.667 191.128 211.281 190.861 210.827C190.608 210.361 190.481 209.807 190.481 209.167C190.481 208.447 190.681 207.801 191.081 207.227C191.494 206.641 192.054 206.174 192.761 205.827C193.481 205.467 194.314 205.287 195.261 205.287C196.048 205.287 196.821 205.434 197.581 205.727C198.341 206.021 199.014 206.447 199.601 207.007L198.101 208.867C197.648 208.534 197.194 208.281 196.741 208.107C196.288 207.921 195.741 207.827 195.101 207.827C194.621 207.827 194.228 207.927 193.921 208.127C193.614 208.327 193.461 208.621 193.461 209.007C193.461 209.261 193.554 209.474 193.741 209.647C193.928 209.821 194.181 209.974 194.501 210.107C194.821 210.241 195.188 210.387 195.601 210.547L197.181 211.227C197.768 211.441 198.268 211.707 198.681 212.027C199.094 212.334 199.414 212.714 199.641 213.167C199.868 213.621 199.981 214.154 199.981 214.767C199.981 215.487 199.781 216.154 199.381 216.767C198.994 217.381 198.421 217.874 197.661 218.247C196.914 218.621 196.001 218.807 194.921 218.807ZM205.473 218.567V208.007H201.573V205.527H212.333V208.007H208.433V218.567H205.473ZM214.425 218.567V216.087H217.465V208.007H214.425V205.527H223.465V208.007H220.425V216.087H223.465V218.567H214.425ZM232.058 218.807C231.244 218.807 230.471 218.667 229.738 218.387C229.018 218.107 228.378 217.687 227.818 217.127C227.258 216.554 226.818 215.854 226.498 215.027C226.178 214.187 226.018 213.221 226.018 212.127C226.018 210.687 226.291 209.461 226.838 208.447C227.398 207.421 228.144 206.641 229.078 206.107C230.024 205.561 231.078 205.287 232.238 205.287C233.064 205.287 233.811 205.461 234.478 205.807C235.144 206.141 235.698 206.521 236.138 206.947L234.518 208.767C234.211 208.474 233.871 208.247 233.498 208.087C233.138 207.914 232.718 207.827 232.238 207.827C231.624 207.827 231.078 208.001 230.598 208.347C230.118 208.681 229.738 209.161 229.458 209.787C229.178 210.414 229.038 211.161 229.038 212.027C229.038 212.921 229.178 213.687 229.458 214.327C229.738 214.954 230.124 215.434 230.618 215.767C231.124 216.101 231.704 216.267 232.358 216.267C232.838 216.267 233.271 216.161 233.658 215.947C234.044 215.734 234.398 215.454 234.718 215.107L236.338 216.887C235.804 217.514 235.178 217.994 234.458 218.327C233.738 218.647 232.938 218.807 232.058 218.807Z" fill="black"/>
<path d="M1161.43 156V142.96H1165.03C1166.29 142.96 1167.39 143.187 1168.33 143.64C1169.27 144.093 1170.01 144.8 1170.53 145.76C1171.05 146.707 1171.31 147.927 1171.31 149.42C1171.31 150.913 1171.05 152.147 1170.53 153.12C1170.02 154.093 1169.31 154.82 1168.39 155.3C1167.47 155.767 1166.41 156 1165.21 156H1161.43ZM1164.39 153.62H1164.87C1165.56 153.62 1166.16 153.487 1166.67 153.22C1167.17 152.953 1167.57 152.513 1167.85 151.9C1168.14 151.287 1168.29 150.46 1168.29 149.42C1168.29 148.38 1168.14 147.567 1167.85 146.98C1167.57 146.38 1167.17 145.96 1166.67 145.72C1166.16 145.467 1165.56 145.34 1164.87 145.34H1164.39V153.62ZM1172.2 156L1176.26 142.96H1179.78L1183.84 156H1180.72L1179.04 149.4C1178.88 148.747 1178.71 148.053 1178.52 147.32C1178.33 146.587 1178.16 145.88 1178 145.2H1177.92C1177.76 145.88 1177.59 146.587 1177.42 147.32C1177.25 148.053 1177.07 148.747 1176.9 149.4L1175.2 156H1172.2ZM1174.88 152.9V150.6H1181.12V152.9H1174.88ZM1188.53 156V145.44H1184.63V142.96H1195.39V145.44H1191.49V156H1188.53ZM1197.84 156V142.96H1206.48V145.44H1200.8V148.06H1205.62V150.52H1200.8V153.52H1206.68V156H1197.84ZM1214 149.78C1213.32 149.78 1212.76 149.553 1212.32 149.1C1211.89 148.647 1211.68 148.093 1211.68 147.44C1211.68 146.787 1211.89 146.233 1212.32 145.78C1212.76 145.313 1213.32 145.08 1214 145.08C1214.69 145.08 1215.25 145.313 1215.68 145.78C1216.1 146.233 1216.32 146.787 1216.32 147.44C1216.32 148.093 1216.1 148.647 1215.68 149.1C1215.25 149.553 1214.69 149.78 1214 149.78ZM1214 156.24C1213.32 156.24 1212.76 156.013 1212.32 155.56C1211.89 155.107 1211.68 154.553 1211.68 153.9C1211.68 153.247 1211.89 152.693 1212.32 152.24C1212.76 151.773 1213.32 151.54 1214 151.54C1214.69 151.54 1215.25 151.773 1215.68 152.24C1216.1 152.693 1216.32 153.247 1216.32 153.9C1216.32 154.553 1216.1 155.107 1215.68 155.56C1215.25 156.013 1214.69 156.24 1214 156.24ZM1293.42 159.2L1300 141.8H1302.46L1295.88 159.2H1293.42ZM1389.36 159.2L1395.94 141.8H1398.4L1391.82 159.2H1389.36Z" fill="black"/>
</svg>
