<svg width="1620" height="2160" viewBox="0 0 1620 2160" fill="none" xmlns="http://www.w3.org/2000/svg">
<rect width="1620" height="2160" fill="white"/>
<line x1="129" y1="195.439" x2="1491" y2="195.439" stroke="black" stroke-width="3"/>
<line x1="129" y1="272.358" x2="1491" y2="272.358" stroke="black"/>
<line x1="129" y1="319.808" x2="1491" y2="319.808" stroke="black"/>
<line x1="129" y1="367.258" x2="1491" y2="367.258" stroke="black"/>
<path d="M130.5 230V216.96H135.12C136.067 216.96 136.92 217.093 137.68 217.36C138.453 217.613 139.067 218.047 139.52 218.66C139.987 219.273 140.22 220.107 140.22 221.16C140.22 222.173 139.987 223.007 139.52 223.66C139.053 224.313 138.433 224.8 137.66 225.12C136.887 225.427 136.04 225.58 135.12 225.58H133.44V230H130.5ZM133.44 223.24H134.94C135.753 223.24 136.353 223.06 136.74 222.7C137.14 222.34 137.34 221.827 137.34 221.16C137.34 220.467 137.133 219.987 136.72 219.72C136.32 219.44 135.727 219.3 134.94 219.3H133.44V223.24ZM142.392 230V216.96H147.012C147.932 216.96 148.772 217.087 149.532 217.34C150.292 217.58 150.899 218 151.352 218.6C151.819 219.187 152.052 219.993 152.052 221.02C152.052 222.02 151.819 222.833 151.352 223.46C150.899 224.087 150.292 224.553 149.532 224.86C148.772 225.153 147.932 225.3 147.012 225.3H145.332V230H142.392ZM145.332 222.96H146.772C147.546 222.96 148.132 222.8 148.532 222.48C148.946 222.147 149.152 221.66 149.152 221.02C149.152 220.38 148.946 219.933 148.532 219.68C148.132 219.427 147.546 219.3 146.772 219.3H145.332V222.96ZM146.472 224.54L148.512 222.64L152.672 230H149.372L146.472 224.54ZM158.984 230.24C157.944 230.24 157.031 229.98 156.244 229.46C155.458 228.94 154.844 228.18 154.404 227.18C153.964 226.167 153.744 224.913 153.744 223.42C153.744 221.967 153.964 220.747 154.404 219.76C154.844 218.76 155.458 218.007 156.244 217.5C157.031 216.98 157.944 216.72 158.984 216.72C160.024 216.72 160.938 216.98 161.724 217.5C162.511 218.007 163.124 218.76 163.564 219.76C164.004 220.747 164.224 221.967 164.224 223.42C164.224 224.913 164.004 226.167 163.564 227.18C163.124 228.18 162.511 228.94 161.724 229.46C160.938 229.98 160.024 230.24 158.984 230.24ZM158.984 227.7C159.438 227.7 159.831 227.54 160.164 227.22C160.498 226.887 160.751 226.407 160.924 225.78C161.111 225.14 161.204 224.353 161.204 223.42C161.204 222.513 161.111 221.753 160.924 221.14C160.751 220.527 160.498 220.06 160.164 219.74C159.831 219.42 159.438 219.26 158.984 219.26C158.531 219.26 158.138 219.42 157.804 219.74C157.471 220.06 157.211 220.527 157.024 221.14C156.851 221.753 156.764 222.513 156.764 223.42C156.764 224.353 156.851 225.14 157.024 225.78C157.211 226.407 157.471 226.887 157.804 227.22C158.138 227.54 158.531 227.7 158.984 227.7ZM166.457 230V216.96H170.837C171.743 216.96 172.557 217.06 173.277 217.26C173.997 217.447 174.563 217.773 174.977 218.24C175.403 218.707 175.617 219.36 175.617 220.2C175.617 220.787 175.437 221.353 175.077 221.9C174.717 222.447 174.15 222.82 173.377 223.02V223.1C174.31 223.26 175.017 223.593 175.497 224.1C175.977 224.593 176.217 225.28 176.217 226.16C176.217 227.04 175.997 227.767 175.557 228.34C175.117 228.9 174.517 229.32 173.757 229.6C173.01 229.867 172.163 230 171.217 230H166.457ZM169.397 222.2H170.697C171.417 222.2 171.937 222.06 172.257 221.78C172.577 221.487 172.737 221.093 172.737 220.6C172.737 220.12 172.57 219.78 172.237 219.58C171.917 219.367 171.41 219.26 170.717 219.26H169.397V222.2ZM169.397 227.7H170.977C171.777 227.7 172.37 227.553 172.757 227.26C173.143 226.967 173.337 226.527 173.337 225.94C173.337 225.367 173.143 224.953 172.757 224.7C172.37 224.447 171.777 224.32 170.977 224.32H169.397V227.7ZM179.109 230V216.96H182.049V227.52H187.849V230H179.109ZM190.801 230V216.96H199.441V219.44H193.761V222.06H198.581V224.52H193.761V227.52H199.641V230H190.801ZM202.113 230V216.96H205.193L206.473 221.58L206.913 223.38H206.993L207.433 221.58L208.713 216.96H211.793V230H209.313V225.96C209.313 225.6 209.326 225.153 209.353 224.62C209.38 224.073 209.413 223.507 209.453 222.92C209.493 222.333 209.533 221.773 209.573 221.24C209.626 220.707 209.666 220.267 209.693 219.92H209.633L208.633 223.4L207.633 226.54H206.193L205.173 223.4L204.233 219.92H204.173C204.2 220.267 204.233 220.707 204.273 221.24C204.326 221.773 204.373 222.333 204.413 222.92C204.453 223.507 204.486 224.073 204.513 224.62C204.54 225.153 204.553 225.6 204.553 225.96V230H202.113ZM230.898 230.24C230.018 230.24 229.144 230.08 228.278 229.76C227.424 229.44 226.644 228.973 225.938 228.36L227.638 226.34C228.131 226.74 228.671 227.067 229.258 227.32C229.858 227.573 230.471 227.7 231.098 227.7C231.724 227.7 232.184 227.593 232.478 227.38C232.784 227.167 232.938 226.893 232.938 226.56C232.938 226.253 232.858 226.013 232.698 225.84C232.538 225.653 232.304 225.493 231.998 225.36C231.691 225.213 231.331 225.053 230.918 224.88L229.238 224.16C228.758 223.973 228.304 223.727 227.877 223.42C227.451 223.1 227.104 222.713 226.838 222.26C226.584 221.793 226.458 221.24 226.458 220.6C226.458 219.88 226.658 219.233 227.058 218.66C227.471 218.073 228.031 217.607 228.738 217.26C229.458 216.9 230.291 216.72 231.238 216.72C232.024 216.72 232.798 216.867 233.558 217.16C234.318 217.453 234.991 217.88 235.578 218.44L234.078 220.3C233.624 219.967 233.171 219.713 232.718 219.54C232.264 219.353 231.718 219.26 231.078 219.26C230.598 219.26 230.204 219.36 229.898 219.56C229.591 219.76 229.438 220.053 229.438 220.44C229.438 220.693 229.531 220.907 229.718 221.08C229.904 221.253 230.158 221.407 230.478 221.54C230.798 221.673 231.164 221.82 231.578 221.98L233.158 222.66C233.744 222.873 234.244 223.14 234.658 223.46C235.071 223.767 235.391 224.147 235.618 224.6C235.844 225.053 235.957 225.587 235.957 226.2C235.957 226.92 235.758 227.587 235.358 228.2C234.971 228.813 234.398 229.307 233.638 229.68C232.891 230.053 231.978 230.24 230.898 230.24ZM241.45 230V219.44H237.55V216.96H248.31V219.44H244.41V230H241.45ZM249.102 230L253.162 216.96H256.682L260.742 230H257.622L255.942 223.4C255.782 222.747 255.609 222.053 255.422 221.32C255.235 220.587 255.062 219.88 254.902 219.2H254.822C254.662 219.88 254.495 220.587 254.322 221.32C254.149 222.053 253.975 222.747 253.802 223.4L252.102 230H249.102ZM251.782 226.9V224.6H258.022V226.9H251.782ZM265.434 230V219.44H261.534V216.96H272.294V219.44H268.394V230H265.434ZM274.746 230V216.96H283.386V219.44H277.706V222.06H282.526V224.52H277.706V227.52H283.586V230H274.746ZM286.058 230V216.96H289.138L290.418 221.58L290.858 223.38H290.938L291.378 221.58L292.658 216.96H295.738V230H293.258V225.96C293.258 225.6 293.272 225.153 293.298 224.62C293.325 224.073 293.358 223.507 293.398 222.92C293.438 222.333 293.478 221.773 293.518 221.24C293.572 220.707 293.612 220.267 293.638 219.92H293.578L292.578 223.4L291.578 226.54H290.138L289.118 223.4L288.178 219.92H288.118C288.145 220.267 288.178 220.707 288.218 221.24C288.272 221.773 288.318 222.333 288.358 222.92C288.398 223.507 288.432 224.073 288.458 224.62C288.485 225.153 288.498 225.6 288.498 225.96V230H286.058ZM298.731 230V216.96H307.371V219.44H301.691V222.06H306.511V224.52H301.691V227.52H307.571V230H298.731ZM310.203 230V216.96H313.223L315.963 223.44L317.083 226.32H317.163C317.096 225.627 317.009 224.853 316.903 224C316.796 223.147 316.743 222.34 316.743 221.58V216.96H319.563V230H316.543L313.803 223.5L312.683 220.66H312.603C312.669 221.367 312.756 222.14 312.863 222.98C312.969 223.807 313.023 224.607 313.023 225.38V230H310.203ZM325.395 230V219.44H321.495V216.96H332.255V219.44H328.355V230H325.395Z" fill="black"/>
<line x1="129" y1="1788.5" x2="1491" y2="1788.5" stroke="black" stroke-width="3"/>
<line x1="129" y1="1865.42" x2="1491" y2="1865.42" stroke="black"/>
<line x1="129" y1="1912.87" x2="1491" y2="1912.87" stroke="black"/>
<line x1="129" y1="1960.32" x2="1491" y2="1960.32" stroke="black"/>
<line x1="129" y1="2007.77" x2="1491" y2="2007.77" stroke="black"/>
<path d="M130.4 1823V1809.96H135.02C135.94 1809.96 136.78 1810.09 137.54 1810.34C138.3 1810.58 138.907 1811 139.36 1811.6C139.827 1812.19 140.06 1812.99 140.06 1814.02C140.06 1815.02 139.827 1815.83 139.36 1816.46C138.907 1817.09 138.3 1817.55 137.54 1817.86C136.78 1818.15 135.94 1818.3 135.02 1818.3H133.34V1823H130.4ZM133.34 1815.96H134.78C135.553 1815.96 136.14 1815.8 136.54 1815.48C136.953 1815.15 137.16 1814.66 137.16 1814.02C137.16 1813.38 136.953 1812.93 136.54 1812.68C136.14 1812.43 135.553 1812.3 134.78 1812.3H133.34V1815.96ZM134.48 1817.54L136.52 1815.64L140.68 1823H137.38L134.48 1817.54ZM146.992 1823.24C145.952 1823.24 145.039 1822.98 144.252 1822.46C143.466 1821.94 142.852 1821.18 142.412 1820.18C141.972 1819.17 141.752 1817.91 141.752 1816.42C141.752 1814.97 141.972 1813.75 142.412 1812.76C142.852 1811.76 143.466 1811.01 144.252 1810.5C145.039 1809.98 145.952 1809.72 146.992 1809.72C148.032 1809.72 148.946 1809.98 149.732 1810.5C150.519 1811.01 151.132 1811.76 151.572 1812.76C152.012 1813.75 152.232 1814.97 152.232 1816.42C152.232 1817.91 152.012 1819.17 151.572 1820.18C151.132 1821.18 150.519 1821.94 149.732 1822.46C148.946 1822.98 148.032 1823.24 146.992 1823.24ZM146.992 1820.7C147.446 1820.7 147.839 1820.54 148.172 1820.22C148.506 1819.89 148.759 1819.41 148.932 1818.78C149.119 1818.14 149.212 1817.35 149.212 1816.42C149.212 1815.51 149.119 1814.75 148.932 1814.14C148.759 1813.53 148.506 1813.06 148.172 1812.74C147.839 1812.42 147.446 1812.26 146.992 1812.26C146.539 1812.26 146.146 1812.42 145.812 1812.74C145.479 1813.06 145.219 1813.53 145.032 1814.14C144.859 1814.75 144.772 1815.51 144.772 1816.42C144.772 1817.35 144.859 1818.14 145.032 1818.78C145.219 1819.41 145.479 1819.89 145.812 1820.22C146.146 1820.54 146.539 1820.7 146.992 1820.7ZM158.984 1823.24C157.944 1823.24 157.031 1822.98 156.244 1822.46C155.458 1821.94 154.844 1821.18 154.404 1820.18C153.964 1819.17 153.744 1817.91 153.744 1816.42C153.744 1814.97 153.964 1813.75 154.404 1812.76C154.844 1811.76 155.458 1811.01 156.244 1810.5C157.031 1809.98 157.944 1809.72 158.984 1809.72C160.024 1809.72 160.938 1809.98 161.724 1810.5C162.511 1811.01 163.124 1811.76 163.564 1812.76C164.004 1813.75 164.224 1814.97 164.224 1816.42C164.224 1817.91 164.004 1819.17 163.564 1820.18C163.124 1821.18 162.511 1821.94 161.724 1822.46C160.938 1822.98 160.024 1823.24 158.984 1823.24ZM158.984 1820.7C159.438 1820.7 159.831 1820.54 160.164 1820.22C160.498 1819.89 160.751 1819.41 160.924 1818.78C161.111 1818.14 161.204 1817.35 161.204 1816.42C161.204 1815.51 161.111 1814.75 160.924 1814.14C160.751 1813.53 160.498 1813.06 160.164 1812.74C159.831 1812.42 159.438 1812.26 158.984 1812.26C158.531 1812.26 158.138 1812.42 157.804 1812.74C157.471 1813.06 157.211 1813.53 157.024 1814.14C156.851 1814.75 156.764 1815.51 156.764 1816.42C156.764 1817.35 156.851 1818.14 157.024 1818.78C157.211 1819.41 157.471 1819.89 157.804 1820.22C158.138 1820.54 158.531 1820.7 158.984 1820.7ZM169.497 1823V1812.44H165.597V1809.96H176.357V1812.44H172.457V1823H169.497ZM196.081 1823.24C195.268 1823.24 194.494 1823.1 193.761 1822.82C193.041 1822.54 192.401 1822.12 191.841 1821.56C191.281 1820.99 190.841 1820.29 190.521 1819.46C190.201 1818.62 190.041 1817.65 190.041 1816.56C190.041 1815.12 190.314 1813.89 190.861 1812.88C191.421 1811.85 192.168 1811.07 193.101 1810.54C194.048 1809.99 195.101 1809.72 196.261 1809.72C197.088 1809.72 197.834 1809.89 198.501 1810.24C199.168 1810.57 199.721 1810.95 200.161 1811.38L198.541 1813.2C198.234 1812.91 197.894 1812.68 197.521 1812.52C197.161 1812.35 196.741 1812.26 196.261 1812.26C195.648 1812.26 195.101 1812.43 194.621 1812.78C194.141 1813.11 193.761 1813.59 193.481 1814.22C193.201 1814.85 193.061 1815.59 193.061 1816.46C193.061 1817.35 193.201 1818.12 193.481 1818.76C193.761 1819.39 194.148 1819.87 194.641 1820.2C195.148 1820.53 195.728 1820.7 196.381 1820.7C196.861 1820.7 197.294 1820.59 197.681 1820.38C198.068 1820.17 198.421 1819.89 198.741 1819.54L200.361 1821.32C199.828 1821.95 199.201 1822.43 198.481 1822.76C197.761 1823.08 196.961 1823.24 196.081 1823.24ZM201.133 1823L205.193 1809.96H208.713L212.773 1823H209.653L207.973 1816.4C207.813 1815.75 207.64 1815.05 207.453 1814.32C207.266 1813.59 207.093 1812.88 206.933 1812.2H206.853C206.693 1812.88 206.526 1813.59 206.353 1814.32C206.18 1815.05 206.006 1815.75 205.833 1816.4L204.133 1823H201.133ZM203.813 1819.9V1817.6H210.053V1819.9H203.813ZM218.985 1823.24C218.185 1823.24 217.485 1823.13 216.885 1822.9C216.299 1822.66 215.805 1822.32 215.405 1821.88C215.019 1821.43 214.725 1820.88 214.525 1820.24C214.325 1819.59 214.225 1818.83 214.225 1817.98V1809.96H217.165V1818.28C217.165 1818.8 217.232 1819.24 217.365 1819.6C217.499 1819.96 217.699 1820.23 217.965 1820.42C218.232 1820.61 218.572 1820.7 218.985 1820.7C219.399 1820.7 219.739 1820.61 220.005 1820.42C220.285 1820.23 220.492 1819.96 220.625 1819.6C220.759 1819.24 220.825 1818.8 220.825 1818.28V1809.96H223.665V1817.98C223.665 1818.83 223.572 1819.59 223.385 1820.24C223.199 1820.88 222.905 1821.43 222.505 1821.88C222.119 1822.32 221.632 1822.66 221.045 1822.9C220.459 1823.13 219.772 1823.24 218.985 1823.24ZM230.898 1823.24C230.018 1823.24 229.144 1823.08 228.278 1822.76C227.424 1822.44 226.644 1821.97 225.938 1821.36L227.638 1819.34C228.131 1819.74 228.671 1820.07 229.258 1820.32C229.858 1820.57 230.471 1820.7 231.098 1820.7C231.724 1820.7 232.184 1820.59 232.478 1820.38C232.784 1820.17 232.938 1819.89 232.938 1819.56C232.938 1819.25 232.858 1819.01 232.698 1818.84C232.538 1818.65 232.304 1818.49 231.998 1818.36C231.691 1818.21 231.331 1818.05 230.918 1817.88L229.238 1817.16C228.758 1816.97 228.304 1816.73 227.877 1816.42C227.451 1816.1 227.104 1815.71 226.838 1815.26C226.584 1814.79 226.458 1814.24 226.458 1813.6C226.458 1812.88 226.658 1812.23 227.058 1811.66C227.471 1811.07 228.031 1810.61 228.738 1810.26C229.458 1809.9 230.291 1809.72 231.238 1809.72C232.024 1809.72 232.798 1809.87 233.558 1810.16C234.318 1810.45 234.991 1810.88 235.578 1811.44L234.078 1813.3C233.624 1812.97 233.171 1812.71 232.718 1812.54C232.264 1812.35 231.718 1812.26 231.078 1812.26C230.598 1812.26 230.204 1812.36 229.898 1812.56C229.591 1812.76 229.438 1813.05 229.438 1813.44C229.438 1813.69 229.531 1813.91 229.718 1814.08C229.904 1814.25 230.158 1814.41 230.478 1814.54C230.798 1814.67 231.164 1814.82 231.578 1814.98L233.158 1815.66C233.744 1815.87 234.244 1816.14 234.658 1816.46C235.071 1816.77 235.391 1817.15 235.618 1817.6C235.844 1818.05 235.957 1818.59 235.957 1819.2C235.957 1819.92 235.758 1820.59 235.358 1821.2C234.971 1821.81 234.398 1822.31 233.638 1822.68C232.891 1823.05 231.978 1823.24 230.898 1823.24ZM238.77 1823V1809.96H247.41V1812.44H241.73V1815.06H246.55V1817.52H241.73V1820.52H247.61V1823H238.77Z" fill="black"/>
<line x1="129" y1="1488.5" x2="1491" y2="1488.5" stroke="black" stroke-width="3"/>
<line x1="129" y1="1565.42" x2="1491" y2="1565.42" stroke="black"/>
<line x1="129" y1="1612.87" x2="1491" y2="1612.87" stroke="black"/>
<line x1="129" y1="1660.32" x2="1491" y2="1660.32" stroke="black"/>
<line x1="129" y1="1707.77" x2="1491" y2="1707.77" stroke="black"/>
<path d="M130.82 1523L129.08 1509.96H132.14L132.54 1516.9C132.54 1517.27 132.547 1517.64 132.56 1518C132.573 1518.35 132.58 1518.7 132.58 1519.06C132.593 1519.41 132.6 1519.78 132.6 1520.18H132.68C132.733 1519.78 132.793 1519.41 132.86 1519.06C132.94 1518.7 133.02 1518.34 133.1 1517.98C133.18 1517.62 133.253 1517.26 133.32 1516.9L134.2 1513.26H136.08L136.9 1516.9C136.98 1517.26 137.053 1517.61 137.12 1517.96C137.187 1518.31 137.26 1518.67 137.34 1519.04C137.42 1519.4 137.487 1519.78 137.54 1520.18H137.62C137.633 1519.78 137.64 1519.4 137.64 1519.04C137.653 1518.67 137.66 1518.31 137.66 1517.96C137.673 1517.61 137.687 1517.26 137.7 1516.9L138.06 1509.96H140.92L139.32 1523H136.16L135.4 1518.96C135.32 1518.55 135.247 1518.13 135.18 1517.7C135.113 1517.27 135.067 1516.87 135.04 1516.48H134.98C134.94 1516.87 134.893 1517.27 134.84 1517.7C134.787 1518.13 134.72 1518.55 134.64 1518.96L133.88 1523H130.82ZM142.272 1523V1509.96H145.212V1515H148.772V1509.96H151.712V1523H148.772V1517.56H145.212V1523H142.272ZM157.504 1523V1518.6L153.304 1509.96H156.464L157.784 1513.1C157.984 1513.59 158.178 1514.09 158.364 1514.58C158.564 1515.06 158.764 1515.56 158.964 1516.08H159.044C159.258 1515.56 159.464 1515.06 159.664 1514.58C159.878 1514.09 160.078 1513.59 160.264 1513.1L161.584 1509.96H164.664L160.464 1518.6V1523H157.504ZM169.337 1517.9C169.243 1517.37 169.277 1516.9 169.437 1516.5C169.597 1516.1 169.817 1515.75 170.097 1515.44C170.39 1515.13 170.69 1514.85 170.997 1514.6C171.317 1514.33 171.577 1514.07 171.777 1513.82C171.99 1513.57 172.097 1513.29 172.097 1513C172.097 1512.59 171.957 1512.27 171.677 1512.06C171.397 1511.85 171.043 1511.74 170.617 1511.74C170.203 1511.74 169.837 1511.83 169.517 1512C169.197 1512.16 168.883 1512.38 168.577 1512.66L166.937 1511.16C167.417 1510.63 167.983 1510.19 168.637 1509.86C169.303 1509.53 170.03 1509.36 170.817 1509.36C171.59 1509.36 172.283 1509.48 172.897 1509.72C173.51 1509.96 173.997 1510.32 174.357 1510.8C174.73 1511.28 174.917 1511.89 174.917 1512.62C174.917 1513.15 174.81 1513.61 174.597 1513.98C174.383 1514.34 174.117 1514.67 173.797 1514.96C173.477 1515.25 173.163 1515.53 172.857 1515.8C172.55 1516.07 172.297 1516.37 172.097 1516.7C171.91 1517.03 171.843 1517.43 171.897 1517.9H169.337ZM170.697 1523.24C170.123 1523.24 169.643 1523.05 169.257 1522.68C168.883 1522.29 168.697 1521.8 168.697 1521.2C168.697 1520.61 168.883 1520.13 169.257 1519.76C169.643 1519.39 170.123 1519.2 170.697 1519.2C171.27 1519.2 171.743 1519.39 172.117 1519.76C172.503 1520.13 172.697 1520.61 172.697 1521.2C172.697 1521.8 172.503 1522.29 172.117 1522.68C171.743 1523.05 171.27 1523.24 170.697 1523.24Z" fill="black"/>
<line x1="129" y1="1228.5" x2="1491" y2="1228.5" stroke="black" stroke-width="3"/>
<line x1="129" y1="1305.42" x2="1491" y2="1305.42" stroke="black"/>
<line x1="129" y1="1352.87" x2="1491" y2="1352.87" stroke="black"/>
<line x1="129" y1="1400.32" x2="1491" y2="1400.32" stroke="black"/>
<line x1="129" y1="1447.77" x2="1491" y2="1447.77" stroke="black"/>
<path d="M130.82 1263L129.08 1249.96H132.14L132.54 1256.9C132.54 1257.27 132.547 1257.64 132.56 1258C132.573 1258.35 132.58 1258.7 132.58 1259.06C132.593 1259.41 132.6 1259.78 132.6 1260.18H132.68C132.733 1259.78 132.793 1259.41 132.86 1259.06C132.94 1258.7 133.02 1258.34 133.1 1257.98C133.18 1257.62 133.253 1257.26 133.32 1256.9L134.2 1253.26H136.08L136.9 1256.9C136.98 1257.26 137.053 1257.61 137.12 1257.96C137.187 1258.31 137.26 1258.67 137.34 1259.04C137.42 1259.4 137.487 1259.78 137.54 1260.18H137.62C137.633 1259.78 137.64 1259.4 137.64 1259.04C137.653 1258.67 137.66 1258.31 137.66 1257.96C137.673 1257.61 137.687 1257.26 137.7 1256.9L138.06 1249.96H140.92L139.32 1263H136.16L135.4 1258.96C135.32 1258.55 135.247 1258.13 135.18 1257.7C135.113 1257.27 135.067 1256.87 135.04 1256.48H134.98C134.94 1256.87 134.893 1257.27 134.84 1257.7C134.787 1258.13 134.72 1258.55 134.64 1258.96L133.88 1263H130.82ZM142.272 1263V1249.96H145.212V1255H148.772V1249.96H151.712V1263H148.772V1257.56H145.212V1263H142.272ZM157.504 1263V1258.6L153.304 1249.96H156.464L157.784 1253.1C157.984 1253.59 158.178 1254.09 158.364 1254.58C158.564 1255.06 158.764 1255.56 158.964 1256.08H159.044C159.258 1255.56 159.464 1255.06 159.664 1254.58C159.878 1254.09 160.078 1253.59 160.264 1253.1L161.584 1249.96H164.664L160.464 1258.6V1263H157.504ZM169.337 1257.9C169.243 1257.37 169.277 1256.9 169.437 1256.5C169.597 1256.1 169.817 1255.75 170.097 1255.44C170.39 1255.13 170.69 1254.85 170.997 1254.6C171.317 1254.33 171.577 1254.07 171.777 1253.82C171.99 1253.57 172.097 1253.29 172.097 1253C172.097 1252.59 171.957 1252.27 171.677 1252.06C171.397 1251.85 171.043 1251.74 170.617 1251.74C170.203 1251.74 169.837 1251.83 169.517 1252C169.197 1252.16 168.883 1252.38 168.577 1252.66L166.937 1251.16C167.417 1250.63 167.983 1250.19 168.637 1249.86C169.303 1249.53 170.03 1249.36 170.817 1249.36C171.59 1249.36 172.283 1249.48 172.897 1249.72C173.51 1249.96 173.997 1250.32 174.357 1250.8C174.73 1251.28 174.917 1251.89 174.917 1252.62C174.917 1253.15 174.81 1253.61 174.597 1253.98C174.383 1254.34 174.117 1254.67 173.797 1254.96C173.477 1255.25 173.163 1255.53 172.857 1255.8C172.55 1256.07 172.297 1256.37 172.097 1256.7C171.91 1257.03 171.843 1257.43 171.897 1257.9H169.337ZM170.697 1263.24C170.123 1263.24 169.643 1263.05 169.257 1262.68C168.883 1262.29 168.697 1261.8 168.697 1261.2C168.697 1260.61 168.883 1260.13 169.257 1259.76C169.643 1259.39 170.123 1259.2 170.697 1259.2C171.27 1259.2 171.743 1259.39 172.117 1259.76C172.503 1260.13 172.697 1260.61 172.697 1261.2C172.697 1261.8 172.503 1262.29 172.117 1262.68C171.743 1263.05 171.27 1263.24 170.697 1263.24Z" fill="black"/>
<line x1="129" y1="968.5" x2="1491" y2="968.5" stroke="black" stroke-width="3"/>
<line x1="129" y1="1045.42" x2="1491" y2="1045.42" stroke="black"/>
<line x1="129" y1="1092.87" x2="1491" y2="1092.87" stroke="black"/>
<line x1="129" y1="1140.32" x2="1491" y2="1140.32" stroke="black"/>
<line x1="129" y1="1187.77" x2="1491" y2="1187.77" stroke="black"/>
<path d="M130.82 1003L129.08 989.96H132.14L132.54 996.9C132.54 997.273 132.547 997.64 132.56 998C132.573 998.347 132.58 998.7 132.58 999.06C132.593 999.407 132.6 999.78 132.6 1000.18H132.68C132.733 999.78 132.793 999.407 132.86 999.06C132.94 998.7 133.02 998.34 133.1 997.98C133.18 997.62 133.253 997.26 133.32 996.9L134.2 993.26H136.08L136.9 996.9C136.98 997.26 137.053 997.613 137.12 997.96C137.187 998.307 137.26 998.667 137.34 999.04C137.42 999.4 137.487 999.78 137.54 1000.18H137.62C137.633 999.78 137.64 999.4 137.64 999.04C137.653 998.667 137.66 998.307 137.66 997.96C137.673 997.613 137.687 997.26 137.7 996.9L138.06 989.96H140.92L139.32 1003H136.16L135.4 998.96C135.32 998.547 135.247 998.127 135.18 997.7C135.113 997.273 135.067 996.867 135.04 996.48H134.98C134.94 996.867 134.893 997.273 134.84 997.7C134.787 998.127 134.72 998.547 134.64 998.96L133.88 1003H130.82ZM142.272 1003V989.96H145.212V995H148.772V989.96H151.712V1003H148.772V997.56H145.212V1003H142.272ZM157.504 1003V998.6L153.304 989.96H156.464L157.784 993.1C157.984 993.593 158.178 994.087 158.364 994.58C158.564 995.06 158.764 995.56 158.964 996.08H159.044C159.258 995.56 159.464 995.06 159.664 994.58C159.878 994.087 160.078 993.593 160.264 993.1L161.584 989.96H164.664L160.464 998.6V1003H157.504ZM169.337 997.9C169.243 997.367 169.277 996.9 169.437 996.5C169.597 996.1 169.817 995.747 170.097 995.44C170.39 995.133 170.69 994.853 170.997 994.6C171.317 994.333 171.577 994.073 171.777 993.82C171.99 993.567 172.097 993.293 172.097 993C172.097 992.587 171.957 992.273 171.677 992.06C171.397 991.847 171.043 991.74 170.617 991.74C170.203 991.74 169.837 991.827 169.517 992C169.197 992.16 168.883 992.38 168.577 992.66L166.937 991.16C167.417 990.627 167.983 990.193 168.637 989.86C169.303 989.527 170.03 989.36 170.817 989.36C171.59 989.36 172.283 989.48 172.897 989.72C173.51 989.96 173.997 990.32 174.357 990.8C174.73 991.28 174.917 991.887 174.917 992.62C174.917 993.153 174.81 993.607 174.597 993.98C174.383 994.34 174.117 994.667 173.797 994.96C173.477 995.253 173.163 995.533 172.857 995.8C172.55 996.067 172.297 996.367 172.097 996.7C171.91 997.033 171.843 997.433 171.897 997.9H169.337ZM170.697 1003.24C170.123 1003.24 169.643 1003.05 169.257 1002.68C168.883 1002.29 168.697 1001.8 168.697 1001.2C168.697 1000.61 168.883 1000.13 169.257 999.76C169.643 999.387 170.123 999.2 170.697 999.2C171.27 999.2 171.743 999.387 172.117 999.76C172.503 1000.13 172.697 1000.61 172.697 1001.2C172.697 1001.8 172.503 1002.29 172.117 1002.68C171.743 1003.05 171.27 1003.24 170.697 1003.24Z" fill="black"/>
<line x1="129" y1="708.5" x2="1491" y2="708.5" stroke="black" stroke-width="3"/>
<line x1="129" y1="785.419" x2="1491" y2="785.419" stroke="black"/>
<line x1="129" y1="832.869" x2="1491" y2="832.869" stroke="black"/>
<line x1="129" y1="880.318" x2="1491" y2="880.318" stroke="black"/>
<line x1="129" y1="927.768" x2="1491" y2="927.768" stroke="black"/>
<path d="M130.82 743L129.08 729.96H132.14L132.54 736.9C132.54 737.273 132.547 737.64 132.56 738C132.573 738.347 132.58 738.7 132.58 739.06C132.593 739.407 132.6 739.78 132.6 740.18H132.68C132.733 739.78 132.793 739.407 132.86 739.06C132.94 738.7 133.02 738.34 133.1 737.98C133.18 737.62 133.253 737.26 133.32 736.9L134.2 733.26H136.08L136.9 736.9C136.98 737.26 137.053 737.613 137.12 737.96C137.187 738.307 137.26 738.667 137.34 739.04C137.42 739.4 137.487 739.78 137.54 740.18H137.62C137.633 739.78 137.64 739.4 137.64 739.04C137.653 738.667 137.66 738.307 137.66 737.96C137.673 737.613 137.687 737.26 137.7 736.9L138.06 729.96H140.92L139.32 743H136.16L135.4 738.96C135.32 738.547 135.247 738.127 135.18 737.7C135.113 737.273 135.067 736.867 135.04 736.48H134.98C134.94 736.867 134.893 737.273 134.84 737.7C134.787 738.127 134.72 738.547 134.64 738.96L133.88 743H130.82ZM142.272 743V729.96H145.212V735H148.772V729.96H151.712V743H148.772V737.56H145.212V743H142.272ZM157.504 743V738.6L153.304 729.96H156.464L157.784 733.1C157.984 733.593 158.178 734.087 158.364 734.58C158.564 735.06 158.764 735.56 158.964 736.08H159.044C159.258 735.56 159.464 735.06 159.664 734.58C159.878 734.087 160.078 733.593 160.264 733.1L161.584 729.96H164.664L160.464 738.6V743H157.504ZM169.337 737.9C169.243 737.367 169.277 736.9 169.437 736.5C169.597 736.1 169.817 735.747 170.097 735.44C170.39 735.133 170.69 734.853 170.997 734.6C171.317 734.333 171.577 734.073 171.777 733.82C171.99 733.567 172.097 733.293 172.097 733C172.097 732.587 171.957 732.273 171.677 732.06C171.397 731.847 171.043 731.74 170.617 731.74C170.203 731.74 169.837 731.827 169.517 732C169.197 732.16 168.883 732.38 168.577 732.66L166.937 731.16C167.417 730.627 167.983 730.193 168.637 729.86C169.303 729.527 170.03 729.36 170.817 729.36C171.59 729.36 172.283 729.48 172.897 729.72C173.51 729.96 173.997 730.32 174.357 730.8C174.73 731.28 174.917 731.887 174.917 732.62C174.917 733.153 174.81 733.607 174.597 733.98C174.383 734.34 174.117 734.667 173.797 734.96C173.477 735.253 173.163 735.533 172.857 735.8C172.55 736.067 172.297 736.367 172.097 736.7C171.91 737.033 171.843 737.433 171.897 737.9H169.337ZM170.697 743.24C170.123 743.24 169.643 743.053 169.257 742.68C168.883 742.293 168.697 741.8 168.697 741.2C168.697 740.613 168.883 740.133 169.257 739.76C169.643 739.387 170.123 739.2 170.697 739.2C171.27 739.2 171.743 739.387 172.117 739.76C172.503 740.133 172.697 740.613 172.697 741.2C172.697 741.8 172.503 742.293 172.117 742.68C171.743 743.053 171.27 743.24 170.697 743.24Z" fill="black"/>
<line x1="129" y1="448.5" x2="1491" y2="448.5" stroke="black" stroke-width="3"/>
<line x1="129" y1="525.419" x2="1491" y2="525.419" stroke="black"/>
<line x1="129" y1="572.869" x2="1491" y2="572.869" stroke="black"/>
<line x1="129" y1="620.318" x2="1491" y2="620.318" stroke="black"/>
<line x1="129" y1="667.768" x2="1491" y2="667.768" stroke="black"/>
<path d="M130.82 483L129.08 469.96H132.14L132.54 476.9C132.54 477.273 132.547 477.64 132.56 478C132.573 478.347 132.58 478.7 132.58 479.06C132.593 479.407 132.6 479.78 132.6 480.18H132.68C132.733 479.78 132.793 479.407 132.86 479.06C132.94 478.7 133.02 478.34 133.1 477.98C133.18 477.62 133.253 477.26 133.32 476.9L134.2 473.26H136.08L136.9 476.9C136.98 477.26 137.053 477.613 137.12 477.96C137.187 478.307 137.26 478.667 137.34 479.04C137.42 479.4 137.487 479.78 137.54 480.18H137.62C137.633 479.78 137.64 479.4 137.64 479.04C137.653 478.667 137.66 478.307 137.66 477.96C137.673 477.613 137.687 477.26 137.7 476.9L138.06 469.96H140.92L139.32 483H136.16L135.4 478.96C135.32 478.547 135.247 478.127 135.18 477.7C135.113 477.273 135.067 476.867 135.04 476.48H134.98C134.94 476.867 134.893 477.273 134.84 477.7C134.787 478.127 134.72 478.547 134.64 478.96L133.88 483H130.82ZM142.272 483V469.96H145.212V475H148.772V469.96H151.712V483H148.772V477.56H145.212V483H142.272ZM157.504 483V478.6L153.304 469.96H156.464L157.784 473.1C157.984 473.593 158.178 474.087 158.364 474.58C158.564 475.06 158.764 475.56 158.964 476.08H159.044C159.258 475.56 159.464 475.06 159.664 474.58C159.878 474.087 160.078 473.593 160.264 473.1L161.584 469.96H164.664L160.464 478.6V483H157.504ZM169.337 477.9C169.243 477.367 169.277 476.9 169.437 476.5C169.597 476.1 169.817 475.747 170.097 475.44C170.39 475.133 170.69 474.853 170.997 474.6C171.317 474.333 171.577 474.073 171.777 473.82C171.99 473.567 172.097 473.293 172.097 473C172.097 472.587 171.957 472.273 171.677 472.06C171.397 471.847 171.043 471.74 170.617 471.74C170.203 471.74 169.837 471.827 169.517 472C169.197 472.16 168.883 472.38 168.577 472.66L166.937 471.16C167.417 470.627 167.983 470.193 168.637 469.86C169.303 469.527 170.03 469.36 170.817 469.36C171.59 469.36 172.283 469.48 172.897 469.72C173.51 469.96 173.997 470.32 174.357 470.8C174.73 471.28 174.917 471.887 174.917 472.62C174.917 473.153 174.81 473.607 174.597 473.98C174.383 474.34 174.117 474.667 173.797 474.96C173.477 475.253 173.163 475.533 172.857 475.8C172.55 476.067 172.297 476.367 172.097 476.7C171.91 477.033 171.843 477.433 171.897 477.9H169.337ZM170.697 483.24C170.123 483.24 169.643 483.053 169.257 482.68C168.883 482.293 168.697 481.8 168.697 481.2C168.697 480.613 168.883 480.133 169.257 479.76C169.643 479.387 170.123 479.2 170.697 479.2C171.27 479.2 171.743 479.387 172.117 479.76C172.503 480.133 172.697 480.613 172.697 481.2C172.697 481.8 172.503 482.293 172.117 482.68C171.743 483.053 171.27 483.24 170.697 483.24Z" fill="black"/>
</svg>
