<svg width="1620" height="2160" viewBox="0 0 1620 2160" fill="none" xmlns="http://www.w3.org/2000/svg">
<rect width="1620" height="2160" fill="white"/>
<path d="M1160.25 168V154.96H1163.85C1165.12 154.96 1166.22 155.187 1167.15 155.64C1168.1 156.093 1168.83 156.8 1169.35 157.76C1169.87 158.707 1170.13 159.927 1170.13 161.42C1170.13 162.913 1169.87 164.147 1169.35 165.12C1168.84 166.093 1168.13 166.82 1167.21 167.3C1166.29 167.767 1165.23 168 1164.03 168H1160.25ZM1163.21 165.62H1163.69C1164.38 165.62 1164.98 165.487 1165.49 165.22C1166 164.953 1166.39 164.513 1166.67 163.9C1166.96 163.287 1167.11 162.46 1167.11 161.42C1167.11 160.38 1166.96 159.567 1166.67 158.98C1166.39 158.38 1166 157.96 1165.49 157.72C1164.98 157.467 1164.38 157.34 1163.69 157.34H1163.21V165.62ZM1171.02 168L1175.08 154.96H1178.6L1182.66 168H1179.54L1177.86 161.4C1177.7 160.747 1177.53 160.053 1177.34 159.32C1177.16 158.587 1176.98 157.88 1176.82 157.2H1176.74C1176.58 157.88 1176.42 158.587 1176.24 159.32C1176.07 160.053 1175.9 160.747 1175.72 161.4L1174.02 168H1171.02ZM1173.7 164.9V162.6H1179.94V164.9H1173.7ZM1187.36 168V157.44H1183.46V154.96H1194.22V157.44H1190.32V168H1187.36ZM1196.67 168V154.96H1205.31V157.44H1199.63V160.06H1204.45V162.52H1199.63V165.52H1205.51V168H1196.67ZM1212.82 161.78C1212.14 161.78 1211.58 161.553 1211.14 161.1C1210.71 160.647 1210.5 160.093 1210.5 159.44C1210.5 158.787 1210.71 158.233 1211.14 157.78C1211.58 157.313 1212.14 157.08 1212.82 157.08C1213.51 157.08 1214.07 157.313 1214.5 157.78C1214.93 158.233 1215.14 158.787 1215.14 159.44C1215.14 160.093 1214.93 160.647 1214.5 161.1C1214.07 161.553 1213.51 161.78 1212.82 161.78ZM1212.82 168.24C1212.14 168.24 1211.58 168.013 1211.14 167.56C1210.71 167.107 1210.5 166.553 1210.5 165.9C1210.5 165.247 1210.71 164.693 1211.14 164.24C1211.58 163.773 1212.14 163.54 1212.82 163.54C1213.51 163.54 1214.07 163.773 1214.5 164.24C1214.93 164.693 1215.14 165.247 1215.14 165.9C1215.14 166.553 1214.93 167.107 1214.5 167.56C1214.07 168.013 1213.51 168.24 1212.82 168.24ZM1292.25 171.2L1298.83 153.8H1301.29L1294.71 171.2H1292.25ZM1388.18 171.2L1394.76 153.8H1397.22L1390.64 171.2H1388.18Z" fill="black"/>
<line x1="129" y1="195.439" x2="1491" y2="195.439" stroke="black" stroke-width="3"/>
<line x1="129" y1="272.358" x2="1491" y2="272.358" stroke="black"/>
<line x1="129" y1="319.808" x2="1491" y2="319.808" stroke="black"/>
<line x1="129" y1="367.258" x2="1491" y2="367.258" stroke="black"/>
<line x1="129" y1="414.707" x2="1491" y2="414.707" stroke="black"/>
<line x1="129" y1="462.157" x2="1491" y2="462.157" stroke="black"/>
<line x1="129" y1="509.606" x2="1491" y2="509.606" stroke="black"/>
<line x1="129" y1="557.056" x2="1491" y2="557.056" stroke="black"/>
<line x1="129" y1="604.505" x2="1491" y2="604.505" stroke="black"/>
<line x1="129" y1="651.955" x2="1491" y2="651.955" stroke="black"/>
<line x1="129" y1="699.404" x2="1491" y2="699.404" stroke="black"/>
<line x1="129" y1="746.854" x2="1491" y2="746.854" stroke="black"/>
<path d="M133.52 229.939V225.539L129.32 216.899H132.48L133.8 220.039C134 220.533 134.193 221.026 134.38 221.519C134.58 221.999 134.78 222.499 134.98 223.019H135.06C135.273 222.499 135.48 221.999 135.68 221.519C135.893 221.026 136.093 220.533 136.28 220.039L137.6 216.899H140.68L136.48 225.539V229.939H133.52ZM142.832 229.939V216.899H151.472V219.379H145.792V221.999H150.612V224.459H145.792V227.459H151.672V229.939H142.832ZM158.944 230.179C158.064 230.179 157.191 230.019 156.324 229.699C155.471 229.379 154.691 228.913 153.984 228.299L155.684 226.279C156.178 226.679 156.718 227.006 157.304 227.259C157.904 227.513 158.518 227.639 159.144 227.639C159.771 227.639 160.231 227.533 160.524 227.319C160.831 227.106 160.984 226.833 160.984 226.499C160.984 226.193 160.904 225.953 160.744 225.779C160.584 225.593 160.351 225.433 160.044 225.299C159.738 225.153 159.378 224.993 158.964 224.819L157.284 224.099C156.804 223.913 156.351 223.666 155.924 223.359C155.498 223.039 155.151 222.653 154.884 222.199C154.631 221.733 154.504 221.179 154.504 220.539C154.504 219.819 154.704 219.173 155.104 218.599C155.518 218.013 156.078 217.546 156.784 217.199C157.504 216.839 158.338 216.659 159.284 216.659C160.071 216.659 160.844 216.806 161.604 217.099C162.364 217.393 163.038 217.819 163.624 218.379L162.124 220.239C161.671 219.906 161.218 219.653 160.764 219.479C160.311 219.293 159.764 219.199 159.124 219.199C158.644 219.199 158.251 219.299 157.944 219.499C157.638 219.699 157.484 219.993 157.484 220.379C157.484 220.633 157.578 220.846 157.764 221.019C157.951 221.193 158.204 221.346 158.524 221.479C158.844 221.613 159.211 221.759 159.624 221.919L161.204 222.599C161.791 222.813 162.291 223.079 162.704 223.399C163.118 223.706 163.438 224.086 163.664 224.539C163.891 224.993 164.004 225.526 164.004 226.139C164.004 226.859 163.804 227.526 163.404 228.139C163.018 228.753 162.444 229.246 161.684 229.619C160.938 229.993 160.024 230.179 158.944 230.179ZM169.497 229.939V219.379H165.597V216.899H176.357V219.379H172.457V229.939H169.497ZM178.809 229.939V216.899H187.449V219.379H181.769V221.999H186.589V224.459H181.769V227.459H187.649V229.939H178.809ZM190.361 229.939V216.899H194.981C195.901 216.899 196.741 217.026 197.501 217.279C198.261 217.519 198.868 217.939 199.321 218.539C199.788 219.126 200.021 219.933 200.021 220.959C200.021 221.959 199.788 222.773 199.321 223.399C198.868 224.026 198.261 224.493 197.501 224.799C196.741 225.093 195.901 225.239 194.981 225.239H193.301V229.939H190.361ZM193.301 222.899H194.741C195.514 222.899 196.101 222.739 196.501 222.419C196.914 222.086 197.121 221.599 197.121 220.959C197.121 220.319 196.914 219.873 196.501 219.619C196.101 219.366 195.514 219.239 194.741 219.239H193.301V222.899ZM194.441 224.479L196.481 222.579L200.641 229.939H197.341L194.441 224.479ZM202.353 229.939V216.899H205.953C207.22 216.899 208.32 217.126 209.253 217.579C210.2 218.033 210.933 218.739 211.453 219.699C211.973 220.646 212.233 221.866 212.233 223.359C212.233 224.853 211.973 226.086 211.453 227.059C210.946 228.033 210.233 228.759 209.313 229.239C208.393 229.706 207.333 229.939 206.133 229.939H202.353ZM205.313 227.559H205.793C206.486 227.559 207.086 227.426 207.593 227.159C208.1 226.893 208.493 226.453 208.773 225.839C209.066 225.226 209.213 224.399 209.213 223.359C209.213 222.319 209.066 221.506 208.773 220.919C208.493 220.319 208.1 219.899 207.593 219.659C207.086 219.406 206.486 219.279 205.793 219.279H205.313V227.559ZM213.125 229.939L217.185 216.899H220.705L224.765 229.939H221.645L219.965 223.339C219.805 222.686 219.632 221.993 219.445 221.259C219.259 220.526 219.085 219.819 218.925 219.139H218.845C218.685 219.819 218.519 220.526 218.345 221.259C218.172 221.993 217.999 222.686 217.825 223.339L216.125 229.939H213.125ZM215.805 226.839V224.539H222.045V226.839H215.805ZM229.458 229.939V225.539L225.258 216.899H228.418L229.738 220.039C229.938 220.533 230.131 221.026 230.318 221.519C230.518 221.999 230.718 222.499 230.918 223.019H230.998C231.211 222.499 231.418 221.999 231.618 221.519C231.831 221.026 232.031 220.533 232.218 220.039L233.538 216.899H236.618L232.418 225.539V229.939H229.458Z" fill="black"/>
<line x1="129" y1="831.263" x2="1491" y2="831.263" stroke="black" stroke-width="3"/>
<line x1="129" y1="908.182" x2="1491" y2="908.182" stroke="black"/>
<line x1="129" y1="955.631" x2="1491" y2="955.631" stroke="black"/>
<line x1="129" y1="1003.08" x2="1491" y2="1003.08" stroke="black"/>
<line x1="129" y1="1050.53" x2="1491" y2="1050.53" stroke="black"/>
<line x1="129" y1="1097.98" x2="1491" y2="1097.98" stroke="black"/>
<line x1="129" y1="1145.43" x2="1491" y2="1145.43" stroke="black"/>
<line x1="129" y1="1192.88" x2="1491" y2="1192.88" stroke="black"/>
<line x1="129" y1="1240.33" x2="1491" y2="1240.33" stroke="black"/>
<line x1="129" y1="1287.78" x2="1491" y2="1287.78" stroke="black"/>
<line x1="129" y1="1335.23" x2="1491" y2="1335.23" stroke="black"/>
<line x1="129" y1="1382.68" x2="1491" y2="1382.68" stroke="black"/>
<path d="M133.52 865.763V855.203H129.62V852.723H140.38V855.203H136.48V865.763H133.52ZM146.992 866.003C145.952 866.003 145.039 865.743 144.252 865.223C143.466 864.703 142.852 863.943 142.412 862.943C141.972 861.929 141.752 860.676 141.752 859.183C141.752 857.729 141.972 856.509 142.412 855.523C142.852 854.523 143.466 853.769 144.252 853.263C145.039 852.743 145.952 852.483 146.992 852.483C148.032 852.483 148.946 852.743 149.732 853.263C150.519 853.769 151.132 854.523 151.572 855.523C152.012 856.509 152.232 857.729 152.232 859.183C152.232 860.676 152.012 861.929 151.572 862.943C151.132 863.943 150.519 864.703 149.732 865.223C148.946 865.743 148.032 866.003 146.992 866.003ZM146.992 863.463C147.446 863.463 147.839 863.303 148.172 862.983C148.506 862.649 148.759 862.169 148.932 861.543C149.119 860.903 149.212 860.116 149.212 859.183C149.212 858.276 149.119 857.516 148.932 856.903C148.759 856.289 148.506 855.823 148.172 855.503C147.839 855.183 147.446 855.023 146.992 855.023C146.539 855.023 146.146 855.183 145.812 855.503C145.479 855.823 145.219 856.289 145.032 856.903C144.859 857.516 144.772 858.276 144.772 859.183C144.772 860.116 144.859 860.903 145.032 861.543C145.219 862.169 145.479 862.649 145.812 862.983C146.146 863.303 146.539 863.463 146.992 863.463ZM154.384 865.763V852.723H157.984C159.251 852.723 160.351 852.949 161.284 853.403C162.231 853.856 162.964 854.563 163.484 855.523C164.004 856.469 164.264 857.689 164.264 859.183C164.264 860.676 164.004 861.909 163.484 862.883C162.978 863.856 162.264 864.583 161.344 865.063C160.424 865.529 159.364 865.763 158.164 865.763H154.384ZM157.344 863.383H157.824C158.518 863.383 159.118 863.249 159.624 862.983C160.131 862.716 160.524 862.276 160.804 861.663C161.098 861.049 161.244 860.223 161.244 859.183C161.244 858.143 161.098 857.329 160.804 856.743C160.524 856.143 160.131 855.723 159.624 855.483C159.118 855.229 158.518 855.103 157.824 855.103H157.344V863.383ZM165.157 865.763L169.217 852.723H172.737L176.797 865.763H173.677L171.997 859.163C171.837 858.509 171.663 857.816 171.477 857.083C171.29 856.349 171.117 855.643 170.957 854.963H170.877C170.717 855.643 170.55 856.349 170.377 857.083C170.203 857.816 170.03 858.509 169.857 859.163L168.157 865.763H165.157ZM167.837 862.663V860.363H174.077V862.663H167.837ZM181.489 865.763V861.363L177.289 852.723H180.449L181.769 855.863C181.969 856.356 182.162 856.849 182.349 857.343C182.549 857.823 182.749 858.323 182.949 858.843H183.029C183.242 858.323 183.449 857.823 183.649 857.343C183.862 856.849 184.062 856.356 184.249 855.863L185.569 852.723H188.649L184.449 861.363V865.763H181.489Z" fill="black"/>
<line x1="129" y1="1467.09" x2="1491" y2="1467.09" stroke="black" stroke-width="3"/>
<line x1="129" y1="1544" x2="1491" y2="1544" stroke="black"/>
<line x1="129" y1="1591.45" x2="1491" y2="1591.45" stroke="black"/>
<line x1="129" y1="1638.9" x2="1491" y2="1638.9" stroke="black"/>
<line x1="129" y1="1686.35" x2="1491" y2="1686.35" stroke="black"/>
<line x1="129" y1="1733.8" x2="1491" y2="1733.8" stroke="black"/>
<line x1="129" y1="1781.25" x2="1491" y2="1781.25" stroke="black"/>
<line x1="129" y1="1828.7" x2="1491" y2="1828.7" stroke="black"/>
<line x1="129" y1="1876.15" x2="1491" y2="1876.15" stroke="black"/>
<line x1="129" y1="1923.6" x2="1491" y2="1923.6" stroke="black"/>
<line x1="129" y1="1971.05" x2="1491" y2="1971.05" stroke="black"/>
<line x1="129" y1="2018.5" x2="1491" y2="2018.5" stroke="black"/>
<path d="M130.48 1501.59V1488.55H134.86C135.767 1488.55 136.58 1488.65 137.3 1488.85C138.02 1489.03 138.587 1489.36 139 1489.83C139.427 1490.29 139.64 1490.95 139.64 1491.79C139.64 1492.37 139.46 1492.94 139.1 1493.49C138.74 1494.03 138.173 1494.41 137.4 1494.61V1494.69C138.333 1494.85 139.04 1495.18 139.52 1495.69C140 1496.18 140.24 1496.87 140.24 1497.75C140.24 1498.63 140.02 1499.35 139.58 1499.93C139.14 1500.49 138.54 1500.91 137.78 1501.19C137.033 1501.45 136.187 1501.59 135.24 1501.59H130.48ZM133.42 1493.79H134.72C135.44 1493.79 135.96 1493.65 136.28 1493.37C136.6 1493.07 136.76 1492.68 136.76 1492.19C136.76 1491.71 136.593 1491.37 136.26 1491.17C135.94 1490.95 135.433 1490.85 134.74 1490.85H133.42V1493.79ZM133.42 1499.29H135C135.8 1499.29 136.393 1499.14 136.78 1498.85C137.167 1498.55 137.36 1498.11 137.36 1497.53C137.36 1496.95 137.167 1496.54 136.78 1496.29C136.393 1496.03 135.8 1495.91 135 1495.91H133.42V1499.29ZM143.132 1501.59V1488.55H146.072V1499.11H151.872V1501.59H143.132ZM158.984 1501.83C157.944 1501.83 157.031 1501.57 156.244 1501.05C155.458 1500.53 154.844 1499.77 154.404 1498.77C153.964 1497.75 153.744 1496.5 153.744 1495.01C153.744 1493.55 153.964 1492.33 154.404 1491.35C154.844 1490.35 155.458 1489.59 156.244 1489.09C157.031 1488.57 157.944 1488.31 158.984 1488.31C160.024 1488.31 160.938 1488.57 161.724 1489.09C162.511 1489.59 163.124 1490.35 163.564 1491.35C164.004 1492.33 164.224 1493.55 164.224 1495.01C164.224 1496.5 164.004 1497.75 163.564 1498.77C163.124 1499.77 162.511 1500.53 161.724 1501.05C160.938 1501.57 160.024 1501.83 158.984 1501.83ZM158.984 1499.29C159.438 1499.29 159.831 1499.13 160.164 1498.81C160.498 1498.47 160.751 1497.99 160.924 1497.37C161.111 1496.73 161.204 1495.94 161.204 1495.01C161.204 1494.1 161.111 1493.34 160.924 1492.73C160.751 1492.11 160.498 1491.65 160.164 1491.33C159.831 1491.01 159.438 1490.85 158.984 1490.85C158.531 1490.85 158.138 1491.01 157.804 1491.33C157.471 1491.65 157.211 1492.11 157.024 1492.73C156.851 1493.34 156.764 1494.1 156.764 1495.01C156.764 1495.94 156.851 1496.73 157.024 1497.37C157.211 1497.99 157.471 1498.47 157.804 1498.81C158.138 1499.13 158.531 1499.29 158.984 1499.29ZM172.097 1501.83C171.283 1501.83 170.51 1501.69 169.777 1501.41C169.057 1501.13 168.417 1500.71 167.857 1500.15C167.297 1499.57 166.857 1498.87 166.537 1498.05C166.217 1497.21 166.057 1496.24 166.057 1495.15C166.057 1493.71 166.33 1492.48 166.877 1491.47C167.437 1490.44 168.183 1489.66 169.117 1489.13C170.063 1488.58 171.117 1488.31 172.277 1488.31C173.103 1488.31 173.85 1488.48 174.517 1488.83C175.183 1489.16 175.737 1489.54 176.177 1489.97L174.557 1491.79C174.25 1491.49 173.91 1491.27 173.537 1491.11C173.177 1490.93 172.757 1490.85 172.277 1490.85C171.663 1490.85 171.117 1491.02 170.637 1491.37C170.157 1491.7 169.777 1492.18 169.497 1492.81C169.217 1493.43 169.077 1494.18 169.077 1495.05C169.077 1495.94 169.217 1496.71 169.497 1497.35C169.777 1497.97 170.163 1498.45 170.657 1498.79C171.163 1499.12 171.743 1499.29 172.397 1499.29C172.877 1499.29 173.31 1499.18 173.697 1498.97C174.083 1498.75 174.437 1498.47 174.757 1498.13L176.377 1499.91C175.843 1500.53 175.217 1501.01 174.497 1501.35C173.777 1501.67 172.977 1501.83 172.097 1501.83ZM178.329 1501.59V1488.55H181.309V1493.89H181.369L185.229 1488.55H188.489L181.309 1498.03V1501.59H178.329ZM185.589 1501.59L182.549 1495.53L184.289 1493.23L188.849 1501.59H185.589ZM190.801 1501.59V1488.55H199.441V1491.03H193.761V1493.65H198.581V1496.11H193.761V1499.11H199.641V1501.59H190.801ZM202.353 1501.59V1488.55H206.973C207.893 1488.55 208.733 1488.67 209.493 1488.93C210.253 1489.17 210.86 1489.59 211.313 1490.19C211.78 1490.77 212.013 1491.58 212.013 1492.61C212.013 1493.61 211.78 1494.42 211.313 1495.05C210.86 1495.67 210.253 1496.14 209.493 1496.45C208.733 1496.74 207.893 1496.89 206.973 1496.89H205.293V1501.59H202.353ZM205.293 1494.55H206.733C207.506 1494.55 208.093 1494.39 208.493 1494.07C208.906 1493.73 209.113 1493.25 209.113 1492.61C209.113 1491.97 208.906 1491.52 208.493 1491.27C208.093 1491.01 207.506 1490.89 206.733 1490.89H205.293V1494.55ZM206.433 1496.13L208.473 1494.23L212.633 1501.59H209.333L206.433 1496.13ZM218.905 1501.83C218.025 1501.83 217.152 1501.67 216.285 1501.35C215.432 1501.03 214.652 1500.56 213.945 1499.95L215.645 1497.93C216.139 1498.33 216.679 1498.65 217.265 1498.91C217.865 1499.16 218.479 1499.29 219.105 1499.29C219.732 1499.29 220.192 1499.18 220.485 1498.97C220.792 1498.75 220.945 1498.48 220.945 1498.15C220.945 1497.84 220.865 1497.6 220.705 1497.43C220.545 1497.24 220.312 1497.08 220.005 1496.95C219.699 1496.8 219.339 1496.64 218.925 1496.47L217.245 1495.75C216.765 1495.56 216.312 1495.31 215.885 1495.01C215.459 1494.69 215.112 1494.3 214.845 1493.85C214.592 1493.38 214.465 1492.83 214.465 1492.19C214.465 1491.47 214.665 1490.82 215.065 1490.25C215.479 1489.66 216.039 1489.19 216.745 1488.85C217.465 1488.49 218.299 1488.31 219.245 1488.31C220.032 1488.31 220.805 1488.45 221.565 1488.75C222.325 1489.04 222.999 1489.47 223.585 1490.03L222.085 1491.89C221.632 1491.55 221.179 1491.3 220.725 1491.13C220.272 1490.94 219.725 1490.85 219.085 1490.85C218.605 1490.85 218.212 1490.95 217.905 1491.15C217.599 1491.35 217.445 1491.64 217.445 1492.03C217.445 1492.28 217.539 1492.49 217.725 1492.67C217.912 1492.84 218.165 1492.99 218.485 1493.13C218.805 1493.26 219.172 1493.41 219.585 1493.57L221.165 1494.25C221.752 1494.46 222.252 1494.73 222.665 1495.05C223.079 1495.35 223.399 1495.73 223.625 1496.19C223.852 1496.64 223.965 1497.17 223.965 1497.79C223.965 1498.51 223.765 1499.17 223.365 1499.79C222.979 1500.4 222.405 1500.89 221.645 1501.27C220.899 1501.64 219.985 1501.83 218.905 1501.83Z" fill="black"/>
</svg>
