<svg width="1404" height="1872" viewBox="0 0 1404 1872" fill="none" xmlns="http://www.w3.org/2000/svg">
<rect width="1404" height="1872" fill="white"/>
<line x1="123" y1="1662.5" x2="1281" y2="1662.5" stroke="black" stroke-width="3"/>
<line x1="123" y1="1728.59" x2="1281" y2="1728.59" stroke="black"/>
<path d="M124.32 1694.05V1681.01H127.34L130.08 1687.49L131.2 1690.37H131.28C131.213 1689.67 131.127 1688.9 131.02 1688.05C130.913 1687.19 130.86 1686.39 130.86 1685.63V1681.01H133.68V1694.05H130.66L127.92 1687.55L126.8 1684.71H126.72C126.787 1685.41 126.873 1686.19 126.98 1687.03C127.087 1687.85 127.14 1688.65 127.14 1689.43V1694.05H124.32ZM140.992 1694.29C139.952 1694.29 139.039 1694.03 138.252 1693.51C137.466 1692.99 136.852 1692.23 136.412 1691.23C135.972 1690.21 135.752 1688.96 135.752 1687.47C135.752 1686.01 135.972 1684.79 136.412 1683.81C136.852 1682.81 137.466 1682.05 138.252 1681.55C139.039 1681.03 139.952 1680.77 140.992 1680.77C142.032 1680.77 142.946 1681.03 143.732 1681.55C144.519 1682.05 145.132 1682.81 145.572 1683.81C146.012 1684.79 146.232 1686.01 146.232 1687.47C146.232 1688.96 146.012 1690.21 145.572 1691.23C145.132 1692.23 144.519 1692.99 143.732 1693.51C142.946 1694.03 142.032 1694.29 140.992 1694.29ZM140.992 1691.75C141.446 1691.75 141.839 1691.59 142.172 1691.27C142.506 1690.93 142.759 1690.45 142.932 1689.83C143.119 1689.19 143.212 1688.4 143.212 1687.47C143.212 1686.56 143.119 1685.8 142.932 1685.19C142.759 1684.57 142.506 1684.11 142.172 1683.79C141.839 1683.47 141.446 1683.31 140.992 1683.31C140.539 1683.31 140.146 1683.47 139.812 1683.79C139.479 1684.11 139.219 1684.57 139.032 1685.19C138.859 1685.8 138.772 1686.56 138.772 1687.47C138.772 1688.4 138.859 1689.19 139.032 1689.83C139.219 1690.45 139.479 1690.93 139.812 1691.27C140.146 1691.59 140.539 1691.75 140.992 1691.75ZM151.504 1694.05V1683.49H147.604V1681.01H158.364V1683.49H154.464V1694.05H151.504ZM160.817 1694.05V1681.01H169.457V1683.49H163.777V1686.11H168.597V1688.57H163.777V1691.57H169.657V1694.05H160.817ZM176.929 1694.29C176.049 1694.29 175.175 1694.13 174.309 1693.81C173.455 1693.49 172.675 1693.02 171.969 1692.41L173.669 1690.39C174.162 1690.79 174.702 1691.11 175.289 1691.37C175.889 1691.62 176.502 1691.75 177.129 1691.75C177.755 1691.75 178.215 1691.64 178.509 1691.43C178.815 1691.21 178.969 1690.94 178.969 1690.61C178.969 1690.3 178.889 1690.06 178.729 1689.89C178.569 1689.7 178.335 1689.54 178.029 1689.41C177.722 1689.26 177.362 1689.1 176.949 1688.93L175.269 1688.21C174.789 1688.02 174.335 1687.77 173.909 1687.47C173.482 1687.15 173.135 1686.76 172.869 1686.31C172.615 1685.84 172.489 1685.29 172.489 1684.65C172.489 1683.93 172.689 1683.28 173.089 1682.71C173.502 1682.12 174.062 1681.65 174.769 1681.31C175.489 1680.95 176.322 1680.77 177.269 1680.77C178.055 1680.77 178.829 1680.91 179.589 1681.21C180.349 1681.5 181.022 1681.93 181.609 1682.49L180.109 1684.35C179.655 1684.01 179.202 1683.76 178.749 1683.59C178.295 1683.4 177.749 1683.31 177.109 1683.31C176.629 1683.31 176.235 1683.41 175.929 1683.61C175.622 1683.81 175.469 1684.1 175.469 1684.49C175.469 1684.74 175.562 1684.95 175.749 1685.13C175.935 1685.3 176.189 1685.45 176.509 1685.59C176.829 1685.72 177.195 1685.87 177.609 1686.03L179.189 1686.71C179.775 1686.92 180.275 1687.19 180.689 1687.51C181.102 1687.81 181.422 1688.19 181.649 1688.65C181.875 1689.1 181.989 1689.63 181.989 1690.25C181.989 1690.97 181.789 1691.63 181.389 1692.25C181.002 1692.86 180.429 1693.35 179.669 1693.73C178.922 1694.1 178.009 1694.29 176.929 1694.29Z" fill="black"/>
<line x1="123" y1="1359.5" x2="1281" y2="1359.5" stroke="black" stroke-width="3"/>
<line x1="123" y1="1425.59" x2="1281" y2="1425.59" stroke="black"/>
<line x1="123" y1="1466.27" x2="1281" y2="1466.27" stroke="black"/>
<line x1="123" y1="1506.96" x2="1281" y2="1506.96" stroke="black"/>
<line x1="123" y1="1547.64" x2="1281" y2="1547.64" stroke="black"/>
<line x1="123" y1="1588.32" x2="1281" y2="1588.32" stroke="black"/>
<line x1="123" y1="1629" x2="1281" y2="1629" stroke="black"/>
<path d="M128.96 1391.29C128.08 1391.29 127.207 1391.13 126.34 1390.81C125.487 1390.49 124.707 1390.02 124 1389.41L125.7 1387.39C126.193 1387.79 126.733 1388.11 127.32 1388.37C127.92 1388.62 128.533 1388.75 129.16 1388.75C129.787 1388.75 130.247 1388.64 130.54 1388.43C130.847 1388.21 131 1387.94 131 1387.61C131 1387.3 130.92 1387.06 130.76 1386.89C130.6 1386.7 130.367 1386.54 130.06 1386.41C129.753 1386.26 129.393 1386.1 128.98 1385.93L127.3 1385.21C126.82 1385.02 126.367 1384.77 125.94 1384.47C125.513 1384.15 125.167 1383.76 124.9 1383.31C124.647 1382.84 124.52 1382.29 124.52 1381.65C124.52 1380.93 124.72 1380.28 125.12 1379.71C125.533 1379.12 126.093 1378.65 126.8 1378.31C127.52 1377.95 128.353 1377.77 129.3 1377.77C130.087 1377.77 130.86 1377.91 131.62 1378.21C132.38 1378.5 133.053 1378.93 133.64 1379.49L132.14 1381.35C131.687 1381.01 131.233 1380.76 130.78 1380.59C130.327 1380.4 129.78 1380.31 129.14 1380.31C128.66 1380.31 128.267 1380.41 127.96 1380.61C127.653 1380.81 127.5 1381.1 127.5 1381.49C127.5 1381.74 127.593 1381.95 127.78 1382.13C127.967 1382.3 128.22 1382.45 128.54 1382.59C128.86 1382.72 129.227 1382.87 129.64 1383.03L131.22 1383.71C131.807 1383.92 132.307 1384.19 132.72 1384.51C133.133 1384.81 133.453 1385.19 133.68 1385.65C133.907 1386.1 134.02 1386.63 134.02 1387.25C134.02 1387.97 133.82 1388.63 133.42 1389.25C133.033 1389.86 132.46 1390.35 131.7 1390.73C130.953 1391.1 130.04 1391.29 128.96 1391.29ZM141.032 1391.29C140.232 1391.29 139.532 1391.17 138.932 1390.95C138.346 1390.71 137.852 1390.37 137.452 1389.93C137.066 1389.47 136.772 1388.93 136.572 1388.29C136.372 1387.63 136.272 1386.88 136.272 1386.03V1378.01H139.212V1386.33C139.212 1386.85 139.279 1387.29 139.412 1387.65C139.546 1388.01 139.746 1388.28 140.012 1388.47C140.279 1388.65 140.619 1388.75 141.032 1388.75C141.446 1388.75 141.786 1388.65 142.052 1388.47C142.332 1388.28 142.539 1388.01 142.672 1387.65C142.806 1387.29 142.872 1386.85 142.872 1386.33V1378.01H145.712V1386.03C145.712 1386.88 145.619 1387.63 145.432 1388.29C145.246 1388.93 144.952 1389.47 144.552 1389.93C144.166 1390.37 143.679 1390.71 143.092 1390.95C142.506 1391.17 141.819 1391.29 141.032 1391.29ZM148.484 1391.05V1378.01H153.104C154.051 1378.01 154.904 1378.14 155.664 1378.41C156.438 1378.66 157.051 1379.09 157.504 1379.71C157.971 1380.32 158.204 1381.15 158.204 1382.21C158.204 1383.22 157.971 1384.05 157.504 1384.71C157.038 1385.36 156.418 1385.85 155.644 1386.17C154.871 1386.47 154.024 1386.63 153.104 1386.63H151.424V1391.05H148.484ZM151.424 1384.29H152.924C153.738 1384.29 154.338 1384.11 154.724 1383.75C155.124 1383.39 155.324 1382.87 155.324 1382.21C155.324 1381.51 155.118 1381.03 154.704 1380.77C154.304 1380.49 153.711 1380.35 152.924 1380.35H151.424V1384.29ZM160.477 1391.05V1378.01H165.097C166.043 1378.01 166.897 1378.14 167.657 1378.41C168.43 1378.66 169.043 1379.09 169.497 1379.71C169.963 1380.32 170.197 1381.15 170.197 1382.21C170.197 1383.22 169.963 1384.05 169.497 1384.71C169.03 1385.36 168.41 1385.85 167.637 1386.17C166.863 1386.47 166.017 1386.63 165.097 1386.63H163.417V1391.05H160.477ZM163.417 1384.29H164.917C165.73 1384.29 166.33 1384.11 166.717 1383.75C167.117 1383.39 167.317 1382.87 167.317 1382.21C167.317 1381.51 167.11 1381.03 166.697 1380.77C166.297 1380.49 165.703 1380.35 164.917 1380.35H163.417V1384.29ZM176.969 1391.29C175.929 1391.29 175.015 1391.03 174.229 1390.51C173.442 1389.99 172.829 1389.23 172.389 1388.23C171.949 1387.21 171.729 1385.96 171.729 1384.47C171.729 1383.01 171.949 1381.79 172.389 1380.81C172.829 1379.81 173.442 1379.05 174.229 1378.55C175.015 1378.03 175.929 1377.77 176.969 1377.77C178.009 1377.77 178.922 1378.03 179.709 1378.55C180.495 1379.05 181.109 1379.81 181.549 1380.81C181.989 1381.79 182.209 1383.01 182.209 1384.47C182.209 1385.96 181.989 1387.21 181.549 1388.23C181.109 1389.23 180.495 1389.99 179.709 1390.51C178.922 1391.03 178.009 1391.29 176.969 1391.29ZM176.969 1388.75C177.422 1388.75 177.815 1388.59 178.149 1388.27C178.482 1387.93 178.735 1387.45 178.909 1386.83C179.095 1386.19 179.189 1385.4 179.189 1384.47C179.189 1383.56 179.095 1382.8 178.909 1382.19C178.735 1381.57 178.482 1381.11 178.149 1380.79C177.815 1380.47 177.422 1380.31 176.969 1380.31C176.515 1380.31 176.122 1380.47 175.789 1380.79C175.455 1381.11 175.195 1381.57 175.009 1382.19C174.835 1382.8 174.749 1383.56 174.749 1384.47C174.749 1385.4 174.835 1386.19 175.009 1386.83C175.195 1387.45 175.455 1387.93 175.789 1388.27C176.122 1388.59 176.515 1388.75 176.969 1388.75ZM184.361 1391.05V1378.01H188.981C189.901 1378.01 190.741 1378.13 191.501 1378.39C192.261 1378.63 192.868 1379.05 193.321 1379.65C193.788 1380.23 194.021 1381.04 194.021 1382.07C194.021 1383.07 193.788 1383.88 193.321 1384.51C192.868 1385.13 192.261 1385.6 191.501 1385.91C190.741 1386.2 189.901 1386.35 188.981 1386.35H187.301V1391.05H184.361ZM187.301 1384.01H188.741C189.514 1384.01 190.101 1383.85 190.501 1383.53C190.914 1383.19 191.121 1382.71 191.121 1382.07C191.121 1381.43 190.914 1380.98 190.501 1380.73C190.101 1380.47 189.514 1380.35 188.741 1380.35H187.301V1384.01ZM188.441 1385.59L190.481 1383.69L194.641 1391.05H191.341L188.441 1385.59ZM199.473 1391.05V1380.49H195.573V1378.01H206.333V1380.49H202.433V1391.05H199.473Z" fill="black"/>
<line x1="123" y1="1056.5" x2="1281" y2="1056.5" stroke="black" stroke-width="3"/>
<line x1="123" y1="1122.59" x2="1281" y2="1122.59" stroke="black"/>
<line x1="123" y1="1163.27" x2="1281" y2="1163.27" stroke="black"/>
<line x1="123" y1="1203.96" x2="1281" y2="1203.96" stroke="black"/>
<line x1="123" y1="1244.64" x2="1281" y2="1244.64" stroke="black"/>
<line x1="123" y1="1285.32" x2="1281" y2="1285.32" stroke="black"/>
<line x1="123" y1="1326" x2="1281" y2="1326" stroke="black"/>
<path d="M129.04 1088.29C128.24 1088.29 127.54 1088.17 126.94 1087.95C126.353 1087.71 125.86 1087.37 125.46 1086.93C125.073 1086.47 124.78 1085.93 124.58 1085.29C124.38 1084.63 124.28 1083.88 124.28 1083.03V1075.01H127.22V1083.33C127.22 1083.85 127.287 1084.29 127.42 1084.65C127.553 1085.01 127.753 1085.28 128.02 1085.47C128.287 1085.65 128.627 1085.75 129.04 1085.75C129.453 1085.75 129.793 1085.65 130.06 1085.47C130.34 1085.28 130.547 1085.01 130.68 1084.65C130.813 1084.29 130.88 1083.85 130.88 1083.33V1075.01H133.72V1083.03C133.72 1083.88 133.627 1084.63 133.44 1085.29C133.253 1085.93 132.96 1086.47 132.56 1086.93C132.173 1087.37 131.687 1087.71 131.1 1087.95C130.513 1088.17 129.827 1088.29 129.04 1088.29ZM136.492 1088.05V1075.01H141.112C142.059 1075.01 142.912 1075.14 143.672 1075.41C144.446 1075.66 145.059 1076.09 145.512 1076.71C145.979 1077.32 146.212 1078.15 146.212 1079.21C146.212 1080.22 145.979 1081.05 145.512 1081.71C145.046 1082.36 144.426 1082.85 143.652 1083.17C142.879 1083.47 142.032 1083.63 141.112 1083.63H139.432V1088.05H136.492ZM139.432 1081.29H140.932C141.746 1081.29 142.346 1081.11 142.732 1080.75C143.132 1080.39 143.332 1079.87 143.332 1079.21C143.332 1078.51 143.126 1078.03 142.712 1077.77C142.312 1077.49 141.719 1077.35 140.932 1077.35H139.432V1081.29ZM154.104 1088.29C153.291 1088.29 152.518 1088.15 151.784 1087.87C151.064 1087.59 150.424 1087.17 149.864 1086.61C149.304 1086.03 148.864 1085.33 148.544 1084.51C148.224 1083.67 148.064 1082.7 148.064 1081.61C148.064 1080.17 148.338 1078.94 148.884 1077.93C149.444 1076.9 150.191 1076.12 151.124 1075.59C152.071 1075.04 153.124 1074.77 154.284 1074.77C155.111 1074.77 155.858 1074.94 156.524 1075.29C157.191 1075.62 157.744 1076 158.184 1076.43L156.564 1078.25C156.258 1077.95 155.918 1077.73 155.544 1077.57C155.184 1077.39 154.764 1077.31 154.284 1077.31C153.671 1077.31 153.124 1077.48 152.644 1077.83C152.164 1078.16 151.784 1078.64 151.504 1079.27C151.224 1079.89 151.084 1080.64 151.084 1081.51C151.084 1082.4 151.224 1083.17 151.504 1083.81C151.784 1084.43 152.171 1084.91 152.664 1085.25C153.171 1085.58 153.751 1085.75 154.404 1085.75C154.884 1085.75 155.318 1085.64 155.704 1085.43C156.091 1085.21 156.444 1084.93 156.764 1084.59L158.384 1086.37C157.851 1086.99 157.224 1087.47 156.504 1087.81C155.784 1088.13 154.984 1088.29 154.104 1088.29ZM164.977 1088.29C163.937 1088.29 163.023 1088.03 162.237 1087.51C161.45 1086.99 160.837 1086.23 160.397 1085.23C159.957 1084.21 159.737 1082.96 159.737 1081.47C159.737 1080.01 159.957 1078.79 160.397 1077.81C160.837 1076.81 161.45 1076.05 162.237 1075.55C163.023 1075.03 163.937 1074.77 164.977 1074.77C166.017 1074.77 166.93 1075.03 167.717 1075.55C168.503 1076.05 169.117 1076.81 169.557 1077.81C169.997 1078.79 170.217 1080.01 170.217 1081.47C170.217 1082.96 169.997 1084.21 169.557 1085.23C169.117 1086.23 168.503 1086.99 167.717 1087.51C166.93 1088.03 166.017 1088.29 164.977 1088.29ZM164.977 1085.75C165.43 1085.75 165.823 1085.59 166.157 1085.27C166.49 1084.93 166.743 1084.45 166.917 1083.83C167.103 1083.19 167.197 1082.4 167.197 1081.47C167.197 1080.56 167.103 1079.8 166.917 1079.19C166.743 1078.57 166.49 1078.11 166.157 1077.79C165.823 1077.47 165.43 1077.31 164.977 1077.31C164.523 1077.31 164.13 1077.47 163.797 1077.79C163.463 1078.11 163.203 1078.57 163.017 1079.19C162.843 1079.8 162.757 1080.56 162.757 1081.47C162.757 1082.4 162.843 1083.19 163.017 1083.83C163.203 1084.45 163.463 1084.93 163.797 1085.27C164.13 1085.59 164.523 1085.75 164.977 1085.75ZM172.129 1088.05V1075.01H175.209L176.489 1079.63L176.929 1081.43H177.009L177.449 1079.63L178.729 1075.01H181.809V1088.05H179.329V1084.01C179.329 1083.65 179.342 1083.2 179.369 1082.67C179.395 1082.12 179.429 1081.55 179.469 1080.97C179.509 1080.38 179.549 1079.82 179.589 1079.29C179.642 1078.75 179.682 1078.31 179.709 1077.97H179.649L178.649 1081.45L177.649 1084.59H176.209L175.189 1081.45L174.249 1077.97H174.189C174.215 1078.31 174.249 1078.75 174.289 1079.29C174.342 1079.82 174.389 1080.38 174.429 1080.97C174.469 1081.55 174.502 1082.12 174.529 1082.67C174.555 1083.2 174.569 1083.65 174.569 1084.01V1088.05H172.129ZM184.441 1088.05V1085.57H187.481V1077.49H184.441V1075.01H193.481V1077.49H190.441V1085.57H193.481V1088.05H184.441ZM196.273 1088.05V1075.01H199.293L202.033 1081.49L203.153 1084.37H203.233C203.166 1083.67 203.08 1082.9 202.973 1082.05C202.866 1081.19 202.813 1080.39 202.813 1079.63V1075.01H205.633V1088.05H202.613L199.873 1081.55L198.753 1078.71H198.673C198.74 1079.41 198.826 1080.19 198.933 1081.03C199.04 1081.85 199.093 1082.65 199.093 1083.43V1088.05H196.273ZM213.805 1088.29C212.699 1088.29 211.692 1088.04 210.785 1087.55C209.879 1087.04 209.159 1086.29 208.625 1085.31C208.092 1084.31 207.825 1083.07 207.825 1081.61C207.825 1080.15 208.092 1078.92 208.625 1077.91C209.159 1076.88 209.879 1076.1 210.785 1075.57C211.705 1075.03 212.725 1074.77 213.845 1074.77C214.725 1074.77 215.479 1074.94 216.105 1075.29C216.732 1075.62 217.252 1076 217.665 1076.43L216.045 1078.25C215.765 1077.97 215.459 1077.74 215.125 1077.57C214.792 1077.39 214.365 1077.31 213.845 1077.31C213.285 1077.31 212.779 1077.48 212.325 1077.83C211.872 1078.16 211.512 1078.64 211.245 1079.27C210.992 1079.89 210.865 1080.64 210.865 1081.51C210.865 1082.4 210.979 1083.17 211.205 1083.81C211.432 1084.43 211.779 1084.91 212.245 1085.25C212.712 1085.58 213.285 1085.75 213.965 1085.75C214.219 1085.75 214.459 1085.71 214.685 1085.65C214.925 1085.58 215.112 1085.48 215.245 1085.35V1083.11H213.345V1080.71H217.885V1086.71C217.445 1087.12 216.859 1087.49 216.125 1087.81C215.405 1088.13 214.632 1088.29 213.805 1088.29Z" fill="black"/>
<line x1="123" y1="753.5" x2="1281" y2="753.5" stroke="black" stroke-width="3"/>
<line x1="123" y1="819.591" x2="1281" y2="819.591" stroke="black"/>
<line x1="123" y1="860.272" x2="1281" y2="860.272" stroke="black"/>
<line x1="123" y1="900.955" x2="1281" y2="900.955" stroke="black"/>
<line x1="123" y1="941.637" x2="1281" y2="941.637" stroke="black"/>
<line x1="123" y1="982.318" x2="1281" y2="982.318" stroke="black"/>
<line x1="123" y1="1023" x2="1281" y2="1023" stroke="black"/>
<path d="M130.12 785.286C129.307 785.286 128.533 785.146 127.8 784.866C127.08 784.586 126.44 784.166 125.88 783.606C125.32 783.033 124.88 782.333 124.56 781.506C124.24 780.666 124.08 779.699 124.08 778.606C124.08 777.166 124.353 775.939 124.9 774.926C125.46 773.899 126.207 773.119 127.14 772.586C128.087 772.039 129.14 771.766 130.3 771.766C131.127 771.766 131.873 771.939 132.54 772.286C133.207 772.619 133.76 772.999 134.2 773.426L132.58 775.246C132.273 774.953 131.933 774.726 131.56 774.566C131.2 774.393 130.78 774.306 130.3 774.306C129.687 774.306 129.14 774.479 128.66 774.826C128.18 775.159 127.8 775.639 127.52 776.266C127.24 776.893 127.1 777.639 127.1 778.506C127.1 779.399 127.24 780.166 127.52 780.806C127.8 781.433 128.187 781.913 128.68 782.246C129.187 782.579 129.767 782.746 130.42 782.746C130.9 782.746 131.333 782.639 131.72 782.426C132.107 782.213 132.46 781.933 132.78 781.586L134.4 783.366C133.867 783.993 133.24 784.473 132.52 784.806C131.8 785.126 131 785.286 130.12 785.286ZM140.992 785.286C139.952 785.286 139.039 785.026 138.252 784.506C137.466 783.986 136.852 783.226 136.412 782.226C135.972 781.213 135.752 779.959 135.752 778.466C135.752 777.013 135.972 775.793 136.412 774.806C136.852 773.806 137.466 773.053 138.252 772.546C139.039 772.026 139.952 771.766 140.992 771.766C142.032 771.766 142.946 772.026 143.732 772.546C144.519 773.053 145.132 773.806 145.572 774.806C146.012 775.793 146.232 777.013 146.232 778.466C146.232 779.959 146.012 781.213 145.572 782.226C145.132 783.226 144.519 783.986 143.732 784.506C142.946 785.026 142.032 785.286 140.992 785.286ZM140.992 782.746C141.446 782.746 141.839 782.586 142.172 782.266C142.506 781.933 142.759 781.453 142.932 780.826C143.119 780.186 143.212 779.399 143.212 778.466C143.212 777.559 143.119 776.799 142.932 776.186C142.759 775.573 142.506 775.106 142.172 774.786C141.839 774.466 141.446 774.306 140.992 774.306C140.539 774.306 140.146 774.466 139.812 774.786C139.479 775.106 139.219 775.573 139.032 776.186C138.859 776.799 138.772 777.559 138.772 778.466C138.772 779.399 138.859 780.186 139.032 780.826C139.219 781.453 139.479 781.933 139.812 782.266C140.146 782.586 140.539 782.746 140.992 782.746ZM148.144 785.046V772.006H151.224L152.504 776.626L152.944 778.426H153.024L153.464 776.626L154.744 772.006H157.824V785.046H155.344V781.006C155.344 780.646 155.358 780.199 155.384 779.666C155.411 779.119 155.444 778.553 155.484 777.966C155.524 777.379 155.564 776.819 155.604 776.286C155.658 775.753 155.698 775.313 155.724 774.966H155.664L154.664 778.446L153.664 781.586H152.224L151.204 778.446L150.264 774.966H150.204C150.231 775.313 150.264 775.753 150.304 776.286C150.358 776.819 150.404 777.379 150.444 777.966C150.484 778.553 150.518 779.119 150.544 779.666C150.571 780.199 150.584 780.646 150.584 781.006V785.046H148.144ZM160.477 785.046V772.006H165.097C166.043 772.006 166.897 772.139 167.657 772.406C168.43 772.659 169.043 773.093 169.497 773.706C169.963 774.319 170.197 775.153 170.197 776.206C170.197 777.219 169.963 778.053 169.497 778.706C169.03 779.359 168.41 779.846 167.637 780.166C166.863 780.473 166.017 780.626 165.097 780.626H163.417V785.046H160.477ZM163.417 778.286H164.917C165.73 778.286 166.33 778.106 166.717 777.746C167.117 777.386 167.317 776.873 167.317 776.206C167.317 775.513 167.11 775.033 166.697 774.766C166.297 774.486 165.703 774.346 164.917 774.346H163.417V778.286ZM173.109 785.046V772.006H176.049V782.566H181.849V785.046H173.109ZM184.801 785.046V772.006H193.441V774.486H187.761V777.106H192.581V779.566H187.761V782.566H193.641V785.046H184.801ZM199.473 785.046V774.486H195.573V772.006H206.333V774.486H202.433V785.046H199.473ZM208.425 785.046V782.566H211.465V774.486H208.425V772.006H217.465V774.486H214.425V782.566H217.465V785.046H208.425ZM224.938 785.286C223.898 785.286 222.984 785.026 222.198 784.506C221.411 783.986 220.798 783.226 220.358 782.226C219.918 781.213 219.698 779.959 219.698 778.466C219.698 777.013 219.918 775.793 220.358 774.806C220.798 773.806 221.411 773.053 222.198 772.546C222.984 772.026 223.898 771.766 224.938 771.766C225.978 771.766 226.891 772.026 227.678 772.546C228.464 773.053 229.078 773.806 229.518 774.806C229.958 775.793 230.178 777.013 230.178 778.466C230.178 779.959 229.958 781.213 229.518 782.226C229.078 783.226 228.464 783.986 227.678 784.506C226.891 785.026 225.978 785.286 224.938 785.286ZM224.938 782.746C225.391 782.746 225.784 782.586 226.118 782.266C226.451 781.933 226.704 781.453 226.878 780.826C227.064 780.186 227.158 779.399 227.158 778.466C227.158 777.559 227.064 776.799 226.878 776.186C226.704 775.573 226.451 775.106 226.118 774.786C225.784 774.466 225.391 774.306 224.938 774.306C224.484 774.306 224.091 774.466 223.758 774.786C223.424 775.106 223.164 775.573 222.978 776.186C222.804 776.799 222.718 777.559 222.718 778.466C222.718 779.399 222.804 780.186 222.978 780.826C223.164 781.453 223.424 781.933 223.758 782.266C224.091 782.586 224.484 782.746 224.938 782.746ZM232.25 785.046V772.006H235.27L238.01 778.486L239.13 781.366H239.21C239.143 780.673 239.056 779.899 238.95 779.046C238.843 778.193 238.79 777.386 238.79 776.626V772.006H241.61V785.046H238.59L235.85 778.546L234.73 775.706H234.65C234.716 776.413 234.803 777.186 234.91 778.026C235.016 778.853 235.07 779.653 235.07 780.426V785.046H232.25ZM248.882 785.286C248.002 785.286 247.129 785.126 246.262 784.806C245.409 784.486 244.629 784.019 243.922 783.406L245.622 781.386C246.115 781.786 246.655 782.113 247.242 782.366C247.842 782.619 248.455 782.746 249.082 782.746C249.709 782.746 250.169 782.639 250.462 782.426C250.769 782.213 250.922 781.939 250.922 781.606C250.922 781.299 250.842 781.059 250.682 780.886C250.522 780.699 250.289 780.539 249.982 780.406C249.675 780.259 249.315 780.099 248.902 779.926L247.222 779.206C246.742 779.019 246.289 778.773 245.862 778.466C245.435 778.146 245.089 777.759 244.822 777.306C244.569 776.839 244.442 776.286 244.442 775.646C244.442 774.926 244.642 774.279 245.042 773.706C245.455 773.119 246.015 772.653 246.722 772.306C247.442 771.946 248.275 771.766 249.222 771.766C250.009 771.766 250.782 771.913 251.542 772.206C252.302 772.499 252.975 772.926 253.562 773.486L252.062 775.346C251.609 775.013 251.155 774.759 250.702 774.586C250.249 774.399 249.702 774.306 249.062 774.306C248.582 774.306 248.189 774.406 247.882 774.606C247.575 774.806 247.422 775.099 247.422 775.486C247.422 775.739 247.515 775.953 247.702 776.126C247.889 776.299 248.142 776.453 248.462 776.586C248.782 776.719 249.149 776.866 249.562 777.026L251.142 777.706C251.729 777.919 252.229 778.186 252.642 778.506C253.055 778.813 253.375 779.193 253.602 779.646C253.829 780.099 253.942 780.633 253.942 781.246C253.942 781.966 253.742 782.633 253.342 783.246C252.955 783.859 252.382 784.353 251.622 784.726C250.875 785.099 249.962 785.286 248.882 785.286Z" fill="black"/>
<line x1="123" y1="450.5" x2="1281" y2="450.5" stroke="black" stroke-width="3"/>
<line x1="123" y1="516.591" x2="1281" y2="516.591" stroke="black"/>
<line x1="123" y1="557.272" x2="1281" y2="557.272" stroke="black"/>
<line x1="123" y1="597.955" x2="1281" y2="597.955" stroke="black"/>
<line x1="123" y1="638.637" x2="1281" y2="638.637" stroke="black"/>
<line x1="123" y1="679.318" x2="1281" y2="679.318" stroke="black"/>
<line x1="123" y1="720" x2="1281" y2="720" stroke="black"/>
<path d="M129 482.286C127.96 482.286 127.047 482.026 126.26 481.506C125.473 480.986 124.86 480.226 124.42 479.226C123.98 478.213 123.76 476.959 123.76 475.466C123.76 474.013 123.98 472.793 124.42 471.806C124.86 470.806 125.473 470.053 126.26 469.546C127.047 469.026 127.96 468.766 129 468.766C130.04 468.766 130.953 469.026 131.74 469.546C132.527 470.053 133.14 470.806 133.58 471.806C134.02 472.793 134.24 474.013 134.24 475.466C134.24 476.959 134.02 478.213 133.58 479.226C133.14 480.226 132.527 480.986 131.74 481.506C130.953 482.026 130.04 482.286 129 482.286ZM129 479.746C129.453 479.746 129.847 479.586 130.18 479.266C130.513 478.933 130.767 478.453 130.94 477.826C131.127 477.186 131.22 476.399 131.22 475.466C131.22 474.559 131.127 473.799 130.94 473.186C130.767 472.573 130.513 472.106 130.18 471.786C129.847 471.466 129.453 471.306 129 471.306C128.547 471.306 128.153 471.466 127.82 471.786C127.487 472.106 127.227 472.573 127.04 473.186C126.867 473.799 126.78 474.559 126.78 475.466C126.78 476.399 126.867 477.186 127.04 477.826C127.227 478.453 127.487 478.933 127.82 479.266C128.153 479.586 128.547 479.746 129 479.746ZM136.472 482.046V469.006H140.852C141.759 469.006 142.572 469.106 143.292 469.306C144.012 469.493 144.579 469.819 144.992 470.286C145.419 470.753 145.632 471.406 145.632 472.246C145.632 472.833 145.452 473.399 145.092 473.946C144.732 474.493 144.166 474.866 143.392 475.066V475.146C144.326 475.306 145.032 475.639 145.512 476.146C145.992 476.639 146.232 477.326 146.232 478.206C146.232 479.086 146.012 479.813 145.572 480.386C145.132 480.946 144.532 481.366 143.772 481.646C143.026 481.913 142.179 482.046 141.232 482.046H136.472ZM139.412 474.246H140.712C141.432 474.246 141.952 474.106 142.272 473.826C142.592 473.533 142.752 473.139 142.752 472.646C142.752 472.166 142.586 471.826 142.252 471.626C141.932 471.413 141.426 471.306 140.732 471.306H139.412V474.246ZM139.412 479.746H140.992C141.792 479.746 142.386 479.599 142.772 479.306C143.159 479.013 143.352 478.573 143.352 477.986C143.352 477.413 143.159 476.999 142.772 476.746C142.386 476.493 141.792 476.366 140.992 476.366H139.412V479.746ZM152.944 482.286C152.064 482.286 151.191 482.126 150.324 481.806C149.471 481.486 148.691 481.019 147.984 480.406L149.684 478.386C150.178 478.786 150.718 479.113 151.304 479.366C151.904 479.619 152.518 479.746 153.144 479.746C153.771 479.746 154.231 479.639 154.524 479.426C154.831 479.213 154.984 478.939 154.984 478.606C154.984 478.299 154.904 478.059 154.744 477.886C154.584 477.699 154.351 477.539 154.044 477.406C153.738 477.259 153.378 477.099 152.964 476.926L151.284 476.206C150.804 476.019 150.351 475.773 149.924 475.466C149.498 475.146 149.151 474.759 148.884 474.306C148.631 473.839 148.504 473.286 148.504 472.646C148.504 471.926 148.704 471.279 149.104 470.706C149.518 470.119 150.078 469.653 150.784 469.306C151.504 468.946 152.338 468.766 153.284 468.766C154.071 468.766 154.844 468.913 155.604 469.206C156.364 469.499 157.038 469.926 157.624 470.486L156.124 472.346C155.671 472.013 155.218 471.759 154.764 471.586C154.311 471.399 153.764 471.306 153.124 471.306C152.644 471.306 152.251 471.406 151.944 471.606C151.638 471.806 151.484 472.099 151.484 472.486C151.484 472.739 151.578 472.953 151.764 473.126C151.951 473.299 152.204 473.453 152.524 473.586C152.844 473.719 153.211 473.866 153.624 474.026L155.204 474.706C155.791 474.919 156.291 475.186 156.704 475.506C157.118 475.813 157.438 476.193 157.664 476.646C157.891 477.099 158.004 477.633 158.004 478.246C158.004 478.966 157.804 479.633 157.404 480.246C157.018 480.859 156.444 481.353 155.684 481.726C154.938 482.099 154.024 482.286 152.944 482.286ZM163.497 482.046V471.486H159.597V469.006H170.357V471.486H166.457V482.046H163.497ZM171.149 482.046L175.209 469.006H178.729L182.789 482.046H179.669L177.989 475.446C177.829 474.793 177.655 474.099 177.469 473.366C177.282 472.633 177.109 471.926 176.949 471.246H176.869C176.709 471.926 176.542 472.633 176.369 473.366C176.195 474.099 176.022 474.793 175.849 475.446L174.149 482.046H171.149ZM173.829 478.946V476.646H180.069V478.946H173.829ZM190.081 482.286C189.268 482.286 188.494 482.146 187.761 481.866C187.041 481.586 186.401 481.166 185.841 480.606C185.281 480.033 184.841 479.333 184.521 478.506C184.201 477.666 184.041 476.699 184.041 475.606C184.041 474.166 184.314 472.939 184.861 471.926C185.421 470.899 186.168 470.119 187.101 469.586C188.048 469.039 189.101 468.766 190.261 468.766C191.088 468.766 191.834 468.939 192.501 469.286C193.168 469.619 193.721 469.999 194.161 470.426L192.541 472.246C192.234 471.953 191.894 471.726 191.521 471.566C191.161 471.393 190.741 471.306 190.261 471.306C189.648 471.306 189.101 471.479 188.621 471.826C188.141 472.159 187.761 472.639 187.481 473.266C187.201 473.893 187.061 474.639 187.061 475.506C187.061 476.399 187.201 477.166 187.481 477.806C187.761 478.433 188.148 478.913 188.641 479.246C189.148 479.579 189.728 479.746 190.381 479.746C190.861 479.746 191.294 479.639 191.681 479.426C192.068 479.213 192.421 478.933 192.741 478.586L194.361 480.366C193.828 480.993 193.201 481.473 192.481 481.806C191.761 482.126 190.961 482.286 190.081 482.286ZM197.093 482.046V469.006H200.033V479.566H205.833V482.046H197.093ZM208.785 482.046V469.006H217.425V471.486H211.745V474.106H216.565V476.566H211.745V479.566H217.625V482.046H208.785ZM224.898 482.286C224.018 482.286 223.144 482.126 222.278 481.806C221.424 481.486 220.644 481.019 219.938 480.406L221.638 478.386C222.131 478.786 222.671 479.113 223.258 479.366C223.858 479.619 224.471 479.746 225.098 479.746C225.724 479.746 226.184 479.639 226.478 479.426C226.784 479.213 226.938 478.939 226.938 478.606C226.938 478.299 226.858 478.059 226.698 477.886C226.538 477.699 226.304 477.539 225.998 477.406C225.691 477.259 225.331 477.099 224.918 476.926L223.238 476.206C222.758 476.019 222.304 475.773 221.877 475.466C221.451 475.146 221.104 474.759 220.838 474.306C220.584 473.839 220.458 473.286 220.458 472.646C220.458 471.926 220.658 471.279 221.058 470.706C221.471 470.119 222.031 469.653 222.738 469.306C223.458 468.946 224.291 468.766 225.238 468.766C226.024 468.766 226.798 468.913 227.558 469.206C228.318 469.499 228.991 469.926 229.578 470.486L228.078 472.346C227.624 472.013 227.171 471.759 226.718 471.586C226.264 471.399 225.718 471.306 225.078 471.306C224.598 471.306 224.204 471.406 223.898 471.606C223.591 471.806 223.438 472.099 223.438 472.486C223.438 472.739 223.531 472.953 223.718 473.126C223.904 473.299 224.158 473.453 224.478 473.586C224.798 473.719 225.164 473.866 225.578 474.026L227.158 474.706C227.744 474.919 228.244 475.186 228.658 475.506C229.071 475.813 229.391 476.193 229.618 476.646C229.844 477.099 229.957 477.633 229.957 478.246C229.957 478.966 229.758 479.633 229.358 480.246C228.971 480.859 228.398 481.353 227.638 481.726C226.891 482.099 225.978 482.286 224.898 482.286Z" fill="black"/>
<line x1="123" y1="148.318" x2="1281" y2="148.318" stroke="black" stroke-width="3"/>
<line x1="123" y1="214.409" x2="1281" y2="214.409" stroke="black"/>
<line x1="123" y1="255.091" x2="1281" y2="255.091" stroke="black"/>
<line x1="123" y1="295.772" x2="1281" y2="295.772" stroke="black"/>
<line x1="123" y1="336.455" x2="1281" y2="336.455" stroke="black"/>
<line x1="123" y1="377.137" x2="1281" y2="377.137" stroke="black"/>
<line x1="123" y1="417.818" x2="1281" y2="417.818" stroke="black"/>
<path d="M125.1 179.277V166.237H133.76V168.717H128.04V171.737H132.92V174.217H128.04V179.277H125.1ZM135.172 179.277L139.232 166.237H142.752L146.812 179.277H143.692L142.012 172.677C141.852 172.024 141.679 171.331 141.492 170.597C141.306 169.864 141.132 169.157 140.972 168.477H140.892C140.732 169.157 140.566 169.864 140.392 170.597C140.219 171.331 140.046 172.024 139.872 172.677L138.172 179.277H135.172ZM137.852 176.177V173.877H144.092V176.177H137.852ZM148.304 179.277V166.237H151.324L154.064 172.717L155.184 175.597H155.264C155.198 174.904 155.111 174.131 155.004 173.277C154.898 172.424 154.844 171.617 154.844 170.857V166.237H157.664V179.277H154.644L151.904 172.777L150.784 169.937H150.704C150.771 170.644 150.858 171.417 150.964 172.257C151.071 173.084 151.124 173.884 151.124 174.657V179.277H148.304ZM163.497 179.277V168.717H159.597V166.237H170.357V168.717H166.457V179.277H163.497ZM171.149 179.277L175.209 166.237H178.729L182.789 179.277H179.669L177.989 172.677C177.829 172.024 177.655 171.331 177.469 170.597C177.282 169.864 177.109 169.157 176.949 168.477H176.869C176.709 169.157 176.542 169.864 176.369 170.597C176.195 171.331 176.022 172.024 175.849 172.677L174.149 179.277H171.149ZM173.829 176.177V173.877H180.069V176.177H173.829ZM188.921 179.517C188.041 179.517 187.168 179.357 186.301 179.037C185.448 178.717 184.668 178.251 183.961 177.637L185.661 175.617C186.154 176.017 186.694 176.344 187.281 176.597C187.881 176.851 188.494 176.977 189.121 176.977C189.748 176.977 190.208 176.871 190.501 176.657C190.808 176.444 190.961 176.171 190.961 175.837C190.961 175.531 190.881 175.291 190.721 175.117C190.561 174.931 190.328 174.771 190.021 174.637C189.714 174.491 189.354 174.331 188.941 174.157L187.261 173.437C186.781 173.251 186.328 173.004 185.901 172.697C185.474 172.377 185.128 171.991 184.861 171.537C184.608 171.071 184.481 170.517 184.481 169.877C184.481 169.157 184.681 168.511 185.081 167.937C185.494 167.351 186.054 166.884 186.761 166.537C187.481 166.177 188.314 165.997 189.261 165.997C190.048 165.997 190.821 166.144 191.581 166.437C192.341 166.731 193.014 167.157 193.601 167.717L192.101 169.577C191.648 169.244 191.194 168.991 190.741 168.817C190.288 168.631 189.741 168.537 189.101 168.537C188.621 168.537 188.228 168.637 187.921 168.837C187.614 169.037 187.461 169.331 187.461 169.717C187.461 169.971 187.554 170.184 187.741 170.357C187.928 170.531 188.181 170.684 188.501 170.817C188.821 170.951 189.188 171.097 189.601 171.257L191.181 171.937C191.768 172.151 192.268 172.417 192.681 172.737C193.094 173.044 193.414 173.424 193.641 173.877C193.868 174.331 193.981 174.864 193.981 175.477C193.981 176.197 193.781 176.864 193.381 177.477C192.994 178.091 192.421 178.584 191.661 178.957C190.914 179.331 190.001 179.517 188.921 179.517ZM199.473 179.277V168.717H195.573V166.237H206.333V168.717H202.433V179.277H199.473ZM208.425 179.277V176.797H211.465V168.717H208.425V166.237H217.465V168.717H214.425V176.797H217.465V179.277H208.425ZM226.058 179.517C225.244 179.517 224.471 179.377 223.738 179.097C223.018 178.817 222.378 178.397 221.818 177.837C221.258 177.264 220.818 176.564 220.498 175.737C220.178 174.897 220.018 173.931 220.018 172.837C220.018 171.397 220.291 170.171 220.838 169.157C221.398 168.131 222.144 167.351 223.078 166.817C224.024 166.271 225.078 165.997 226.238 165.997C227.064 165.997 227.811 166.171 228.478 166.517C229.144 166.851 229.698 167.231 230.138 167.657L228.518 169.477C228.211 169.184 227.871 168.957 227.498 168.797C227.138 168.624 226.718 168.537 226.238 168.537C225.624 168.537 225.078 168.711 224.598 169.057C224.118 169.391 223.738 169.871 223.458 170.497C223.178 171.124 223.038 171.871 223.038 172.737C223.038 173.631 223.178 174.397 223.458 175.037C223.738 175.664 224.124 176.144 224.618 176.477C225.124 176.811 225.704 176.977 226.358 176.977C226.838 176.977 227.271 176.871 227.658 176.657C228.044 176.444 228.398 176.164 228.718 175.817L230.338 177.597C229.804 178.224 229.178 178.704 228.458 179.037C227.738 179.357 226.938 179.517 226.058 179.517Z" fill="black"/>
<path d="M1001 126V112.96H1004.6C1005.87 112.96 1006.97 113.187 1007.9 113.64C1008.85 114.093 1009.58 114.8 1010.1 115.76C1010.62 116.707 1010.88 117.927 1010.88 119.42C1010.88 120.913 1010.62 122.147 1010.1 123.12C1009.59 124.093 1008.88 124.82 1007.96 125.3C1007.04 125.767 1005.98 126 1004.78 126H1001ZM1003.96 123.62H1004.44C1005.13 123.62 1005.73 123.487 1006.24 123.22C1006.75 122.953 1007.14 122.513 1007.42 121.9C1007.71 121.287 1007.86 120.46 1007.86 119.42C1007.86 118.38 1007.71 117.567 1007.42 116.98C1007.14 116.38 1006.75 115.96 1006.24 115.72C1005.73 115.467 1005.13 115.34 1004.44 115.34H1003.96V123.62ZM1011.77 126L1015.83 112.96H1019.35L1023.41 126H1020.29L1018.61 119.4C1018.45 118.747 1018.28 118.053 1018.09 117.32C1017.91 116.587 1017.73 115.88 1017.57 115.2H1017.49C1017.33 115.88 1017.17 116.587 1016.99 117.32C1016.82 118.053 1016.65 118.747 1016.47 119.4L1014.77 126H1011.77ZM1014.45 122.9V120.6H1020.69V122.9H1014.45ZM1028.1 126V115.44H1024.2V112.96H1034.96V115.44H1031.06V126H1028.1ZM1037.42 126V112.96H1046.06V115.44H1040.38V118.06H1045.2V120.52H1040.38V123.52H1046.26V126H1037.42ZM1053.57 119.78C1052.89 119.78 1052.33 119.553 1051.89 119.1C1051.46 118.647 1051.25 118.093 1051.25 117.44C1051.25 116.787 1051.46 116.233 1051.89 115.78C1052.33 115.313 1052.89 115.08 1053.57 115.08C1054.26 115.08 1054.82 115.313 1055.25 115.78C1055.68 116.233 1055.89 116.787 1055.89 117.44C1055.89 118.093 1055.68 118.647 1055.25 119.1C1054.82 119.553 1054.26 119.78 1053.57 119.78ZM1053.57 126.24C1052.89 126.24 1052.33 126.013 1051.89 125.56C1051.46 125.107 1051.25 124.553 1051.25 123.9C1051.25 123.247 1051.46 122.693 1051.89 122.24C1052.33 121.773 1052.89 121.54 1053.57 121.54C1054.26 121.54 1054.82 121.773 1055.25 122.24C1055.68 122.693 1055.89 123.247 1055.89 123.9C1055.89 124.553 1055.68 125.107 1055.25 125.56C1054.82 126.013 1054.26 126.24 1053.57 126.24ZM1132.99 129.2L1139.57 111.8H1142.03L1135.45 129.2H1132.99ZM1228.93 129.2L1235.51 111.8H1237.97L1231.39 129.2H1228.93Z" fill="black"/>
</svg>
