<svg width="1404" height="1872" viewBox="0 0 1404 1872" fill="none" xmlns="http://www.w3.org/2000/svg">
<rect width="1404" height="1872" fill="white"/>
<line x1="123" y1="157.5" x2="1281" y2="157.5" stroke="black" stroke-width="3"/>
<line x1="123" y1="226.693" x2="1281" y2="226.693" stroke="black"/>
<line x1="123" y1="269.314" x2="1281" y2="269.314" stroke="black"/>
<line x1="123" y1="311.935" x2="1281" y2="311.935" stroke="black"/>
<path d="M124.5 190V176.96H129.12C130.067 176.96 130.92 177.093 131.68 177.36C132.453 177.613 133.067 178.047 133.52 178.66C133.987 179.273 134.22 180.107 134.22 181.16C134.22 182.173 133.987 183.007 133.52 183.66C133.053 184.313 132.433 184.8 131.66 185.12C130.887 185.427 130.04 185.58 129.12 185.58H127.44V190H124.5ZM127.44 183.24H128.94C129.753 183.24 130.353 183.06 130.74 182.7C131.14 182.34 131.34 181.827 131.34 181.16C131.34 180.467 131.133 179.987 130.72 179.72C130.32 179.44 129.727 179.3 128.94 179.3H127.44V183.24ZM136.392 190V176.96H141.012C141.932 176.96 142.772 177.087 143.532 177.34C144.292 177.58 144.899 178 145.352 178.6C145.819 179.187 146.052 179.993 146.052 181.02C146.052 182.02 145.819 182.833 145.352 183.46C144.899 184.087 144.292 184.553 143.532 184.86C142.772 185.153 141.932 185.3 141.012 185.3H139.332V190H136.392ZM139.332 182.96H140.772C141.546 182.96 142.132 182.8 142.532 182.48C142.946 182.147 143.152 181.66 143.152 181.02C143.152 180.38 142.946 179.933 142.532 179.68C142.132 179.427 141.546 179.3 140.772 179.3H139.332V182.96ZM140.472 184.54L142.512 182.64L146.672 190H143.372L140.472 184.54ZM152.984 190.24C151.944 190.24 151.031 189.98 150.244 189.46C149.458 188.94 148.844 188.18 148.404 187.18C147.964 186.167 147.744 184.913 147.744 183.42C147.744 181.967 147.964 180.747 148.404 179.76C148.844 178.76 149.458 178.007 150.244 177.5C151.031 176.98 151.944 176.72 152.984 176.72C154.024 176.72 154.938 176.98 155.724 177.5C156.511 178.007 157.124 178.76 157.564 179.76C158.004 180.747 158.224 181.967 158.224 183.42C158.224 184.913 158.004 186.167 157.564 187.18C157.124 188.18 156.511 188.94 155.724 189.46C154.938 189.98 154.024 190.24 152.984 190.24ZM152.984 187.7C153.438 187.7 153.831 187.54 154.164 187.22C154.498 186.887 154.751 186.407 154.924 185.78C155.111 185.14 155.204 184.353 155.204 183.42C155.204 182.513 155.111 181.753 154.924 181.14C154.751 180.527 154.498 180.06 154.164 179.74C153.831 179.42 153.438 179.26 152.984 179.26C152.531 179.26 152.138 179.42 151.804 179.74C151.471 180.06 151.211 180.527 151.024 181.14C150.851 181.753 150.764 182.513 150.764 183.42C150.764 184.353 150.851 185.14 151.024 185.78C151.211 186.407 151.471 186.887 151.804 187.22C152.138 187.54 152.531 187.7 152.984 187.7ZM160.457 190V176.96H164.837C165.743 176.96 166.557 177.06 167.277 177.26C167.997 177.447 168.563 177.773 168.977 178.24C169.403 178.707 169.617 179.36 169.617 180.2C169.617 180.787 169.437 181.353 169.077 181.9C168.717 182.447 168.15 182.82 167.377 183.02V183.1C168.31 183.26 169.017 183.593 169.497 184.1C169.977 184.593 170.217 185.28 170.217 186.16C170.217 187.04 169.997 187.767 169.557 188.34C169.117 188.9 168.517 189.32 167.757 189.6C167.01 189.867 166.163 190 165.217 190H160.457ZM163.397 182.2H164.697C165.417 182.2 165.937 182.06 166.257 181.78C166.577 181.487 166.737 181.093 166.737 180.6C166.737 180.12 166.57 179.78 166.237 179.58C165.917 179.367 165.41 179.26 164.717 179.26H163.397V182.2ZM163.397 187.7H164.977C165.777 187.7 166.37 187.553 166.757 187.26C167.143 186.967 167.337 186.527 167.337 185.94C167.337 185.367 167.143 184.953 166.757 184.7C166.37 184.447 165.777 184.32 164.977 184.32H163.397V187.7ZM173.109 190V176.96H176.049V187.52H181.849V190H173.109ZM184.801 190V176.96H193.441V179.44H187.761V182.06H192.581V184.52H187.761V187.52H193.641V190H184.801ZM196.113 190V176.96H199.193L200.473 181.58L200.913 183.38H200.993L201.433 181.58L202.713 176.96H205.793V190H203.313V185.96C203.313 185.6 203.326 185.153 203.353 184.62C203.38 184.073 203.413 183.507 203.453 182.92C203.493 182.333 203.533 181.773 203.573 181.24C203.626 180.707 203.666 180.267 203.693 179.92H203.633L202.633 183.4L201.633 186.54H200.193L199.173 183.4L198.233 179.92H198.173C198.2 180.267 198.233 180.707 198.273 181.24C198.326 181.773 198.373 182.333 198.413 182.92C198.453 183.507 198.486 184.073 198.513 184.62C198.54 185.153 198.553 185.6 198.553 185.96V190H196.113ZM224.898 190.24C224.018 190.24 223.144 190.08 222.278 189.76C221.424 189.44 220.644 188.973 219.938 188.36L221.638 186.34C222.131 186.74 222.671 187.067 223.258 187.32C223.858 187.573 224.471 187.7 225.098 187.7C225.724 187.7 226.184 187.593 226.478 187.38C226.784 187.167 226.938 186.893 226.938 186.56C226.938 186.253 226.858 186.013 226.698 185.84C226.538 185.653 226.304 185.493 225.998 185.36C225.691 185.213 225.331 185.053 224.918 184.88L223.238 184.16C222.758 183.973 222.304 183.727 221.877 183.42C221.451 183.1 221.104 182.713 220.838 182.26C220.584 181.793 220.458 181.24 220.458 180.6C220.458 179.88 220.658 179.233 221.058 178.66C221.471 178.073 222.031 177.607 222.738 177.26C223.458 176.9 224.291 176.72 225.238 176.72C226.024 176.72 226.798 176.867 227.558 177.16C228.318 177.453 228.991 177.88 229.578 178.44L228.078 180.3C227.624 179.967 227.171 179.713 226.718 179.54C226.264 179.353 225.718 179.26 225.078 179.26C224.598 179.26 224.204 179.36 223.898 179.56C223.591 179.76 223.438 180.053 223.438 180.44C223.438 180.693 223.531 180.907 223.718 181.08C223.904 181.253 224.158 181.407 224.478 181.54C224.798 181.673 225.164 181.82 225.578 181.98L227.158 182.66C227.744 182.873 228.244 183.14 228.658 183.46C229.071 183.767 229.391 184.147 229.618 184.6C229.844 185.053 229.957 185.587 229.957 186.2C229.957 186.92 229.758 187.587 229.358 188.2C228.971 188.813 228.398 189.307 227.638 189.68C226.891 190.053 225.978 190.24 224.898 190.24ZM235.45 190V179.44H231.55V176.96H242.31V179.44H238.41V190H235.45ZM243.102 190L247.162 176.96H250.682L254.742 190H251.622L249.942 183.4C249.782 182.747 249.609 182.053 249.422 181.32C249.235 180.587 249.062 179.88 248.902 179.2H248.822C248.662 179.88 248.495 180.587 248.322 181.32C248.149 182.053 247.975 182.747 247.802 183.4L246.102 190H243.102ZM245.782 186.9V184.6H252.022V186.9H245.782ZM259.434 190V179.44H255.534V176.96H266.294V179.44H262.394V190H259.434ZM268.746 190V176.96H277.386V179.44H271.706V182.06H276.526V184.52H271.706V187.52H277.586V190H268.746ZM280.058 190V176.96H283.138L284.418 181.58L284.858 183.38H284.938L285.378 181.58L286.658 176.96H289.738V190H287.258V185.96C287.258 185.6 287.272 185.153 287.298 184.62C287.325 184.073 287.358 183.507 287.398 182.92C287.438 182.333 287.478 181.773 287.518 181.24C287.572 180.707 287.612 180.267 287.638 179.92H287.578L286.578 183.4L285.578 186.54H284.138L283.118 183.4L282.178 179.92H282.118C282.145 180.267 282.178 180.707 282.218 181.24C282.272 181.773 282.318 182.333 282.358 182.92C282.398 183.507 282.432 184.073 282.458 184.62C282.485 185.153 282.498 185.6 282.498 185.96V190H280.058ZM292.731 190V176.96H301.371V179.44H295.691V182.06H300.511V184.52H295.691V187.52H301.571V190H292.731ZM304.203 190V176.96H307.223L309.963 183.44L311.083 186.32H311.163C311.096 185.627 311.009 184.853 310.903 184C310.796 183.147 310.743 182.34 310.743 181.58V176.96H313.563V190H310.543L307.803 183.5L306.683 180.66H306.603C306.669 181.367 306.756 182.14 306.863 182.98C306.969 183.807 307.023 184.607 307.023 185.38V190H304.203ZM319.395 190V179.44H315.495V176.96H326.255V179.44H322.355V190H319.395Z" fill="black"/>
<line x1="123" y1="1588.44" x2="1281" y2="1588.44" stroke="black" stroke-width="3"/>
<line x1="123" y1="1657.64" x2="1281" y2="1657.64" stroke="black"/>
<line x1="123" y1="1700.26" x2="1281" y2="1700.26" stroke="black"/>
<line x1="123" y1="1742.88" x2="1281" y2="1742.88" stroke="black"/>
<line x1="123" y1="1785.5" x2="1281" y2="1785.5" stroke="black"/>
<path d="M124.4 1619.94V1606.9H129.02C129.94 1606.9 130.78 1607.03 131.54 1607.28C132.3 1607.52 132.907 1607.94 133.36 1608.54C133.827 1609.13 134.06 1609.94 134.06 1610.96C134.06 1611.96 133.827 1612.78 133.36 1613.4C132.907 1614.03 132.3 1614.5 131.54 1614.8C130.78 1615.1 129.94 1615.24 129.02 1615.24H127.34V1619.94H124.4ZM127.34 1612.9H128.78C129.553 1612.9 130.14 1612.74 130.54 1612.42C130.953 1612.09 131.16 1611.6 131.16 1610.96C131.16 1610.32 130.953 1609.88 130.54 1609.62C130.14 1609.37 129.553 1609.24 128.78 1609.24H127.34V1612.9ZM128.48 1614.48L130.52 1612.58L134.68 1619.94H131.38L128.48 1614.48ZM140.992 1620.18C139.952 1620.18 139.039 1619.92 138.252 1619.4C137.466 1618.88 136.852 1618.12 136.412 1617.12C135.972 1616.11 135.752 1614.86 135.752 1613.36C135.752 1611.91 135.972 1610.69 136.412 1609.7C136.852 1608.7 137.466 1607.95 138.252 1607.44C139.039 1606.92 139.952 1606.66 140.992 1606.66C142.032 1606.66 142.946 1606.92 143.732 1607.44C144.519 1607.95 145.132 1608.7 145.572 1609.7C146.012 1610.69 146.232 1611.91 146.232 1613.36C146.232 1614.86 146.012 1616.11 145.572 1617.12C145.132 1618.12 144.519 1618.88 143.732 1619.4C142.946 1619.92 142.032 1620.18 140.992 1620.18ZM140.992 1617.64C141.446 1617.64 141.839 1617.48 142.172 1617.16C142.506 1616.83 142.759 1616.35 142.932 1615.72C143.119 1615.08 143.212 1614.3 143.212 1613.36C143.212 1612.46 143.119 1611.7 142.932 1611.08C142.759 1610.47 142.506 1610 142.172 1609.68C141.839 1609.36 141.446 1609.2 140.992 1609.2C140.539 1609.2 140.146 1609.36 139.812 1609.68C139.479 1610 139.219 1610.47 139.032 1611.08C138.859 1611.7 138.772 1612.46 138.772 1613.36C138.772 1614.3 138.859 1615.08 139.032 1615.72C139.219 1616.35 139.479 1616.83 139.812 1617.16C140.146 1617.48 140.539 1617.64 140.992 1617.64ZM152.984 1620.18C151.944 1620.18 151.031 1619.92 150.244 1619.4C149.458 1618.88 148.844 1618.12 148.404 1617.12C147.964 1616.11 147.744 1614.86 147.744 1613.36C147.744 1611.91 147.964 1610.69 148.404 1609.7C148.844 1608.7 149.458 1607.95 150.244 1607.44C151.031 1606.92 151.944 1606.66 152.984 1606.66C154.024 1606.66 154.938 1606.92 155.724 1607.44C156.511 1607.95 157.124 1608.7 157.564 1609.7C158.004 1610.69 158.224 1611.91 158.224 1613.36C158.224 1614.86 158.004 1616.11 157.564 1617.12C157.124 1618.12 156.511 1618.88 155.724 1619.4C154.938 1619.92 154.024 1620.18 152.984 1620.18ZM152.984 1617.64C153.438 1617.64 153.831 1617.48 154.164 1617.16C154.498 1616.83 154.751 1616.35 154.924 1615.72C155.111 1615.08 155.204 1614.3 155.204 1613.36C155.204 1612.46 155.111 1611.7 154.924 1611.08C154.751 1610.47 154.498 1610 154.164 1609.68C153.831 1609.36 153.438 1609.2 152.984 1609.2C152.531 1609.2 152.138 1609.36 151.804 1609.68C151.471 1610 151.211 1610.47 151.024 1611.08C150.851 1611.7 150.764 1612.46 150.764 1613.36C150.764 1614.3 150.851 1615.08 151.024 1615.72C151.211 1616.35 151.471 1616.83 151.804 1617.16C152.138 1617.48 152.531 1617.64 152.984 1617.64ZM163.497 1619.94V1609.38H159.597V1606.9H170.357V1609.38H166.457V1619.94H163.497ZM190.081 1620.18C189.268 1620.18 188.494 1620.04 187.761 1619.76C187.041 1619.48 186.401 1619.06 185.841 1618.5C185.281 1617.93 184.841 1617.23 184.521 1616.4C184.201 1615.56 184.041 1614.6 184.041 1613.5C184.041 1612.06 184.314 1610.84 184.861 1609.82C185.421 1608.8 186.168 1608.02 187.101 1607.48C188.048 1606.94 189.101 1606.66 190.261 1606.66C191.088 1606.66 191.834 1606.84 192.501 1607.18C193.168 1607.52 193.721 1607.9 194.161 1608.32L192.541 1610.14C192.234 1609.85 191.894 1609.62 191.521 1609.46C191.161 1609.29 190.741 1609.2 190.261 1609.2C189.648 1609.2 189.101 1609.38 188.621 1609.72C188.141 1610.06 187.761 1610.54 187.481 1611.16C187.201 1611.79 187.061 1612.54 187.061 1613.4C187.061 1614.3 187.201 1615.06 187.481 1615.7C187.761 1616.33 188.148 1616.81 188.641 1617.14C189.148 1617.48 189.728 1617.64 190.381 1617.64C190.861 1617.64 191.294 1617.54 191.681 1617.32C192.068 1617.11 192.421 1616.83 192.741 1616.48L194.361 1618.26C193.828 1618.89 193.201 1619.37 192.481 1619.7C191.761 1620.02 190.961 1620.18 190.081 1620.18ZM195.133 1619.94L199.193 1606.9H202.713L206.773 1619.94H203.653L201.973 1613.34C201.813 1612.69 201.64 1612 201.453 1611.26C201.266 1610.53 201.093 1609.82 200.933 1609.14H200.853C200.693 1609.82 200.526 1610.53 200.353 1611.26C200.18 1612 200.006 1612.69 199.833 1613.34L198.133 1619.94H195.133ZM197.813 1616.84V1614.54H204.053V1616.84H197.813ZM212.985 1620.18C212.185 1620.18 211.485 1620.07 210.885 1619.84C210.299 1619.6 209.805 1619.26 209.405 1618.82C209.019 1618.37 208.725 1617.82 208.525 1617.18C208.325 1616.53 208.225 1615.78 208.225 1614.92V1606.9H211.165V1615.22C211.165 1615.74 211.232 1616.18 211.365 1616.54C211.499 1616.9 211.699 1617.18 211.965 1617.36C212.232 1617.55 212.572 1617.64 212.985 1617.64C213.399 1617.64 213.739 1617.55 214.005 1617.36C214.285 1617.18 214.492 1616.9 214.625 1616.54C214.759 1616.18 214.825 1615.74 214.825 1615.22V1606.9H217.665V1614.92C217.665 1615.78 217.572 1616.53 217.385 1617.18C217.199 1617.82 216.905 1618.37 216.505 1618.82C216.119 1619.26 215.632 1619.6 215.045 1619.84C214.459 1620.07 213.772 1620.18 212.985 1620.18ZM224.898 1620.18C224.018 1620.18 223.144 1620.02 222.278 1619.7C221.424 1619.38 220.644 1618.92 219.938 1618.3L221.638 1616.28C222.131 1616.68 222.671 1617.01 223.258 1617.26C223.858 1617.52 224.471 1617.64 225.098 1617.64C225.724 1617.64 226.184 1617.54 226.478 1617.32C226.784 1617.11 226.938 1616.84 226.938 1616.5C226.938 1616.2 226.858 1615.96 226.698 1615.78C226.538 1615.6 226.304 1615.44 225.998 1615.3C225.691 1615.16 225.331 1615 224.918 1614.82L223.238 1614.1C222.758 1613.92 222.304 1613.67 221.877 1613.36C221.451 1613.04 221.104 1612.66 220.838 1612.2C220.584 1611.74 220.458 1611.18 220.458 1610.54C220.458 1609.82 220.658 1609.18 221.058 1608.6C221.471 1608.02 222.031 1607.55 222.738 1607.2C223.458 1606.84 224.291 1606.66 225.238 1606.66C226.024 1606.66 226.798 1606.81 227.558 1607.1C228.318 1607.4 228.991 1607.82 229.578 1608.38L228.078 1610.24C227.624 1609.91 227.171 1609.66 226.718 1609.48C226.264 1609.3 225.718 1609.2 225.078 1609.2C224.598 1609.2 224.204 1609.3 223.898 1609.5C223.591 1609.7 223.438 1610 223.438 1610.38C223.438 1610.64 223.531 1610.85 223.718 1611.02C223.904 1611.2 224.158 1611.35 224.478 1611.48C224.798 1611.62 225.164 1611.76 225.578 1611.92L227.158 1612.6C227.744 1612.82 228.244 1613.08 228.658 1613.4C229.071 1613.71 229.391 1614.09 229.618 1614.54C229.844 1615 229.957 1615.53 229.957 1616.14C229.957 1616.86 229.758 1617.53 229.358 1618.14C228.971 1618.76 228.398 1619.25 227.638 1619.62C226.891 1620 225.978 1620.18 224.898 1620.18ZM232.77 1619.94V1606.9H241.41V1609.38H235.73V1612H240.55V1614.46H235.73V1617.46H241.61V1619.94H232.77Z" fill="black"/>
<line x1="123" y1="1318.97" x2="1281" y2="1318.97" stroke="black" stroke-width="3"/>
<line x1="123" y1="1388.17" x2="1281" y2="1388.17" stroke="black"/>
<line x1="123" y1="1430.79" x2="1281" y2="1430.79" stroke="black"/>
<line x1="123" y1="1473.41" x2="1281" y2="1473.41" stroke="black"/>
<line x1="123" y1="1516.03" x2="1281" y2="1516.03" stroke="black"/>
<path d="M124.82 1351.47L123.08 1338.43H126.14L126.54 1345.37C126.54 1345.75 126.547 1346.11 126.56 1346.47C126.573 1346.82 126.58 1347.17 126.58 1347.53C126.593 1347.88 126.6 1348.25 126.6 1348.65H126.68C126.733 1348.25 126.793 1347.88 126.86 1347.53C126.94 1347.17 127.02 1346.81 127.1 1346.45C127.18 1346.09 127.253 1345.73 127.32 1345.37L128.2 1341.73H130.08L130.9 1345.37C130.98 1345.73 131.053 1346.09 131.12 1346.43C131.187 1346.78 131.26 1347.14 131.34 1347.51C131.42 1347.87 131.487 1348.25 131.54 1348.65H131.62C131.633 1348.25 131.64 1347.87 131.64 1347.51C131.653 1347.14 131.66 1346.78 131.66 1346.43C131.673 1346.09 131.687 1345.73 131.7 1345.37L132.06 1338.43H134.92L133.32 1351.47H130.16L129.4 1347.43C129.32 1347.02 129.247 1346.6 129.18 1346.17C129.113 1345.75 129.067 1345.34 129.04 1344.95H128.98C128.94 1345.34 128.893 1345.75 128.84 1346.17C128.787 1346.6 128.72 1347.02 128.64 1347.43L127.88 1351.47H124.82ZM136.272 1351.47V1338.43H139.212V1343.47H142.772V1338.43H145.712V1351.47H142.772V1346.03H139.212V1351.47H136.272ZM151.504 1351.47V1347.07L147.304 1338.43H150.464L151.784 1341.57C151.984 1342.07 152.178 1342.56 152.364 1343.05C152.564 1343.53 152.764 1344.03 152.964 1344.55H153.044C153.258 1344.03 153.464 1343.53 153.664 1343.05C153.878 1342.56 154.078 1342.07 154.264 1341.57L155.584 1338.43H158.664L154.464 1347.07V1351.47H151.504ZM163.337 1346.37C163.243 1345.84 163.277 1345.37 163.437 1344.97C163.597 1344.57 163.817 1344.22 164.097 1343.91C164.39 1343.61 164.69 1343.33 164.997 1343.07C165.317 1342.81 165.577 1342.55 165.777 1342.29C165.99 1342.04 166.097 1341.77 166.097 1341.47C166.097 1341.06 165.957 1340.75 165.677 1340.53C165.397 1340.32 165.043 1340.21 164.617 1340.21C164.203 1340.21 163.837 1340.3 163.517 1340.47C163.197 1340.63 162.883 1340.85 162.577 1341.13L160.937 1339.63C161.417 1339.1 161.983 1338.67 162.637 1338.33C163.303 1338 164.03 1337.83 164.817 1337.83C165.59 1337.83 166.283 1337.95 166.897 1338.19C167.51 1338.43 167.997 1338.79 168.357 1339.27C168.73 1339.75 168.917 1340.36 168.917 1341.09C168.917 1341.63 168.81 1342.08 168.597 1342.45C168.383 1342.81 168.117 1343.14 167.797 1343.43C167.477 1343.73 167.163 1344.01 166.857 1344.27C166.55 1344.54 166.297 1344.84 166.097 1345.17C165.91 1345.51 165.843 1345.91 165.897 1346.37H163.337ZM164.697 1351.71C164.123 1351.71 163.643 1351.53 163.257 1351.15C162.883 1350.77 162.697 1350.27 162.697 1349.67C162.697 1349.09 162.883 1348.61 163.257 1348.23C163.643 1347.86 164.123 1347.67 164.697 1347.67C165.27 1347.67 165.743 1347.86 166.117 1348.23C166.503 1348.61 166.697 1349.09 166.697 1349.67C166.697 1350.27 166.503 1350.77 166.117 1351.15C165.743 1351.53 165.27 1351.71 164.697 1351.71Z" fill="black"/>
<line x1="123" y1="1085.43" x2="1281" y2="1085.43" stroke="black" stroke-width="3"/>
<line x1="123" y1="1154.62" x2="1281" y2="1154.62" stroke="black"/>
<line x1="123" y1="1197.25" x2="1281" y2="1197.25" stroke="black"/>
<line x1="123" y1="1239.87" x2="1281" y2="1239.87" stroke="black"/>
<line x1="123" y1="1282.49" x2="1281" y2="1282.49" stroke="black"/>
<path d="M124.82 1117.93L123.08 1104.89H126.14L126.54 1111.83C126.54 1112.21 126.547 1112.57 126.56 1112.93C126.573 1113.28 126.58 1113.63 126.58 1113.99C126.593 1114.34 126.6 1114.71 126.6 1115.11H126.68C126.733 1114.71 126.793 1114.34 126.86 1113.99C126.94 1113.63 127.02 1113.27 127.1 1112.91C127.18 1112.55 127.253 1112.19 127.32 1111.83L128.2 1108.19H130.08L130.9 1111.83C130.98 1112.19 131.053 1112.55 131.12 1112.89C131.187 1113.24 131.26 1113.6 131.34 1113.97C131.42 1114.33 131.487 1114.71 131.54 1115.11H131.62C131.633 1114.71 131.64 1114.33 131.64 1113.97C131.653 1113.6 131.66 1113.24 131.66 1112.89C131.673 1112.55 131.687 1112.19 131.7 1111.83L132.06 1104.89H134.92L133.32 1117.93H130.16L129.4 1113.89C129.32 1113.48 129.247 1113.06 129.18 1112.63C129.113 1112.21 129.067 1111.8 129.04 1111.41H128.98C128.94 1111.8 128.893 1112.21 128.84 1112.63C128.787 1113.06 128.72 1113.48 128.64 1113.89L127.88 1117.93H124.82ZM136.272 1117.93V1104.89H139.212V1109.93H142.772V1104.89H145.712V1117.93H142.772V1112.49H139.212V1117.93H136.272ZM151.504 1117.93V1113.53L147.304 1104.89H150.464L151.784 1108.03C151.984 1108.53 152.178 1109.02 152.364 1109.51C152.564 1109.99 152.764 1110.49 152.964 1111.01H153.044C153.258 1110.49 153.464 1109.99 153.664 1109.51C153.878 1109.02 154.078 1108.53 154.264 1108.03L155.584 1104.89H158.664L154.464 1113.53V1117.93H151.504ZM163.337 1112.83C163.243 1112.3 163.277 1111.83 163.437 1111.43C163.597 1111.03 163.817 1110.68 164.097 1110.37C164.39 1110.07 164.69 1109.79 164.997 1109.53C165.317 1109.27 165.577 1109.01 165.777 1108.75C165.99 1108.5 166.097 1108.23 166.097 1107.93C166.097 1107.52 165.957 1107.21 165.677 1106.99C165.397 1106.78 165.043 1106.67 164.617 1106.67C164.203 1106.67 163.837 1106.76 163.517 1106.93C163.197 1107.09 162.883 1107.31 162.577 1107.59L160.937 1106.09C161.417 1105.56 161.983 1105.13 162.637 1104.79C163.303 1104.46 164.03 1104.29 164.817 1104.29C165.59 1104.29 166.283 1104.41 166.897 1104.65C167.51 1104.89 167.997 1105.25 168.357 1105.73C168.73 1106.21 168.917 1106.82 168.917 1107.55C168.917 1108.09 168.81 1108.54 168.597 1108.91C168.383 1109.27 168.117 1109.6 167.797 1109.89C167.477 1110.19 167.163 1110.47 166.857 1110.73C166.55 1111 166.297 1111.3 166.097 1111.63C165.91 1111.97 165.843 1112.37 165.897 1112.83H163.337ZM164.697 1118.17C164.123 1118.17 163.643 1117.99 163.257 1117.61C162.883 1117.23 162.697 1116.73 162.697 1116.13C162.697 1115.55 162.883 1115.07 163.257 1114.69C163.643 1114.32 164.123 1114.13 164.697 1114.13C165.27 1114.13 165.743 1114.32 166.117 1114.69C166.503 1115.07 166.697 1115.55 166.697 1116.13C166.697 1116.73 166.503 1117.23 166.117 1117.61C165.743 1117.99 165.27 1118.17 164.697 1118.17Z" fill="black"/>
<line x1="123" y1="851.891" x2="1281" y2="851.891" stroke="black" stroke-width="3"/>
<line x1="123" y1="921.084" x2="1281" y2="921.084" stroke="black"/>
<line x1="123" y1="963.705" x2="1281" y2="963.705" stroke="black"/>
<line x1="123" y1="1006.33" x2="1281" y2="1006.33" stroke="black"/>
<line x1="123" y1="1048.95" x2="1281" y2="1048.95" stroke="black"/>
<path d="M124.82 884.391L123.08 871.351H126.14L126.54 878.291C126.54 878.664 126.547 879.031 126.56 879.391C126.573 879.737 126.58 880.091 126.58 880.451C126.593 880.797 126.6 881.171 126.6 881.571H126.68C126.733 881.171 126.793 880.797 126.86 880.451C126.94 880.091 127.02 879.731 127.1 879.371C127.18 879.011 127.253 878.651 127.32 878.291L128.2 874.651H130.08L130.9 878.291C130.98 878.651 131.053 879.004 131.12 879.351C131.187 879.697 131.26 880.057 131.34 880.431C131.42 880.791 131.487 881.171 131.54 881.571H131.62C131.633 881.171 131.64 880.791 131.64 880.431C131.653 880.057 131.66 879.697 131.66 879.351C131.673 879.004 131.687 878.651 131.7 878.291L132.06 871.351H134.92L133.32 884.391H130.16L129.4 880.351C129.32 879.937 129.247 879.517 129.18 879.091C129.113 878.664 129.067 878.257 129.04 877.871H128.98C128.94 878.257 128.893 878.664 128.84 879.091C128.787 879.517 128.72 879.937 128.64 880.351L127.88 884.391H124.82ZM136.272 884.391V871.351H139.212V876.391H142.772V871.351H145.712V884.391H142.772V878.951H139.212V884.391H136.272ZM151.504 884.391V879.991L147.304 871.351H150.464L151.784 874.491C151.984 874.984 152.178 875.477 152.364 875.971C152.564 876.451 152.764 876.951 152.964 877.471H153.044C153.258 876.951 153.464 876.451 153.664 875.971C153.878 875.477 154.078 874.984 154.264 874.491L155.584 871.351H158.664L154.464 879.991V884.391H151.504ZM163.337 879.291C163.243 878.757 163.277 878.291 163.437 877.891C163.597 877.491 163.817 877.137 164.097 876.831C164.39 876.524 164.69 876.244 164.997 875.991C165.317 875.724 165.577 875.464 165.777 875.211C165.99 874.957 166.097 874.684 166.097 874.391C166.097 873.977 165.957 873.664 165.677 873.451C165.397 873.237 165.043 873.131 164.617 873.131C164.203 873.131 163.837 873.217 163.517 873.391C163.197 873.551 162.883 873.771 162.577 874.051L160.937 872.551C161.417 872.017 161.983 871.584 162.637 871.251C163.303 870.917 164.03 870.751 164.817 870.751C165.59 870.751 166.283 870.871 166.897 871.111C167.51 871.351 167.997 871.711 168.357 872.191C168.73 872.671 168.917 873.277 168.917 874.011C168.917 874.544 168.81 874.997 168.597 875.371C168.383 875.731 168.117 876.057 167.797 876.351C167.477 876.644 167.163 876.924 166.857 877.191C166.55 877.457 166.297 877.757 166.097 878.091C165.91 878.424 165.843 878.824 165.897 879.291H163.337ZM164.697 884.631C164.123 884.631 163.643 884.444 163.257 884.071C162.883 883.684 162.697 883.191 162.697 882.591C162.697 882.004 162.883 881.524 163.257 881.151C163.643 880.777 164.123 880.591 164.697 880.591C165.27 880.591 165.743 880.777 166.117 881.151C166.503 881.524 166.697 882.004 166.697 882.591C166.697 883.191 166.503 883.684 166.117 884.071C165.743 884.444 165.27 884.631 164.697 884.631Z" fill="black"/>
<line x1="123" y1="618.35" x2="1281" y2="618.35" stroke="black" stroke-width="3"/>
<line x1="123" y1="687.542" x2="1281" y2="687.542" stroke="black"/>
<line x1="123" y1="730.164" x2="1281" y2="730.164" stroke="black"/>
<line x1="123" y1="772.785" x2="1281" y2="772.785" stroke="black"/>
<line x1="123" y1="815.405" x2="1281" y2="815.405" stroke="black"/>
<path d="M124.82 650.85L123.08 637.81H126.14L126.54 644.75C126.54 645.123 126.547 645.49 126.56 645.85C126.573 646.196 126.58 646.55 126.58 646.91C126.593 647.256 126.6 647.63 126.6 648.03H126.68C126.733 647.63 126.793 647.256 126.86 646.91C126.94 646.55 127.02 646.19 127.1 645.83C127.18 645.47 127.253 645.11 127.32 644.75L128.2 641.11H130.08L130.9 644.75C130.98 645.11 131.053 645.463 131.12 645.81C131.187 646.156 131.26 646.516 131.34 646.89C131.42 647.25 131.487 647.63 131.54 648.03H131.62C131.633 647.63 131.64 647.25 131.64 646.89C131.653 646.516 131.66 646.156 131.66 645.81C131.673 645.463 131.687 645.11 131.7 644.75L132.06 637.81H134.92L133.32 650.85H130.16L129.4 646.81C129.32 646.396 129.247 645.976 129.18 645.55C129.113 645.123 129.067 644.716 129.04 644.33H128.98C128.94 644.716 128.893 645.123 128.84 645.55C128.787 645.976 128.72 646.396 128.64 646.81L127.88 650.85H124.82ZM136.272 650.85V637.81H139.212V642.85H142.772V637.81H145.712V650.85H142.772V645.41H139.212V650.85H136.272ZM151.504 650.85V646.45L147.304 637.81H150.464L151.784 640.95C151.984 641.443 152.178 641.936 152.364 642.43C152.564 642.91 152.764 643.41 152.964 643.93H153.044C153.258 643.41 153.464 642.91 153.664 642.43C153.878 641.936 154.078 641.443 154.264 640.95L155.584 637.81H158.664L154.464 646.45V650.85H151.504ZM163.337 645.75C163.243 645.216 163.277 644.75 163.437 644.35C163.597 643.95 163.817 643.596 164.097 643.29C164.39 642.983 164.69 642.703 164.997 642.45C165.317 642.183 165.577 641.923 165.777 641.67C165.99 641.416 166.097 641.143 166.097 640.85C166.097 640.436 165.957 640.123 165.677 639.91C165.397 639.696 165.043 639.59 164.617 639.59C164.203 639.59 163.837 639.676 163.517 639.85C163.197 640.01 162.883 640.23 162.577 640.51L160.937 639.01C161.417 638.476 161.983 638.043 162.637 637.71C163.303 637.376 164.03 637.21 164.817 637.21C165.59 637.21 166.283 637.33 166.897 637.57C167.51 637.81 167.997 638.17 168.357 638.65C168.73 639.13 168.917 639.736 168.917 640.47C168.917 641.003 168.81 641.456 168.597 641.83C168.383 642.19 168.117 642.516 167.797 642.81C167.477 643.103 167.163 643.383 166.857 643.65C166.55 643.916 166.297 644.216 166.097 644.55C165.91 644.883 165.843 645.283 165.897 645.75H163.337ZM164.697 651.09C164.123 651.09 163.643 650.903 163.257 650.53C162.883 650.143 162.697 649.65 162.697 649.05C162.697 648.463 162.883 647.983 163.257 647.61C163.643 647.236 164.123 647.05 164.697 647.05C165.27 647.05 165.743 647.236 166.117 647.61C166.503 647.983 166.697 648.463 166.697 649.05C166.697 649.65 166.503 650.143 166.117 650.53C165.743 650.903 165.27 651.09 164.697 651.09Z" fill="black"/>
<line x1="123" y1="384.808" x2="1281" y2="384.808" stroke="black" stroke-width="3"/>
<line x1="123" y1="454.001" x2="1281" y2="454.001" stroke="black"/>
<line x1="123" y1="496.622" x2="1281" y2="496.622" stroke="black"/>
<line x1="123" y1="539.243" x2="1281" y2="539.243" stroke="black"/>
<line x1="123" y1="581.864" x2="1281" y2="581.864" stroke="black"/>
<path d="M124.82 417.308L123.08 404.268H126.14L126.54 411.208C126.54 411.581 126.547 411.948 126.56 412.308C126.573 412.655 126.58 413.008 126.58 413.368C126.593 413.715 126.6 414.088 126.6 414.488H126.68C126.733 414.088 126.793 413.715 126.86 413.368C126.94 413.008 127.02 412.648 127.1 412.288C127.18 411.928 127.253 411.568 127.32 411.208L128.2 407.568H130.08L130.9 411.208C130.98 411.568 131.053 411.921 131.12 412.268C131.187 412.615 131.26 412.975 131.34 413.348C131.42 413.708 131.487 414.088 131.54 414.488H131.62C131.633 414.088 131.64 413.708 131.64 413.348C131.653 412.975 131.66 412.615 131.66 412.268C131.673 411.921 131.687 411.568 131.7 411.208L132.06 404.268H134.92L133.32 417.308H130.16L129.4 413.268C129.32 412.855 129.247 412.435 129.18 412.008C129.113 411.581 129.067 411.175 129.04 410.788H128.98C128.94 411.175 128.893 411.581 128.84 412.008C128.787 412.435 128.72 412.855 128.64 413.268L127.88 417.308H124.82ZM136.272 417.308V404.268H139.212V409.308H142.772V404.268H145.712V417.308H142.772V411.868H139.212V417.308H136.272ZM151.504 417.308V412.908L147.304 404.268H150.464L151.784 407.408C151.984 407.901 152.178 408.395 152.364 408.888C152.564 409.368 152.764 409.868 152.964 410.388H153.044C153.258 409.868 153.464 409.368 153.664 408.888C153.878 408.395 154.078 407.901 154.264 407.408L155.584 404.268H158.664L154.464 412.908V417.308H151.504ZM163.337 412.208C163.243 411.675 163.277 411.208 163.437 410.808C163.597 410.408 163.817 410.055 164.097 409.748C164.39 409.441 164.69 409.161 164.997 408.908C165.317 408.641 165.577 408.381 165.777 408.128C165.99 407.875 166.097 407.601 166.097 407.308C166.097 406.895 165.957 406.581 165.677 406.368C165.397 406.155 165.043 406.048 164.617 406.048C164.203 406.048 163.837 406.135 163.517 406.308C163.197 406.468 162.883 406.688 162.577 406.968L160.937 405.468C161.417 404.935 161.983 404.501 162.637 404.168C163.303 403.835 164.03 403.668 164.817 403.668C165.59 403.668 166.283 403.788 166.897 404.028C167.51 404.268 167.997 404.628 168.357 405.108C168.73 405.588 168.917 406.195 168.917 406.928C168.917 407.461 168.81 407.915 168.597 408.288C168.383 408.648 168.117 408.975 167.797 409.268C167.477 409.561 167.163 409.841 166.857 410.108C166.55 410.375 166.297 410.675 166.097 411.008C165.91 411.341 165.843 411.741 165.897 412.208H163.337ZM164.697 417.548C164.123 417.548 163.643 417.361 163.257 416.988C162.883 416.601 162.697 416.108 162.697 415.508C162.697 414.921 162.883 414.441 163.257 414.068C163.643 413.695 164.123 413.508 164.697 413.508C165.27 413.508 165.743 413.695 166.117 414.068C166.503 414.441 166.697 414.921 166.697 415.508C166.697 416.108 166.503 416.601 166.117 416.988C165.743 417.361 165.27 417.548 164.697 417.548Z" fill="black"/>
</svg>
