<svg width="1404" height="1872" viewBox="0 0 1404 1872" fill="none" xmlns="http://www.w3.org/2000/svg">
<rect width="1404" height="1872" fill="white"/>
<path d="M1000 133V119.96H1003.6C1004.87 119.96 1005.97 120.187 1006.9 120.64C1007.85 121.093 1008.58 121.8 1009.1 122.76C1009.62 123.707 1009.88 124.927 1009.88 126.42C1009.88 127.913 1009.62 129.147 1009.1 130.12C1008.59 131.093 1007.88 131.82 1006.96 132.3C1006.04 132.767 1004.98 133 1003.78 133H1000ZM1002.96 130.62H1003.44C1004.13 130.62 1004.73 130.487 1005.24 130.22C1005.75 129.953 1006.14 129.513 1006.42 128.9C1006.71 128.287 1006.86 127.46 1006.86 126.42C1006.86 125.38 1006.71 124.567 1006.42 123.98C1006.14 123.38 1005.75 122.96 1005.24 122.72C1004.73 122.467 1004.13 122.34 1003.44 122.34H1002.96V130.62ZM1010.77 133L1014.83 119.96H1018.35L1022.41 133H1019.29L1017.61 126.4C1017.45 125.747 1017.28 125.053 1017.09 124.32C1016.91 123.587 1016.73 122.88 1016.57 122.2H1016.49C1016.33 122.88 1016.17 123.587 1015.99 124.32C1015.82 125.053 1015.65 125.747 1015.47 126.4L1013.77 133H1010.77ZM1013.45 129.9V127.6H1019.69V129.9H1013.45ZM1027.1 133V122.44H1023.2V119.96H1033.96V122.44H1030.06V133H1027.1ZM1036.42 133V119.96H1045.06V122.44H1039.38V125.06H1044.2V127.52H1039.38V130.52H1045.26V133H1036.42ZM1052.57 126.78C1051.89 126.78 1051.33 126.553 1050.89 126.1C1050.46 125.647 1050.25 125.093 1050.25 124.44C1050.25 123.787 1050.46 123.233 1050.89 122.78C1051.33 122.313 1051.89 122.08 1052.57 122.08C1053.26 122.08 1053.82 122.313 1054.25 122.78C1054.68 123.233 1054.89 123.787 1054.89 124.44C1054.89 125.093 1054.68 125.647 1054.25 126.1C1053.82 126.553 1053.26 126.78 1052.57 126.78ZM1052.57 133.24C1051.89 133.24 1051.33 133.013 1050.89 132.56C1050.46 132.107 1050.25 131.553 1050.25 130.9C1050.25 130.247 1050.46 129.693 1050.89 129.24C1051.33 128.773 1051.89 128.54 1052.57 128.54C1053.26 128.54 1053.82 128.773 1054.25 129.24C1054.68 129.693 1054.89 130.247 1054.89 130.9C1054.89 131.553 1054.68 132.107 1054.25 132.56C1053.82 133.013 1053.26 133.24 1052.57 133.24ZM1131.99 136.2L1138.57 118.8H1141.03L1134.45 136.2H1131.99ZM1227.93 136.2L1234.51 118.8H1236.97L1230.39 136.2H1227.93Z" fill="black"/>
<line x1="123" y1="155.318" x2="1281" y2="155.318" stroke="black" stroke-width="3"/>
<line x1="123" y1="221.409" x2="1281" y2="221.409" stroke="black"/>
<line x1="123" y1="262.091" x2="1281" y2="262.091" stroke="black"/>
<line x1="123" y1="302.773" x2="1281" y2="302.773" stroke="black"/>
<line x1="123" y1="343.455" x2="1281" y2="343.455" stroke="black"/>
<line x1="123" y1="384.136" x2="1281" y2="384.136" stroke="black"/>
<line x1="123" y1="424.818" x2="1281" y2="424.818" stroke="black"/>
<line x1="123" y1="465.5" x2="1281" y2="465.5" stroke="black"/>
<line x1="123" y1="506.182" x2="1281" y2="506.182" stroke="black"/>
<line x1="123" y1="546.863" x2="1281" y2="546.863" stroke="black"/>
<line x1="123" y1="587.545" x2="1281" y2="587.545" stroke="black"/>
<line x1="123" y1="628.227" x2="1281" y2="628.227" stroke="black"/>
<path d="M127.52 186.278V181.878L123.32 173.238H126.48L127.8 176.378C128 176.871 128.193 177.364 128.38 177.858C128.58 178.338 128.78 178.838 128.98 179.358H129.06C129.273 178.838 129.48 178.338 129.68 177.858C129.893 177.364 130.093 176.871 130.28 176.378L131.6 173.238H134.68L130.48 181.878V186.278H127.52ZM136.832 186.278V173.238H145.472V175.718H139.792V178.338H144.612V180.798H139.792V183.798H145.672V186.278H136.832ZM152.944 186.518C152.064 186.518 151.191 186.358 150.324 186.038C149.471 185.718 148.691 185.251 147.984 184.638L149.684 182.618C150.178 183.018 150.718 183.344 151.304 183.598C151.904 183.851 152.518 183.978 153.144 183.978C153.771 183.978 154.231 183.871 154.524 183.658C154.831 183.444 154.984 183.171 154.984 182.838C154.984 182.531 154.904 182.291 154.744 182.118C154.584 181.931 154.351 181.771 154.044 181.638C153.738 181.491 153.378 181.331 152.964 181.158L151.284 180.438C150.804 180.251 150.351 180.004 149.924 179.698C149.498 179.378 149.151 178.991 148.884 178.538C148.631 178.071 148.504 177.518 148.504 176.878C148.504 176.158 148.704 175.511 149.104 174.938C149.518 174.351 150.078 173.884 150.784 173.538C151.504 173.178 152.338 172.998 153.284 172.998C154.071 172.998 154.844 173.144 155.604 173.438C156.364 173.731 157.038 174.158 157.624 174.718L156.124 176.578C155.671 176.244 155.218 175.991 154.764 175.818C154.311 175.631 153.764 175.538 153.124 175.538C152.644 175.538 152.251 175.638 151.944 175.838C151.638 176.038 151.484 176.331 151.484 176.718C151.484 176.971 151.578 177.184 151.764 177.358C151.951 177.531 152.204 177.684 152.524 177.818C152.844 177.951 153.211 178.098 153.624 178.258L155.204 178.938C155.791 179.151 156.291 179.418 156.704 179.738C157.118 180.044 157.438 180.424 157.664 180.878C157.891 181.331 158.004 181.864 158.004 182.478C158.004 183.198 157.804 183.864 157.404 184.478C157.018 185.091 156.444 185.584 155.684 185.958C154.938 186.331 154.024 186.518 152.944 186.518ZM163.497 186.278V175.718H159.597V173.238H170.357V175.718H166.457V186.278H163.497ZM172.809 186.278V173.238H181.449V175.718H175.769V178.338H180.589V180.798H175.769V183.798H181.649V186.278H172.809ZM184.361 186.278V173.238H188.981C189.901 173.238 190.741 173.364 191.501 173.618C192.261 173.858 192.868 174.278 193.321 174.878C193.788 175.464 194.021 176.271 194.021 177.298C194.021 178.298 193.788 179.111 193.321 179.738C192.868 180.364 192.261 180.831 191.501 181.138C190.741 181.431 189.901 181.578 188.981 181.578H187.301V186.278H184.361ZM187.301 179.238H188.741C189.514 179.238 190.101 179.078 190.501 178.758C190.914 178.424 191.121 177.938 191.121 177.298C191.121 176.658 190.914 176.211 190.501 175.958C190.101 175.704 189.514 175.578 188.741 175.578H187.301V179.238ZM188.441 180.818L190.481 178.918L194.641 186.278H191.341L188.441 180.818ZM196.353 186.278V173.238H199.953C201.22 173.238 202.32 173.464 203.253 173.918C204.2 174.371 204.933 175.078 205.453 176.038C205.973 176.984 206.233 178.204 206.233 179.698C206.233 181.191 205.973 182.424 205.453 183.398C204.946 184.371 204.233 185.098 203.313 185.578C202.393 186.044 201.333 186.278 200.133 186.278H196.353ZM199.313 183.898H199.793C200.486 183.898 201.086 183.764 201.593 183.498C202.1 183.231 202.493 182.791 202.773 182.178C203.066 181.564 203.213 180.738 203.213 179.698C203.213 178.658 203.066 177.844 202.773 177.258C202.493 176.658 202.1 176.238 201.593 175.998C201.086 175.744 200.486 175.618 199.793 175.618H199.313V183.898ZM207.125 186.278L211.185 173.238H214.705L218.765 186.278H215.645L213.965 179.678C213.805 179.024 213.632 178.331 213.445 177.598C213.259 176.864 213.085 176.158 212.925 175.478H212.845C212.685 176.158 212.519 176.864 212.345 177.598C212.172 178.331 211.999 179.024 211.825 179.678L210.125 186.278H207.125ZM209.805 183.178V180.878H216.045V183.178H209.805ZM223.458 186.278V181.878L219.258 173.238H222.418L223.738 176.378C223.938 176.871 224.131 177.364 224.318 177.858C224.518 178.338 224.718 178.838 224.918 179.358H224.998C225.211 178.838 225.418 178.338 225.618 177.858C225.831 177.364 226.031 176.871 226.218 176.378L227.538 173.238H230.618L226.418 181.878V186.278H223.458Z" fill="black"/>
<line x1="123" y1="700.454" x2="1281" y2="700.454" stroke="black" stroke-width="3"/>
<line x1="123" y1="766.545" x2="1281" y2="766.545" stroke="black"/>
<line x1="123" y1="807.227" x2="1281" y2="807.227" stroke="black"/>
<line x1="123" y1="847.909" x2="1281" y2="847.909" stroke="black"/>
<line x1="123" y1="888.591" x2="1281" y2="888.591" stroke="black"/>
<line x1="123" y1="929.272" x2="1281" y2="929.272" stroke="black"/>
<line x1="123" y1="969.954" x2="1281" y2="969.954" stroke="black"/>
<line x1="123" y1="1010.64" x2="1281" y2="1010.64" stroke="black"/>
<line x1="123" y1="1051.32" x2="1281" y2="1051.32" stroke="black"/>
<line x1="123" y1="1092" x2="1281" y2="1092" stroke="black"/>
<line x1="123" y1="1132.68" x2="1281" y2="1132.68" stroke="black"/>
<line x1="123" y1="1173.36" x2="1281" y2="1173.36" stroke="black"/>
<path d="M127.52 730.954V720.394H123.62V717.914H134.38V720.394H130.48V730.954H127.52ZM140.992 731.194C139.952 731.194 139.039 730.934 138.252 730.414C137.466 729.894 136.852 729.134 136.412 728.134C135.972 727.121 135.752 725.868 135.752 724.374C135.752 722.921 135.972 721.701 136.412 720.714C136.852 719.714 137.466 718.961 138.252 718.454C139.039 717.934 139.952 717.674 140.992 717.674C142.032 717.674 142.946 717.934 143.732 718.454C144.519 718.961 145.132 719.714 145.572 720.714C146.012 721.701 146.232 722.921 146.232 724.374C146.232 725.868 146.012 727.121 145.572 728.134C145.132 729.134 144.519 729.894 143.732 730.414C142.946 730.934 142.032 731.194 140.992 731.194ZM140.992 728.654C141.446 728.654 141.839 728.494 142.172 728.174C142.506 727.841 142.759 727.361 142.932 726.734C143.119 726.094 143.212 725.308 143.212 724.374C143.212 723.468 143.119 722.708 142.932 722.094C142.759 721.481 142.506 721.014 142.172 720.694C141.839 720.374 141.446 720.214 140.992 720.214C140.539 720.214 140.146 720.374 139.812 720.694C139.479 721.014 139.219 721.481 139.032 722.094C138.859 722.708 138.772 723.468 138.772 724.374C138.772 725.308 138.859 726.094 139.032 726.734C139.219 727.361 139.479 727.841 139.812 728.174C140.146 728.494 140.539 728.654 140.992 728.654ZM148.384 730.954V717.914H151.984C153.251 717.914 154.351 718.141 155.284 718.594C156.231 719.048 156.964 719.754 157.484 720.714C158.004 721.661 158.264 722.881 158.264 724.374C158.264 725.868 158.004 727.101 157.484 728.074C156.978 729.048 156.264 729.774 155.344 730.254C154.424 730.721 153.364 730.954 152.164 730.954H148.384ZM151.344 728.574H151.824C152.518 728.574 153.118 728.441 153.624 728.174C154.131 727.908 154.524 727.468 154.804 726.854C155.098 726.241 155.244 725.414 155.244 724.374C155.244 723.334 155.098 722.521 154.804 721.934C154.524 721.334 154.131 720.914 153.624 720.674C153.118 720.421 152.518 720.294 151.824 720.294H151.344V728.574ZM159.157 730.954L163.217 717.914H166.737L170.797 730.954H167.677L165.997 724.354C165.837 723.701 165.663 723.008 165.477 722.274C165.29 721.541 165.117 720.834 164.957 720.154H164.877C164.717 720.834 164.55 721.541 164.377 722.274C164.203 723.008 164.03 723.701 163.857 724.354L162.157 730.954H159.157ZM161.837 727.854V725.554H168.077V727.854H161.837ZM175.489 730.954V726.554L171.289 717.914H174.449L175.769 721.054C175.969 721.548 176.162 722.041 176.349 722.534C176.549 723.014 176.749 723.514 176.949 724.034H177.029C177.242 723.514 177.449 723.014 177.649 722.534C177.862 722.041 178.062 721.548 178.249 721.054L179.569 717.914H182.649L178.449 726.554V730.954H175.489Z" fill="black"/>
<line x1="123" y1="1245.59" x2="1281" y2="1245.59" stroke="black" stroke-width="3"/>
<line x1="123" y1="1311.68" x2="1281" y2="1311.68" stroke="black"/>
<line x1="123" y1="1352.36" x2="1281" y2="1352.36" stroke="black"/>
<line x1="123" y1="1393.04" x2="1281" y2="1393.04" stroke="black"/>
<line x1="123" y1="1433.73" x2="1281" y2="1433.73" stroke="black"/>
<line x1="123" y1="1474.41" x2="1281" y2="1474.41" stroke="black"/>
<line x1="123" y1="1515.09" x2="1281" y2="1515.09" stroke="black"/>
<line x1="123" y1="1555.77" x2="1281" y2="1555.77" stroke="black"/>
<line x1="123" y1="1596.45" x2="1281" y2="1596.45" stroke="black"/>
<line x1="123" y1="1637.14" x2="1281" y2="1637.14" stroke="black"/>
<line x1="123" y1="1677.82" x2="1281" y2="1677.82" stroke="black"/>
<line x1="123" y1="1718.5" x2="1281" y2="1718.5" stroke="black"/>
<path d="M124.48 1276.07V1263.03H128.86C129.767 1263.03 130.58 1263.13 131.3 1263.33C132.02 1263.52 132.587 1263.85 133 1264.31C133.427 1264.78 133.64 1265.43 133.64 1266.27C133.64 1266.86 133.46 1267.43 133.1 1267.97C132.74 1268.52 132.173 1268.89 131.4 1269.09V1269.17C132.333 1269.33 133.04 1269.67 133.52 1270.17C134 1270.67 134.24 1271.35 134.24 1272.23C134.24 1273.11 134.02 1273.84 133.58 1274.41C133.14 1274.97 132.54 1275.39 131.78 1275.67C131.033 1275.94 130.187 1276.07 129.24 1276.07H124.48ZM127.42 1268.27H128.72C129.44 1268.27 129.96 1268.13 130.28 1267.85C130.6 1267.56 130.76 1267.17 130.76 1266.67C130.76 1266.19 130.593 1265.85 130.26 1265.65C129.94 1265.44 129.433 1265.33 128.74 1265.33H127.42V1268.27ZM127.42 1273.77H129C129.8 1273.77 130.393 1273.63 130.78 1273.33C131.167 1273.04 131.36 1272.6 131.36 1272.01C131.36 1271.44 131.167 1271.03 130.78 1270.77C130.393 1270.52 129.8 1270.39 129 1270.39H127.42V1273.77ZM137.132 1276.07V1263.03H140.072V1273.59H145.872V1276.07H137.132ZM152.984 1276.31C151.944 1276.31 151.031 1276.05 150.244 1275.53C149.458 1275.01 148.844 1274.25 148.404 1273.25C147.964 1272.24 147.744 1270.99 147.744 1269.49C147.744 1268.04 147.964 1266.82 148.404 1265.83C148.844 1264.83 149.458 1264.08 150.244 1263.57C151.031 1263.05 151.944 1262.79 152.984 1262.79C154.024 1262.79 154.938 1263.05 155.724 1263.57C156.511 1264.08 157.124 1264.83 157.564 1265.83C158.004 1266.82 158.224 1268.04 158.224 1269.49C158.224 1270.99 158.004 1272.24 157.564 1273.25C157.124 1274.25 156.511 1275.01 155.724 1275.53C154.938 1276.05 154.024 1276.31 152.984 1276.31ZM152.984 1273.77C153.438 1273.77 153.831 1273.61 154.164 1273.29C154.498 1272.96 154.751 1272.48 154.924 1271.85C155.111 1271.21 155.204 1270.43 155.204 1269.49C155.204 1268.59 155.111 1267.83 154.924 1267.21C154.751 1266.6 154.498 1266.13 154.164 1265.81C153.831 1265.49 153.438 1265.33 152.984 1265.33C152.531 1265.33 152.138 1265.49 151.804 1265.81C151.471 1266.13 151.211 1266.6 151.024 1267.21C150.851 1267.83 150.764 1268.59 150.764 1269.49C150.764 1270.43 150.851 1271.21 151.024 1271.85C151.211 1272.48 151.471 1272.96 151.804 1273.29C152.138 1273.61 152.531 1273.77 152.984 1273.77ZM166.097 1276.31C165.283 1276.31 164.51 1276.17 163.777 1275.89C163.057 1275.61 162.417 1275.19 161.857 1274.63C161.297 1274.06 160.857 1273.36 160.537 1272.53C160.217 1271.69 160.057 1270.73 160.057 1269.63C160.057 1268.19 160.33 1266.97 160.877 1265.95C161.437 1264.93 162.183 1264.15 163.117 1263.61C164.063 1263.07 165.117 1262.79 166.277 1262.79C167.103 1262.79 167.85 1262.97 168.517 1263.31C169.183 1263.65 169.737 1264.03 170.177 1264.45L168.557 1266.27C168.25 1265.98 167.91 1265.75 167.537 1265.59C167.177 1265.42 166.757 1265.33 166.277 1265.33C165.663 1265.33 165.117 1265.51 164.637 1265.85C164.157 1266.19 163.777 1266.67 163.497 1267.29C163.217 1267.92 163.077 1268.67 163.077 1269.53C163.077 1270.43 163.217 1271.19 163.497 1271.83C163.777 1272.46 164.163 1272.94 164.657 1273.27C165.163 1273.61 165.743 1273.77 166.397 1273.77C166.877 1273.77 167.31 1273.67 167.697 1273.45C168.083 1273.24 168.437 1272.96 168.757 1272.61L170.377 1274.39C169.843 1275.02 169.217 1275.5 168.497 1275.83C167.777 1276.15 166.977 1276.31 166.097 1276.31ZM172.329 1276.07V1263.03H175.309V1268.37H175.369L179.229 1263.03H182.489L175.309 1272.51V1276.07H172.329ZM179.589 1276.07L176.549 1270.01L178.289 1267.71L182.849 1276.07H179.589ZM184.801 1276.07V1263.03H193.441V1265.51H187.761V1268.13H192.581V1270.59H187.761V1273.59H193.641V1276.07H184.801ZM196.353 1276.07V1263.03H200.973C201.893 1263.03 202.733 1263.16 203.493 1263.41C204.253 1263.65 204.86 1264.07 205.313 1264.67C205.78 1265.26 206.013 1266.07 206.013 1267.09C206.013 1268.09 205.78 1268.91 205.313 1269.53C204.86 1270.16 204.253 1270.63 203.493 1270.93C202.733 1271.23 201.893 1271.37 200.973 1271.37H199.293V1276.07H196.353ZM199.293 1269.03H200.733C201.506 1269.03 202.093 1268.87 202.493 1268.55C202.906 1268.22 203.113 1267.73 203.113 1267.09C203.113 1266.45 202.906 1266.01 202.493 1265.75C202.093 1265.5 201.506 1265.37 200.733 1265.37H199.293V1269.03ZM200.433 1270.61L202.473 1268.71L206.633 1276.07H203.333L200.433 1270.61ZM212.905 1276.31C212.025 1276.31 211.152 1276.15 210.285 1275.83C209.432 1275.51 208.652 1275.05 207.945 1274.43L209.645 1272.41C210.139 1272.81 210.679 1273.14 211.265 1273.39C211.865 1273.65 212.479 1273.77 213.105 1273.77C213.732 1273.77 214.192 1273.67 214.485 1273.45C214.792 1273.24 214.945 1272.97 214.945 1272.63C214.945 1272.33 214.865 1272.09 214.705 1271.91C214.545 1271.73 214.312 1271.57 214.005 1271.43C213.699 1271.29 213.339 1271.13 212.925 1270.95L211.245 1270.23C210.765 1270.05 210.312 1269.8 209.885 1269.49C209.459 1269.17 209.112 1268.79 208.845 1268.33C208.592 1267.87 208.465 1267.31 208.465 1266.67C208.465 1265.95 208.665 1265.31 209.065 1264.73C209.479 1264.15 210.039 1263.68 210.745 1263.33C211.465 1262.97 212.299 1262.79 213.245 1262.79C214.032 1262.79 214.805 1262.94 215.565 1263.23C216.325 1263.53 216.999 1263.95 217.585 1264.51L216.085 1266.37C215.632 1266.04 215.179 1265.79 214.725 1265.61C214.272 1265.43 213.725 1265.33 213.085 1265.33C212.605 1265.33 212.212 1265.43 211.905 1265.63C211.599 1265.83 211.445 1266.13 211.445 1266.51C211.445 1266.77 211.539 1266.98 211.725 1267.15C211.912 1267.33 212.165 1267.48 212.485 1267.61C212.805 1267.75 213.172 1267.89 213.585 1268.05L215.165 1268.73C215.752 1268.95 216.252 1269.21 216.665 1269.53C217.079 1269.84 217.399 1270.22 217.625 1270.67C217.852 1271.13 217.965 1271.66 217.965 1272.27C217.965 1272.99 217.765 1273.66 217.365 1274.27C216.979 1274.89 216.405 1275.38 215.645 1275.75C214.899 1276.13 213.985 1276.31 212.905 1276.31Z" fill="black"/>
</svg>
